<?xml version="1.0" encoding="utf-8" standalone="no"?>
<!DOCTYPE svg PUBLIC "-//W3C//DTD SVG 1.1//EN"
  "http://www.w3.org/Graphics/SVG/1.1/DTD/svg11.dtd">
<!-- Created with matplotlib (https://matplotlib.org/) -->
<svg height="449.28pt" version="1.1" viewBox="0 0 449.28 449.28" width="449.28pt" xmlns="http://www.w3.org/2000/svg" xmlns:xlink="http://www.w3.org/1999/xlink">
 <defs>
  <style type="text/css">
*{stroke-linecap:butt;stroke-linejoin:round;}
  </style>
 </defs>
 <g id="figure_1">
  <g id="patch_1">
   <path d="M 0 449.28 
L 449.28 449.28 
L 449.28 0 
L 0 0 
z
" style="fill:none;"/>
  </g>
  <g id="axes_1">
   <g id="PathCollection_1">
    <defs>
     <path d="M 0 3.24037 
C 0.859356 3.24037 1.683631 2.898944 2.291288 2.291288 
C 2.898944 1.683631 3.24037 0.859356 3.24037 0 
C 3.24037 -0.859356 2.898944 -1.683631 2.291288 -2.291288 
C 1.683631 -2.898944 0.859356 -3.24037 0 -3.24037 
C -0.859356 -3.24037 -1.683631 -2.898944 -2.291288 -2.291288 
C -2.898944 -1.683631 -3.24037 -0.859356 -3.24037 0 
C -3.24037 0.859356 -2.898944 1.683631 -2.291288 2.291288 
C -1.683631 2.898944 -0.859356 3.24037 0 3.24037 
z
" id="m8566211eea" style="stroke:#336b87;"/>
    </defs>
    <g clip-path="url(#p63b005100f)">
     <use style="fill:#336b87;stroke:#336b87;" x="311.616" xlink:href="#m8566211eea" y="224.64"/>
     <use style="fill:#336b87;stroke:#336b87;" x="308.652365" xlink:href="#m8566211eea" y="202.128955"/>
     <use style="fill:#336b87;stroke:#336b87;" x="299.963426" xlink:href="#m8566211eea" y="181.152"/>
     <use style="fill:#336b87;stroke:#336b87;" x="286.141319" xlink:href="#m8566211eea" y="163.138681"/>
     <use style="fill:#336b87;stroke:#336b87;" x="268.128" xlink:href="#m8566211eea" y="149.316574"/>
     <use style="fill:#336b87;stroke:#336b87;" x="247.151045" xlink:href="#m8566211eea" y="140.627635"/>
     <use style="fill:#336b87;stroke:#336b87;" x="224.64" xlink:href="#m8566211eea" y="137.664"/>
     <use style="fill:#336b87;stroke:#336b87;" x="202.128955" xlink:href="#m8566211eea" y="140.627635"/>
     <use style="fill:#336b87;stroke:#336b87;" x="181.152" xlink:href="#m8566211eea" y="149.316574"/>
     <use style="fill:#336b87;stroke:#336b87;" x="163.138681" xlink:href="#m8566211eea" y="163.138681"/>
     <use style="fill:#336b87;stroke:#336b87;" x="149.316574" xlink:href="#m8566211eea" y="181.152"/>
     <use style="fill:#336b87;stroke:#336b87;" x="140.627635" xlink:href="#m8566211eea" y="202.128955"/>
     <use style="fill:#336b87;stroke:#336b87;" x="137.664" xlink:href="#m8566211eea" y="224.64"/>
     <use style="fill:#336b87;stroke:#336b87;" x="140.627635" xlink:href="#m8566211eea" y="247.151045"/>
     <use style="fill:#336b87;stroke:#336b87;" x="149.316574" xlink:href="#m8566211eea" y="268.128"/>
     <use style="fill:#336b87;stroke:#336b87;" x="163.138681" xlink:href="#m8566211eea" y="286.141319"/>
     <use style="fill:#336b87;stroke:#336b87;" x="181.152" xlink:href="#m8566211eea" y="299.963426"/>
     <use style="fill:#336b87;stroke:#336b87;" x="202.128955" xlink:href="#m8566211eea" y="308.652365"/>
     <use style="fill:#336b87;stroke:#336b87;" x="224.64" xlink:href="#m8566211eea" y="311.616"/>
     <use style="fill:#336b87;stroke:#336b87;" x="247.151045" xlink:href="#m8566211eea" y="308.652365"/>
     <use style="fill:#336b87;stroke:#336b87;" x="268.128" xlink:href="#m8566211eea" y="299.963426"/>
     <use style="fill:#336b87;stroke:#336b87;" x="286.141319" xlink:href="#m8566211eea" y="286.141319"/>
     <use style="fill:#336b87;stroke:#336b87;" x="299.963426" xlink:href="#m8566211eea" y="268.128"/>
     <use style="fill:#336b87;stroke:#336b87;" x="308.652365" xlink:href="#m8566211eea" y="247.151045"/>
    </g>
   </g>
   <g id="PathCollection_2">
    <defs>
     <path d="M 0 3.24037 
C 0.859356 3.24037 1.683631 2.898944 2.291288 2.291288 
C 2.898944 1.683631 3.24037 0.859356 3.24037 0 
C 3.24037 -0.859356 2.898944 -1.683631 2.291288 -2.291288 
C 1.683631 -2.898944 0.859356 -3.24037 0 -3.24037 
C -0.859356 -3.24037 -1.683631 -2.898944 -2.291288 -2.291288 
C -2.898944 -1.683631 -3.24037 -0.859356 -3.24037 0 
C -3.24037 0.859356 -2.898944 1.683631 -2.291288 2.291288 
C -1.683631 2.898944 -0.859356 3.24037 0 3.24037 
z
" id="m897dc8e9db" style="stroke:#763626;"/>
    </defs>
    <g clip-path="url(#p63b005100f)">
     <use style="fill:#763626;stroke:#763626;" x="344.232" xlink:href="#m897dc8e9db" y="224.64"/>
     <use style="fill:#763626;stroke:#763626;" x="340.157001" xlink:href="#m897dc8e9db" y="193.687313"/>
     <use style="fill:#763626;stroke:#763626;" x="328.20971" xlink:href="#m897dc8e9db" y="164.844"/>
     <use style="fill:#763626;stroke:#763626;" x="309.204314" xlink:href="#m897dc8e9db" y="140.075686"/>
     <use style="fill:#763626;stroke:#763626;" x="284.436" xlink:href="#m897dc8e9db" y="121.07029"/>
     <use style="fill:#763626;stroke:#763626;" x="255.592687" xlink:href="#m897dc8e9db" y="109.122999"/>
     <use style="fill:#763626;stroke:#763626;" x="224.64" xlink:href="#m897dc8e9db" y="105.048"/>
     <use style="fill:#763626;stroke:#763626;" x="193.687313" xlink:href="#m897dc8e9db" y="109.122999"/>
     <use style="fill:#763626;stroke:#763626;" x="164.844" xlink:href="#m897dc8e9db" y="121.07029"/>
     <use style="fill:#763626;stroke:#763626;" x="140.075686" xlink:href="#m897dc8e9db" y="140.075686"/>
     <use style="fill:#763626;stroke:#763626;" x="121.07029" xlink:href="#m897dc8e9db" y="164.844"/>
     <use style="fill:#763626;stroke:#763626;" x="109.122999" xlink:href="#m897dc8e9db" y="193.687313"/>
     <use style="fill:#763626;stroke:#763626;" x="105.048" xlink:href="#m897dc8e9db" y="224.64"/>
     <use style="fill:#763626;stroke:#763626;" x="109.122999" xlink:href="#m897dc8e9db" y="255.592687"/>
     <use style="fill:#763626;stroke:#763626;" x="121.07029" xlink:href="#m897dc8e9db" y="284.436"/>
     <use style="fill:#763626;stroke:#763626;" x="140.075686" xlink:href="#m897dc8e9db" y="309.204314"/>
     <use style="fill:#763626;stroke:#763626;" x="164.844" xlink:href="#m897dc8e9db" y="328.20971"/>
     <use style="fill:#763626;stroke:#763626;" x="193.687313" xlink:href="#m897dc8e9db" y="340.157001"/>
     <use style="fill:#763626;stroke:#763626;" x="224.64" xlink:href="#m897dc8e9db" y="344.232"/>
     <use style="fill:#763626;stroke:#763626;" x="255.592687" xlink:href="#m897dc8e9db" y="340.157001"/>
     <use style="fill:#763626;stroke:#763626;" x="284.436" xlink:href="#m897dc8e9db" y="328.20971"/>
     <use style="fill:#763626;stroke:#763626;" x="309.204314" xlink:href="#m897dc8e9db" y="309.204314"/>
     <use style="fill:#763626;stroke:#763626;" x="328.20971" xlink:href="#m897dc8e9db" y="284.436"/>
     <use style="fill:#763626;stroke:#763626;" x="340.157001" xlink:href="#m897dc8e9db" y="255.592687"/>
    </g>
   </g>
   <g id="patch_2">
    <path clip-path="url(#p63b005100f)" d="M 300.907661 171.290975 
L 300.689885 166.642744 
L 299.297111 167.36532 
L 224.651301 110.430716 
L 224.628709 110.537285 
L 299.201234 167.41543 
L 297.813574 168.146032 
z
" style="fill:#763626;opacity:0.07253;stroke:#763626;stroke-linejoin:miter;"/>
   </g>
   <g id="patch_3">
    <path clip-path="url(#p63b005100f)" d="M 289.626628 179.267081 
L 288.914593 175.353788 
L 287.648608 176.292887 
L 224.64089 143.045653 
L 224.639111 143.154347 
L 287.561321 176.357682 
L 286.295978 177.297631 
z
" style="fill:#336b87;opacity:0.07253;stroke:#336b87;stroke-linejoin:miter;"/>
   </g>
   <g id="patch_4">
    <path clip-path="url(#p63b005100f)" d="M 286.394585 313.001242 
L 291.002334 310.73467 
L 289.870708 309.637487 
L 317.105779 224.633261 
L 316.99822 224.646731 
L 289.792847 309.561657 
L 288.6665 308.459778 
z
" style="fill:#336b87;opacity:0.07253;stroke:#336b87;stroke-linejoin:miter;"/>
   </g>
   <g id="patch_5">
    <path clip-path="url(#p63b005100f)" d="M 132.910565 288.684441 
L 134.482897 293.773103 
L 135.755163 292.842193 
L 224.638754 338.850347 
L 224.641245 338.741653 
L 135.842883 292.777963 
L 137.11451 291.8462 
z
" style="fill:#763626;opacity:0.07253;stroke:#763626;stroke-linejoin:miter;"/>
   </g>
   <g id="patch_6">
    <path clip-path="url(#p63b005100f)" d="M 286.552942 155.551257 
L 285.586864 150.963725 
L 284.342874 151.911115 
L 224.654844 110.43151 
L 224.62517 110.536492 
L 284.257377 151.97676 
L 283.021964 152.933036 
z
" style="fill:#763626;opacity:0.228581;stroke:#763626;stroke-linejoin:miter;"/>
   </g>
   <g id="patch_7">
    <path clip-path="url(#p63b005100f)" d="M 277.601604 165.721443 
L 276.05045 162.051897 
L 275.024368 163.248291 
L 224.641187 143.045663 
L 224.638815 143.154337 
L 274.953641 163.330833 
L 273.928648 164.52814 
z
" style="fill:#336b87;opacity:0.228581;stroke:#336b87;stroke-linejoin:miter;"/>
   </g>
   <g id="patch_8">
    <path clip-path="url(#p63b005100f)" d="M 305.043411 296.794412 
L 308.857069 293.34862 
L 307.468854 292.602525 
L 317.10534 224.631088 
L 316.998659 224.648901 
L 307.373293 292.550804 
L 305.990251 291.796998 
z
" style="fill:#336b87;opacity:0.228581;stroke:#336b87;stroke-linejoin:miter;"/>
   </g>
   <g id="patch_9">
    <path clip-path="url(#p63b005100f)" d="M 149.874253 307.81516 
L 152.527179 312.431581 
L 153.563894 311.243917 
L 224.638339 338.850337 
L 224.64166 338.741663 
L 153.635355 311.161977 
L 154.670985 309.973395 
z
" style="fill:#763626;opacity:0.228581;stroke:#763626;stroke-linejoin:miter;"/>
   </g>
   <g id="patch_10">
    <path clip-path="url(#p63b005100f)" d="M 268.838214 143.711765 
L 267.383541 139.178066 
L 266.272159 140.258161 
L 224.661381 110.433596 
L 224.618638 110.534408 
L 266.19599 140.333002 
L 265.098515 141.423259 
z
" style="fill:#763626;opacity:0.518955;stroke:#763626;stroke-linejoin:miter;"/>
   </g>
   <g id="patch_11">
    <path clip-path="url(#p63b005100f)" d="M 262.803176 155.295587 
L 260.510619 152.021379 
L 259.76808 153.411215 
L 224.641779 143.045692 
L 224.638223 143.154308 
L 259.716936 153.507099 
L 258.976292 154.897908 
z
" style="fill:#336b87;opacity:0.518955;stroke:#336b87;stroke-linejoin:miter;"/>
   </g>
   <g id="patch_12">
    <path clip-path="url(#p63b005100f)" d="M 319.764747 276.769299 
L 322.291233 272.28263 
L 320.738846 272.013824 
L 317.104142 224.626933 
L 316.999856 224.653053 
L 320.631927 271.994846 
L 319.083676 271.713307 
z
" style="fill:#336b87;opacity:0.518955;stroke:#336b87;stroke-linejoin:miter;"/>
   </g>
   <g id="patch_13">
    <path clip-path="url(#p63b005100f)" d="M 170.751049 322.558938 
L 174.32456 326.501579 
L 175.085594 325.120872 
L 224.63751 338.850308 
L 224.642488 338.741692 
L 175.138014 325.025616 
L 175.897159 323.643924 
z
" style="fill:#763626;opacity:0.518955;stroke:#763626;stroke-linejoin:miter;"/>
   </g>
   <g id="patch_14">
    <path clip-path="url(#p63b005100f)" d="M 248.385131 136.824756 
L 247.156799 132.026391 
L 246.033274 133.019412 
L 224.675875 110.441715 
L 224.604152 110.526296 
L 245.956525 133.088367 
L 244.854369 134.094938 
z
" style="fill:#763626;opacity:0.848755;stroke:#763626;stroke-linejoin:miter;"/>
   </g>
   <g id="patch_15">
    <path clip-path="url(#p63b005100f)" d="M 245.99265 148.642634 
L 243.133845 145.78955 
L 242.677705 147.295714 
L 224.643548 143.045846 
L 224.636456 143.154154 
L 242.646388 147.399625 
L 242.194341 148.906882 
z
" style="fill:#336b87;opacity:0.848755;stroke:#336b87;stroke-linejoin:miter;"/>
   </g>
   <g id="patch_16">
    <path clip-path="url(#p63b005100f)" d="M 330.306225 253.638751 
L 330.484536 248.47106 
L 328.983488 248.941562 
L 317.098829 224.616528 
L 317.005165 224.663448 
L 328.879924 248.973244 
L 327.377688 249.42152 
z
" style="fill:#336b87;opacity:0.848755;stroke:#336b87;stroke-linejoin:miter;"/>
   </g>
   <g id="patch_17">
    <path clip-path="url(#p63b005100f)" d="M 194.464987 332.037515 
L 198.698401 335.244731 
L 199.194595 333.747935 
L 224.635033 338.850154 
L 224.644962 338.741846 
L 199.228674 333.644668 
L 199.720787 332.146725 
z
" style="fill:#763626;opacity:0.848755;stroke:#763626;stroke-linejoin:miter;"/>
   </g>
   <g id="patch_18">
    <path clip-path="url(#p63b005100f)" d="M 224.64 135.4896 
L 226.050589 130.60778 
L 224.687021 130.597212 
L 224.697078 110.484014 
L 224.582922 110.484014 
L 224.592979 130.597212 
L 223.229411 130.60778 
z
" style="fill:#763626;stroke:#763626;stroke-linejoin:miter;"/>
   </g>
   <g id="patch_19">
    <path clip-path="url(#p63b005100f)" d="M 224.64 150.1668 
L 225.830439 145.283328 
L 224.679683 145.27441 
L 224.68077 143.10001 
L 224.59923 143.10001 
L 224.600317 145.27441 
L 223.449561 145.283328 
z
" style="fill:#336b87;stroke:#336b87;stroke-linejoin:miter;"/>
   </g>
   <g id="patch_20">
    <path clip-path="url(#p63b005100f)" d="M 336.6216 224.64 
L 331.717153 223.033722 
L 331.729187 224.586455 
L 317.051988 224.593794 
L 317.051988 224.686206 
L 331.729187 224.693545 
L 331.717153 226.246278 
z
" style="fill:#336b87;stroke:#336b87;stroke-linejoin:miter;"/>
   </g>
   <g id="patch_21">
    <path clip-path="url(#p63b005100f)" d="M 224.64 331.7292 
L 222.960339 336.609002 
L 224.584009 336.621586 
L 224.582922 338.795986 
L 224.697078 338.795986 
L 224.695991 336.621586 
L 226.319661 336.609002 
z
" style="fill:#763626;stroke:#763626;stroke-linejoin:miter;"/>
   </g>
   <g id="patch_22">
    <path clip-path="url(#p63b005100f)" d="M 200.894869 136.824756 
L 204.425631 134.094938 
L 203.323475 133.088367 
L 224.675848 110.526296 
L 224.604125 110.441715 
L 203.246726 133.019412 
L 202.123201 132.026391 
z
" style="fill:#763626;opacity:0.848755;stroke:#763626;stroke-linejoin:miter;"/>
   </g>
   <g id="patch_23">
    <path clip-path="url(#p63b005100f)" d="M 203.28735 148.642634 
L 207.085659 148.906882 
L 206.633612 147.399625 
L 224.643544 143.154154 
L 224.636452 143.045846 
L 206.602295 147.295714 
L 206.146155 145.78955 
z
" style="fill:#336b87;opacity:0.848755;stroke:#336b87;stroke-linejoin:miter;"/>
   </g>
   <g id="patch_24">
    <path clip-path="url(#p63b005100f)" d="M 330.306225 195.641249 
L 327.377688 199.85848 
L 328.879924 200.306756 
L 317.005165 224.616552 
L 317.098829 224.663472 
L 328.983488 200.338438 
L 330.484536 200.80894 
z
" style="fill:#336b87;opacity:0.848755;stroke:#336b87;stroke-linejoin:miter;"/>
   </g>
   <g id="patch_25">
    <path clip-path="url(#p63b005100f)" d="M 254.815013 332.037515 
L 249.559213 332.146725 
L 250.051326 333.644668 
L 224.635038 338.741846 
L 224.644967 338.850154 
L 250.085405 333.747935 
L 250.581599 335.244731 
z
" style="fill:#763626;opacity:0.848755;stroke:#763626;stroke-linejoin:miter;"/>
   </g>
   <g id="patch_26">
    <path clip-path="url(#p63b005100f)" d="M 180.441786 143.711765 
L 184.181485 141.423259 
L 183.08401 140.333002 
L 224.661362 110.534408 
L 224.618619 110.433596 
L 183.007841 140.258161 
L 181.896459 139.178066 
z
" style="fill:#763626;opacity:0.518955;stroke:#763626;stroke-linejoin:miter;"/>
   </g>
   <g id="patch_27">
    <path clip-path="url(#p63b005100f)" d="M 186.476824 155.295587 
L 190.303708 154.897908 
L 189.563064 153.507099 
L 224.641777 143.154308 
L 224.638221 143.045692 
L 189.51192 153.411215 
L 188.769381 152.021379 
z
" style="fill:#336b87;opacity:0.518955;stroke:#336b87;stroke-linejoin:miter;"/>
   </g>
   <g id="patch_28">
    <path clip-path="url(#p63b005100f)" d="M 319.764747 172.510701 
L 319.083676 177.566693 
L 320.631927 177.285154 
L 316.999856 224.626947 
L 317.104142 224.653067 
L 320.738846 177.266176 
L 322.291233 176.99737 
z
" style="fill:#336b87;opacity:0.518955;stroke:#336b87;stroke-linejoin:miter;"/>
   </g>
   <g id="patch_29">
    <path clip-path="url(#p63b005100f)" d="M 278.528951 322.558938 
L 273.382841 323.643924 
L 274.141986 325.025616 
L 224.637512 338.741692 
L 224.64249 338.850308 
L 274.194406 325.120872 
L 274.95544 326.501579 
z
" style="fill:#763626;opacity:0.518955;stroke:#763626;stroke-linejoin:miter;"/>
   </g>
   <g id="patch_30">
    <path clip-path="url(#p63b005100f)" d="M 162.727058 155.551257 
L 166.258036 152.933036 
L 165.022623 151.97676 
L 224.65483 110.536492 
L 224.625156 110.43151 
L 164.937126 151.911115 
L 163.693136 150.963725 
z
" style="fill:#763626;opacity:0.228581;stroke:#763626;stroke-linejoin:miter;"/>
   </g>
   <g id="patch_31">
    <path clip-path="url(#p63b005100f)" d="M 171.678396 165.721443 
L 175.351352 164.52814 
L 174.326359 163.330833 
L 224.641185 143.154337 
L 224.638813 143.045663 
L 174.255632 163.248291 
L 173.22955 162.051897 
z
" style="fill:#336b87;opacity:0.228581;stroke:#336b87;stroke-linejoin:miter;"/>
   </g>
   <g id="patch_32">
    <path clip-path="url(#p63b005100f)" d="M 305.043411 152.485588 
L 305.990251 157.483002 
L 307.373293 156.729196 
L 316.998659 224.631099 
L 317.10534 224.648912 
L 307.468854 156.677475 
L 308.857069 155.93138 
z
" style="fill:#336b87;opacity:0.228581;stroke:#336b87;stroke-linejoin:miter;"/>
   </g>
   <g id="patch_33">
    <path clip-path="url(#p63b005100f)" d="M 299.405747 307.81516 
L 294.609015 309.973395 
L 295.644645 311.161977 
L 224.63834 338.741663 
L 224.641661 338.850337 
L 295.716106 311.243917 
L 296.752821 312.431581 
z
" style="fill:#763626;opacity:0.228581;stroke:#763626;stroke-linejoin:miter;"/>
   </g>
   <g id="patch_34">
    <path clip-path="url(#p63b005100f)" d="M 148.372339 171.290975 
L 151.466426 168.146032 
L 150.078766 167.41543 
L 224.651291 110.537285 
L 224.628699 110.430716 
L 149.982889 167.36532 
L 148.590115 166.642744 
z
" style="fill:#763626;opacity:0.07253;stroke:#763626;stroke-linejoin:miter;"/>
   </g>
   <g id="patch_35">
    <path clip-path="url(#p63b005100f)" d="M 159.653372 179.267081 
L 162.984022 177.297631 
L 161.718679 176.357682 
L 224.640889 143.154347 
L 224.63911 143.045653 
L 161.631392 176.292887 
L 160.365407 175.353788 
z
" style="fill:#336b87;opacity:0.07253;stroke:#336b87;stroke-linejoin:miter;"/>
   </g>
   <g id="patch_36">
    <path clip-path="url(#p63b005100f)" d="M 286.394585 136.278758 
L 288.6665 140.820222 
L 289.792847 139.718343 
L 316.99822 224.633269 
L 317.105779 224.646739 
L 289.870708 139.642513 
L 291.002334 138.54533 
z
" style="fill:#336b87;opacity:0.07253;stroke:#336b87;stroke-linejoin:miter;"/>
   </g>
   <g id="patch_37">
    <path clip-path="url(#p63b005100f)" d="M 316.369435 288.684441 
L 312.16549 291.8462 
L 313.437117 292.777963 
L 224.638755 338.741653 
L 224.641246 338.850347 
L 313.524837 292.842193 
L 314.797103 293.773103 
z
" style="fill:#763626;opacity:0.07253;stroke:#763626;stroke-linejoin:miter;"/>
   </g>
   <g id="line2d_1">
    <path clip-path="url(#p63b005100f)" d="M 311.616 224.64 
L 308.652365 202.128955 
L 299.963426 181.152 
L 286.141319 163.138681 
L 268.128 149.316574 
L 247.151045 140.627635 
L 224.64 137.664 
L 202.128955 140.627635 
L 181.152 149.316574 
L 163.138681 163.138681 
L 149.316574 181.152 
L 140.627635 202.128955 
L 137.664 224.64 
L 140.627635 247.151045 
L 149.316574 268.128 
L 163.138681 286.141319 
L 181.152 299.963426 
L 202.128955 308.652365 
L 224.64 311.616 
L 247.151045 308.652365 
L 268.128 299.963426 
L 286.141319 286.141319 
L 299.963426 268.128 
L 308.652365 247.151045 
L 311.616 224.64 
" style="fill:none;stroke:#336b87;stroke-linecap:square;stroke-opacity:0.4;stroke-width:1.5;"/>
   </g>
   <g id="line2d_2">
    <path clip-path="url(#p63b005100f)" d="M 344.232 224.64 
L 340.157001 193.687313 
L 328.20971 164.844 
L 309.204314 140.075686 
L 284.436 121.07029 
L 255.592687 109.122999 
L 224.64 105.048 
L 193.687313 109.122999 
L 164.844 121.07029 
L 140.075686 140.075686 
L 121.07029 164.844 
L 109.122999 193.687313 
L 105.048 224.64 
L 109.122999 255.592687 
L 121.07029 284.436 
L 140.075686 309.204314 
L 164.844 328.20971 
L 193.687313 340.157001 
L 224.64 344.232 
L 255.592687 340.157001 
L 284.436 328.20971 
L 309.204314 309.204314 
L 328.20971 284.436 
L 340.157001 255.592687 
L 344.232 224.64 
" style="fill:none;stroke:#763626;stroke-linecap:square;stroke-opacity:0.4;stroke-width:1.5;"/>
   </g>
  </g>
 </g>
 <defs>
  <clipPath id="p63b005100f">
   <path d="M 442.08 224.64 
C 442.08 196.086041 436.455493 167.809733 425.528366 141.429314 
C 414.601238 115.048896 398.583997 91.0774 378.393299 70.886701 
C 358.2026 50.696003 334.231104 34.678762 307.850686 23.751634 
C 281.470267 12.824507 253.193959 7.2 224.64 7.2 
C 196.086041 7.2 167.809733 12.824507 141.429314 23.751634 
C 115.048896 34.678762 91.0774 50.696003 70.886701 70.886701 
C 50.696003 91.0774 34.678762 115.048896 23.751634 141.429314 
C 12.824507 167.809733 7.2 196.086041 7.2 224.64 
C 7.2 253.193959 12.824507 281.470267 23.751634 307.850686 
C 34.678762 334.231104 50.696003 358.2026 70.886701 378.393299 
C 91.0774 398.583997 115.048896 414.601238 141.429314 425.528366 
C 167.809733 436.455493 196.086041 442.08 224.64 442.08 
C 253.193959 442.08 281.470267 436.455493 307.850686 425.528366 
C 334.231104 414.601238 358.2026 398.583997 378.393299 378.393299 
C 398.583997 358.2026 414.601238 334.231104 425.528366 307.850686 
C 436.455493 281.470267 442.08 253.193959 442.08 224.64 
M 224.64 224.64 
C 224.64 224.64 224.64 224.64 224.64 224.64 
C 224.64 224.64 224.64 224.64 224.64 224.64 
C 224.64 224.64 224.64 224.64 224.64 224.64 
C 224.64 224.64 224.64 224.64 224.64 224.64 
C 224.64 224.64 224.64 224.64 224.64 224.64 
C 224.64 224.64 224.64 224.64 224.64 224.64 
C 224.64 224.64 224.64 224.64 224.64 224.64 
C 224.64 224.64 224.64 224.64 224.64 224.64 
C 224.64 224.64 224.64 224.64 224.64 224.64 
C 224.64 224.64 224.64 224.64 224.64 224.64 
C 224.64 224.64 224.64 224.64 224.64 224.64 
C 224.64 224.64 224.64 224.64 224.64 224.64 
C 224.64 224.64 224.64 224.64 224.64 224.64 
C 224.64 224.64 224.64 224.64 224.64 224.64 
C 224.64 224.64 224.64 224.64 224.64 224.64 
C 224.64 224.64 224.64 224.64 224.64 224.64 
M 442.08 224.64 
z
"/>
  </clipPath>
 </defs>
</svg>
