<?xml version="1.0" encoding="utf-8" standalone="no"?>
<!DOCTYPE svg PUBLIC "-//W3C//DTD SVG 1.1//EN"
  "http://www.w3.org/Graphics/SVG/1.1/DTD/svg11.dtd">
<!-- Created with matplotlib (https://matplotlib.org/) -->
<svg height="295.878125pt" version="1.1" viewBox="0 0 818.825 295.878125" width="818.825pt" xmlns="http://www.w3.org/2000/svg" xmlns:xlink="http://www.w3.org/1999/xlink">
 <defs>
  <style type="text/css">
*{stroke-linecap:butt;stroke-linejoin:round;}
  </style>
 </defs>
 <g id="figure_1">
  <g id="patch_1">
   <path d="M 0 295.878125 
L 818.825 295.878125 
L 818.825 0 
L 0 0 
z
" style="fill:none;"/>
  </g>
  <g id="axes_1">
   <g id="patch_2">
    <path d="M 26.925 282.799219 
L 808.125 282.799219 
L 808.125 10.999219 
L 26.925 10.999219 
z
" style="fill:none;"/>
   </g>
   <g id="patch_3">
    <path clip-path="url(#p9792e2bb7e)" d="M 22.999372 282.799219 
L 26.922383 282.799219 
L 26.922383 -158.875781 
L 22.999372 -158.875781 
z
"/>
   </g>
   <g id="patch_4">
    <path clip-path="url(#p9792e2bb7e)" d="M 26.922383 282.799219 
L 30.845394 282.799219 
L 30.845394 133.309219 
L 26.922383 133.309219 
z
"/>
   </g>
   <g id="patch_5">
    <path clip-path="url(#p9792e2bb7e)" d="M 30.845394 282.799219 
L 34.768405 282.799219 
L 34.768405 167.284219 
L 30.845394 167.284219 
z
"/>
   </g>
   <g id="patch_6">
    <path clip-path="url(#p9792e2bb7e)" d="M 34.768405 282.799219 
L 38.691416 282.799219 
L 38.691416 140.104219 
L 34.768405 140.104219 
z
"/>
   </g>
   <g id="patch_7">
    <path clip-path="url(#p9792e2bb7e)" d="M 38.691416 282.799219 
L 42.614427 282.799219 
L 42.614427 180.874219 
L 38.691416 180.874219 
z
"/>
   </g>
   <g id="patch_8">
    <path clip-path="url(#p9792e2bb7e)" d="M 42.614427 282.799219 
L 46.537438 282.799219 
L 46.537438 214.849219 
L 42.614427 214.849219 
z
"/>
   </g>
   <g id="patch_9">
    <path clip-path="url(#p9792e2bb7e)" d="M 46.537438 282.799219 
L 50.460449 282.799219 
L 50.460449 228.439219 
L 46.537438 228.439219 
z
"/>
   </g>
   <g id="patch_10">
    <path clip-path="url(#p9792e2bb7e)" d="M 50.460449 282.799219 
L 54.38346 282.799219 
L 54.38346 235.234219 
L 50.460449 235.234219 
z
"/>
   </g>
   <g id="patch_11">
    <path clip-path="url(#p9792e2bb7e)" d="M 54.38346 282.799219 
L 58.306471 282.799219 
L 58.306471 214.849219 
L 54.38346 214.849219 
z
"/>
   </g>
   <g id="patch_12">
    <path clip-path="url(#p9792e2bb7e)" d="M 58.306471 282.799219 
L 62.229482 282.799219 
L 62.229482 228.439219 
L 58.306471 228.439219 
z
"/>
   </g>
   <g id="patch_13">
    <path clip-path="url(#p9792e2bb7e)" d="M 62.229482 282.799219 
L 66.152493 282.799219 
L 66.152493 221.644219 
L 62.229482 221.644219 
z
"/>
   </g>
   <g id="patch_14">
    <path clip-path="url(#p9792e2bb7e)" d="M 66.152493 282.799219 
L 70.075505 282.799219 
L 70.075505 228.439219 
L 66.152493 228.439219 
z
"/>
   </g>
   <g id="patch_15">
    <path clip-path="url(#p9792e2bb7e)" d="M 70.075505 282.799219 
L 73.998516 282.799219 
L 73.998516 255.619219 
L 70.075505 255.619219 
z
"/>
   </g>
   <g id="patch_16">
    <path clip-path="url(#p9792e2bb7e)" d="M 73.998516 282.799219 
L 77.921527 282.799219 
L 77.921527 214.849219 
L 73.998516 214.849219 
z
"/>
   </g>
   <g id="patch_17">
    <path clip-path="url(#p9792e2bb7e)" d="M 77.921527 282.799219 
L 81.844538 282.799219 
L 81.844538 242.029219 
L 77.921527 242.029219 
z
"/>
   </g>
   <g id="patch_18">
    <path clip-path="url(#p9792e2bb7e)" d="M 81.844538 282.799219 
L 85.767549 282.799219 
L 85.767549 221.644219 
L 81.844538 221.644219 
z
"/>
   </g>
   <g id="patch_19">
    <path clip-path="url(#p9792e2bb7e)" d="M 85.767549 282.799219 
L 89.69056 282.799219 
L 89.69056 187.669219 
L 85.767549 187.669219 
z
"/>
   </g>
   <g id="patch_20">
    <path clip-path="url(#p9792e2bb7e)" d="M 89.69056 282.799219 
L 93.613571 282.799219 
L 93.613571 221.644219 
L 89.69056 221.644219 
z
"/>
   </g>
   <g id="patch_21">
    <path clip-path="url(#p9792e2bb7e)" d="M 93.613571 282.799219 
L 97.536582 282.799219 
L 97.536582 248.824219 
L 93.613571 248.824219 
z
"/>
   </g>
   <g id="patch_22">
    <path clip-path="url(#p9792e2bb7e)" d="M 97.536582 282.799219 
L 101.459593 282.799219 
L 101.459593 201.259219 
L 97.536582 201.259219 
z
"/>
   </g>
   <g id="patch_23">
    <path clip-path="url(#p9792e2bb7e)" d="M 101.459593 282.799219 
L 105.382604 282.799219 
L 105.382604 201.259219 
L 101.459593 201.259219 
z
"/>
   </g>
   <g id="patch_24">
    <path clip-path="url(#p9792e2bb7e)" d="M 105.382604 282.799219 
L 109.305615 282.799219 
L 109.305615 140.104219 
L 105.382604 140.104219 
z
"/>
   </g>
   <g id="patch_25">
    <path clip-path="url(#p9792e2bb7e)" d="M 109.305615 282.799219 
L 113.228626 282.799219 
L 113.228626 187.669219 
L 109.305615 187.669219 
z
"/>
   </g>
   <g id="patch_26">
    <path clip-path="url(#p9792e2bb7e)" d="M 113.228626 282.799219 
L 117.151637 282.799219 
L 117.151637 228.439219 
L 113.228626 228.439219 
z
"/>
   </g>
   <g id="patch_27">
    <path clip-path="url(#p9792e2bb7e)" d="M 117.151637 282.799219 
L 121.074648 282.799219 
L 121.074648 208.054219 
L 117.151637 208.054219 
z
"/>
   </g>
   <g id="patch_28">
    <path clip-path="url(#p9792e2bb7e)" d="M 121.074648 282.799219 
L 124.997659 282.799219 
L 124.997659 221.644219 
L 121.074648 221.644219 
z
"/>
   </g>
   <g id="patch_29">
    <path clip-path="url(#p9792e2bb7e)" d="M 124.997659 282.799219 
L 128.92067 282.799219 
L 128.92067 221.644219 
L 124.997659 221.644219 
z
"/>
   </g>
   <g id="patch_30">
    <path clip-path="url(#p9792e2bb7e)" d="M 128.92067 282.799219 
L 132.843681 282.799219 
L 132.843681 228.439219 
L 128.92067 228.439219 
z
"/>
   </g>
   <g id="patch_31">
    <path clip-path="url(#p9792e2bb7e)" d="M 132.843681 282.799219 
L 136.766692 282.799219 
L 136.766692 208.054219 
L 132.843681 208.054219 
z
"/>
   </g>
   <g id="patch_32">
    <path clip-path="url(#p9792e2bb7e)" d="M 136.766692 282.799219 
L 140.689704 282.799219 
L 140.689704 221.644219 
L 136.766692 221.644219 
z
"/>
   </g>
   <g id="patch_33">
    <path clip-path="url(#p9792e2bb7e)" d="M 140.689704 282.799219 
L 144.612715 282.799219 
L 144.612715 235.234219 
L 140.689704 235.234219 
z
"/>
   </g>
   <g id="patch_34">
    <path clip-path="url(#p9792e2bb7e)" d="M 144.612715 282.799219 
L 148.535726 282.799219 
L 148.535726 208.054219 
L 144.612715 208.054219 
z
"/>
   </g>
   <g id="patch_35">
    <path clip-path="url(#p9792e2bb7e)" d="M 148.535726 282.799219 
L 152.458737 282.799219 
L 152.458737 214.849219 
L 148.535726 214.849219 
z
"/>
   </g>
   <g id="patch_36">
    <path clip-path="url(#p9792e2bb7e)" d="M 152.458737 282.799219 
L 156.381748 282.799219 
L 156.381748 235.234219 
L 152.458737 235.234219 
z
"/>
   </g>
   <g id="patch_37">
    <path clip-path="url(#p9792e2bb7e)" d="M 156.381748 282.799219 
L 160.304759 282.799219 
L 160.304759 221.644219 
L 156.381748 221.644219 
z
"/>
   </g>
   <g id="patch_38">
    <path clip-path="url(#p9792e2bb7e)" d="M 160.304759 282.799219 
L 164.22777 282.799219 
L 164.22777 255.619219 
L 160.304759 255.619219 
z
"/>
   </g>
   <g id="patch_39">
    <path clip-path="url(#p9792e2bb7e)" d="M 164.22777 282.799219 
L 168.150781 282.799219 
L 168.150781 180.874219 
L 164.22777 180.874219 
z
"/>
   </g>
   <g id="patch_40">
    <path clip-path="url(#p9792e2bb7e)" d="M 168.150781 282.799219 
L 172.073792 282.799219 
L 172.073792 235.234219 
L 168.150781 235.234219 
z
"/>
   </g>
   <g id="patch_41">
    <path clip-path="url(#p9792e2bb7e)" d="M 172.073792 282.799219 
L 175.996803 282.799219 
L 175.996803 221.644219 
L 172.073792 221.644219 
z
"/>
   </g>
   <g id="patch_42">
    <path clip-path="url(#p9792e2bb7e)" d="M 175.996803 282.799219 
L 179.919814 282.799219 
L 179.919814 248.824219 
L 175.996803 248.824219 
z
"/>
   </g>
   <g id="patch_43">
    <path clip-path="url(#p9792e2bb7e)" d="M 179.919814 282.799219 
L 183.842825 282.799219 
L 183.842825 242.029219 
L 179.919814 242.029219 
z
"/>
   </g>
   <g id="patch_44">
    <path clip-path="url(#p9792e2bb7e)" d="M 183.842825 282.799219 
L 187.765836 282.799219 
L 187.765836 248.824219 
L 183.842825 248.824219 
z
"/>
   </g>
   <g id="patch_45">
    <path clip-path="url(#p9792e2bb7e)" d="M 187.765836 282.799219 
L 191.688847 282.799219 
L 191.688847 228.439219 
L 187.765836 228.439219 
z
"/>
   </g>
   <g id="patch_46">
    <path clip-path="url(#p9792e2bb7e)" d="M 191.688847 282.799219 
L 195.611858 282.799219 
L 195.611858 255.619219 
L 191.688847 255.619219 
z
"/>
   </g>
   <g id="patch_47">
    <path clip-path="url(#p9792e2bb7e)" d="M 195.611858 282.799219 
L 199.534869 282.799219 
L 199.534869 221.644219 
L 195.611858 221.644219 
z
"/>
   </g>
   <g id="patch_48">
    <path clip-path="url(#p9792e2bb7e)" d="M 199.534869 282.799219 
L 203.45788 282.799219 
L 203.45788 228.439219 
L 199.534869 228.439219 
z
"/>
   </g>
   <g id="patch_49">
    <path clip-path="url(#p9792e2bb7e)" d="M 203.45788 282.799219 
L 207.380891 282.799219 
L 207.380891 174.079219 
L 203.45788 174.079219 
z
"/>
   </g>
   <g id="patch_50">
    <path clip-path="url(#p9792e2bb7e)" d="M 207.380891 282.799219 
L 211.303903 282.799219 
L 211.303903 208.054219 
L 207.380891 208.054219 
z
"/>
   </g>
   <g id="patch_51">
    <path clip-path="url(#p9792e2bb7e)" d="M 211.303903 282.799219 
L 215.226914 282.799219 
L 215.226914 228.439219 
L 211.303903 228.439219 
z
"/>
   </g>
   <g id="patch_52">
    <path clip-path="url(#p9792e2bb7e)" d="M 215.226914 282.799219 
L 219.149925 282.799219 
L 219.149925 208.054219 
L 215.226914 208.054219 
z
"/>
   </g>
   <g id="patch_53">
    <path clip-path="url(#p9792e2bb7e)" d="M 219.149925 282.799219 
L 223.072936 282.799219 
L 223.072936 160.489219 
L 219.149925 160.489219 
z
"/>
   </g>
   <g id="patch_54">
    <path clip-path="url(#p9792e2bb7e)" d="M 223.072936 282.799219 
L 226.995947 282.799219 
L 226.995947 187.669219 
L 223.072936 187.669219 
z
"/>
   </g>
   <g id="patch_55">
    <path clip-path="url(#p9792e2bb7e)" d="M 226.995947 282.799219 
L 230.918958 282.799219 
L 230.918958 194.464219 
L 226.995947 194.464219 
z
"/>
   </g>
   <g id="patch_56">
    <path clip-path="url(#p9792e2bb7e)" d="M 230.918958 282.799219 
L 234.841969 282.799219 
L 234.841969 174.079219 
L 230.918958 174.079219 
z
"/>
   </g>
   <g id="patch_57">
    <path clip-path="url(#p9792e2bb7e)" d="M 234.841969 282.799219 
L 238.76498 282.799219 
L 238.76498 146.899219 
L 234.841969 146.899219 
z
"/>
   </g>
   <g id="patch_58">
    <path clip-path="url(#p9792e2bb7e)" d="M 238.76498 282.799219 
L 242.687991 282.799219 
L 242.687991 208.054219 
L 238.76498 208.054219 
z
"/>
   </g>
   <g id="patch_59">
    <path clip-path="url(#p9792e2bb7e)" d="M 242.687991 282.799219 
L 246.611002 282.799219 
L 246.611002 167.284219 
L 242.687991 167.284219 
z
"/>
   </g>
   <g id="patch_60">
    <path clip-path="url(#p9792e2bb7e)" d="M 246.611002 282.799219 
L 250.534013 282.799219 
L 250.534013 208.054219 
L 246.611002 208.054219 
z
"/>
   </g>
   <g id="patch_61">
    <path clip-path="url(#p9792e2bb7e)" d="M 250.534013 282.799219 
L 254.457024 282.799219 
L 254.457024 194.464219 
L 250.534013 194.464219 
z
"/>
   </g>
   <g id="patch_62">
    <path clip-path="url(#p9792e2bb7e)" d="M 254.457024 282.799219 
L 258.380035 282.799219 
L 258.380035 180.874219 
L 254.457024 180.874219 
z
"/>
   </g>
   <g id="patch_63">
    <path clip-path="url(#p9792e2bb7e)" d="M 258.380035 282.799219 
L 262.303046 282.799219 
L 262.303046 167.284219 
L 258.380035 167.284219 
z
"/>
   </g>
   <g id="patch_64">
    <path clip-path="url(#p9792e2bb7e)" d="M 262.303046 282.799219 
L 266.226057 282.799219 
L 266.226057 119.719219 
L 262.303046 119.719219 
z
"/>
   </g>
   <g id="patch_65">
    <path clip-path="url(#p9792e2bb7e)" d="M 266.226057 282.799219 
L 270.149068 282.799219 
L 270.149068 24.589219 
L 266.226057 24.589219 
z
"/>
   </g>
   <g id="patch_66">
    <path clip-path="url(#p9792e2bb7e)" d="M 270.149068 282.799219 
L 274.072079 282.799219 
L 274.072079 51.769219 
L 270.149068 51.769219 
z
"/>
   </g>
   <g id="patch_67">
    <path clip-path="url(#p9792e2bb7e)" d="M 274.072079 282.799219 
L 277.99509 282.799219 
L 277.99509 167.284219 
L 274.072079 167.284219 
z
"/>
   </g>
   <g id="patch_68">
    <path clip-path="url(#p9792e2bb7e)" d="M 277.99509 282.799219 
L 281.918102 282.799219 
L 281.918102 180.874219 
L 277.99509 180.874219 
z
"/>
   </g>
   <g id="patch_69">
    <path clip-path="url(#p9792e2bb7e)" d="M 281.918102 282.799219 
L 285.841113 282.799219 
L 285.841113 194.464219 
L 281.918102 194.464219 
z
"/>
   </g>
   <g id="patch_70">
    <path clip-path="url(#p9792e2bb7e)" d="M 285.841113 282.799219 
L 289.764124 282.799219 
L 289.764124 208.054219 
L 285.841113 208.054219 
z
"/>
   </g>
   <g id="patch_71">
    <path clip-path="url(#p9792e2bb7e)" d="M 289.764124 282.799219 
L 293.687135 282.799219 
L 293.687135 180.874219 
L 289.764124 180.874219 
z
"/>
   </g>
   <g id="patch_72">
    <path clip-path="url(#p9792e2bb7e)" d="M 293.687135 282.799219 
L 297.610146 282.799219 
L 297.610146 180.874219 
L 293.687135 180.874219 
z
"/>
   </g>
   <g id="patch_73">
    <path clip-path="url(#p9792e2bb7e)" d="M 297.610146 282.799219 
L 301.533157 282.799219 
L 301.533157 140.104219 
L 297.610146 140.104219 
z
"/>
   </g>
   <g id="patch_74">
    <path clip-path="url(#p9792e2bb7e)" d="M 301.533157 282.799219 
L 305.456168 282.799219 
L 305.456168 133.309219 
L 301.533157 133.309219 
z
"/>
   </g>
   <g id="patch_75">
    <path clip-path="url(#p9792e2bb7e)" d="M 305.456168 282.799219 
L 309.379179 282.799219 
L 309.379179 180.874219 
L 305.456168 180.874219 
z
"/>
   </g>
   <g id="patch_76">
    <path clip-path="url(#p9792e2bb7e)" d="M 309.379179 282.799219 
L 313.30219 282.799219 
L 313.30219 201.259219 
L 309.379179 201.259219 
z
"/>
   </g>
   <g id="patch_77">
    <path clip-path="url(#p9792e2bb7e)" d="M 313.30219 282.799219 
L 317.225201 282.799219 
L 317.225201 242.029219 
L 313.30219 242.029219 
z
"/>
   </g>
   <g id="patch_78">
    <path clip-path="url(#p9792e2bb7e)" d="M 317.225201 282.799219 
L 321.148212 282.799219 
L 321.148212 194.464219 
L 317.225201 194.464219 
z
"/>
   </g>
   <g id="patch_79">
    <path clip-path="url(#p9792e2bb7e)" d="M 321.148212 282.799219 
L 325.071223 282.799219 
L 325.071223 201.259219 
L 321.148212 201.259219 
z
"/>
   </g>
   <g id="patch_80">
    <path clip-path="url(#p9792e2bb7e)" d="M 325.071223 282.799219 
L 328.994234 282.799219 
L 328.994234 187.669219 
L 325.071223 187.669219 
z
"/>
   </g>
   <g id="patch_81">
    <path clip-path="url(#p9792e2bb7e)" d="M 328.994234 282.799219 
L 332.917245 282.799219 
L 332.917245 208.054219 
L 328.994234 208.054219 
z
"/>
   </g>
   <g id="patch_82">
    <path clip-path="url(#p9792e2bb7e)" d="M 332.917245 282.799219 
L 336.840256 282.799219 
L 336.840256 214.849219 
L 332.917245 214.849219 
z
"/>
   </g>
   <g id="patch_83">
    <path clip-path="url(#p9792e2bb7e)" d="M 336.840256 282.799219 
L 340.763267 282.799219 
L 340.763267 221.644219 
L 336.840256 221.644219 
z
"/>
   </g>
   <g id="patch_84">
    <path clip-path="url(#p9792e2bb7e)" d="M 340.763267 282.799219 
L 344.686278 282.799219 
L 344.686278 235.234219 
L 340.763267 235.234219 
z
"/>
   </g>
   <g id="patch_85">
    <path clip-path="url(#p9792e2bb7e)" d="M 344.686278 282.799219 
L 348.609289 282.799219 
L 348.609289 208.054219 
L 344.686278 208.054219 
z
"/>
   </g>
   <g id="patch_86">
    <path clip-path="url(#p9792e2bb7e)" d="M 348.609289 282.799219 
L 352.532301 282.799219 
L 352.532301 214.849219 
L 348.609289 214.849219 
z
"/>
   </g>
   <g id="patch_87">
    <path clip-path="url(#p9792e2bb7e)" d="M 352.532301 282.799219 
L 356.455312 282.799219 
L 356.455312 235.234219 
L 352.532301 235.234219 
z
"/>
   </g>
   <g id="patch_88">
    <path clip-path="url(#p9792e2bb7e)" d="M 356.455312 282.799219 
L 360.378323 282.799219 
L 360.378323 201.259219 
L 356.455312 201.259219 
z
"/>
   </g>
   <g id="patch_89">
    <path clip-path="url(#p9792e2bb7e)" d="M 360.378323 282.799219 
L 364.301334 282.799219 
L 364.301334 194.464219 
L 360.378323 194.464219 
z
"/>
   </g>
   <g id="patch_90">
    <path clip-path="url(#p9792e2bb7e)" d="M 364.301334 282.799219 
L 368.224345 282.799219 
L 368.224345 242.029219 
L 364.301334 242.029219 
z
"/>
   </g>
   <g id="patch_91">
    <path clip-path="url(#p9792e2bb7e)" d="M 368.224345 282.799219 
L 372.147356 282.799219 
L 372.147356 235.234219 
L 368.224345 235.234219 
z
"/>
   </g>
   <g id="patch_92">
    <path clip-path="url(#p9792e2bb7e)" d="M 372.147356 282.799219 
L 376.070367 282.799219 
L 376.070367 262.414219 
L 372.147356 262.414219 
z
"/>
   </g>
   <g id="patch_93">
    <path clip-path="url(#p9792e2bb7e)" d="M 376.070367 282.799219 
L 379.993378 282.799219 
L 379.993378 242.029219 
L 376.070367 242.029219 
z
"/>
   </g>
   <g id="patch_94">
    <path clip-path="url(#p9792e2bb7e)" d="M 379.993378 282.799219 
L 383.916389 282.799219 
L 383.916389 248.824219 
L 379.993378 248.824219 
z
"/>
   </g>
   <g id="patch_95">
    <path clip-path="url(#p9792e2bb7e)" d="M 383.916389 282.799219 
L 387.8394 282.799219 
L 387.8394 255.619219 
L 383.916389 255.619219 
z
"/>
   </g>
   <g id="patch_96">
    <path clip-path="url(#p9792e2bb7e)" d="M 387.8394 282.799219 
L 391.762411 282.799219 
L 391.762411 235.234219 
L 387.8394 235.234219 
z
"/>
   </g>
   <g id="patch_97">
    <path clip-path="url(#p9792e2bb7e)" d="M 391.762411 282.799219 
L 395.685422 282.799219 
L 395.685422 221.644219 
L 391.762411 221.644219 
z
"/>
   </g>
   <g id="patch_98">
    <path clip-path="url(#p9792e2bb7e)" d="M 395.685422 282.799219 
L 399.608433 282.799219 
L 399.608433 242.029219 
L 395.685422 242.029219 
z
"/>
   </g>
   <g id="patch_99">
    <path clip-path="url(#p9792e2bb7e)" d="M 399.608433 282.799219 
L 403.531444 282.799219 
L 403.531444 208.054219 
L 399.608433 208.054219 
z
"/>
   </g>
   <g id="patch_100">
    <path clip-path="url(#p9792e2bb7e)" d="M 403.531444 282.799219 
L 407.454455 282.799219 
L 407.454455 228.439219 
L 403.531444 228.439219 
z
"/>
   </g>
   <g id="patch_101">
    <path clip-path="url(#p9792e2bb7e)" d="M 407.454455 282.799219 
L 411.377466 282.799219 
L 411.377466 262.414219 
L 407.454455 262.414219 
z
"/>
   </g>
   <g id="patch_102">
    <path clip-path="url(#p9792e2bb7e)" d="M 411.377466 282.799219 
L 415.300477 282.799219 
L 415.300477 235.234219 
L 411.377466 235.234219 
z
"/>
   </g>
   <g id="patch_103">
    <path clip-path="url(#p9792e2bb7e)" d="M 415.300477 282.799219 
L 419.223488 282.799219 
L 419.223488 262.414219 
L 415.300477 262.414219 
z
"/>
   </g>
   <g id="patch_104">
    <path clip-path="url(#p9792e2bb7e)" d="M 419.223488 282.799219 
L 423.146499 282.799219 
L 423.146499 262.414219 
L 419.223488 262.414219 
z
"/>
   </g>
   <g id="patch_105">
    <path clip-path="url(#p9792e2bb7e)" d="M 423.146499 282.799219 
L 427.069511 282.799219 
L 427.069511 228.439219 
L 423.146499 228.439219 
z
"/>
   </g>
   <g id="patch_106">
    <path clip-path="url(#p9792e2bb7e)" d="M 427.069511 282.799219 
L 430.992522 282.799219 
L 430.992522 228.439219 
L 427.069511 228.439219 
z
"/>
   </g>
   <g id="patch_107">
    <path clip-path="url(#p9792e2bb7e)" d="M 430.992522 282.799219 
L 434.915533 282.799219 
L 434.915533 248.824219 
L 430.992522 248.824219 
z
"/>
   </g>
   <g id="patch_108">
    <path clip-path="url(#p9792e2bb7e)" d="M 434.915533 282.799219 
L 438.838544 282.799219 
L 438.838544 248.824219 
L 434.915533 248.824219 
z
"/>
   </g>
   <g id="patch_109">
    <path clip-path="url(#p9792e2bb7e)" d="M 438.838544 282.799219 
L 442.761555 282.799219 
L 442.761555 242.029219 
L 438.838544 242.029219 
z
"/>
   </g>
   <g id="patch_110">
    <path clip-path="url(#p9792e2bb7e)" d="M 442.761555 282.799219 
L 446.684566 282.799219 
L 446.684566 235.234219 
L 442.761555 235.234219 
z
"/>
   </g>
   <g id="patch_111">
    <path clip-path="url(#p9792e2bb7e)" d="M 446.684566 282.799219 
L 450.607577 282.799219 
L 450.607577 248.824219 
L 446.684566 248.824219 
z
"/>
   </g>
   <g id="patch_112">
    <path clip-path="url(#p9792e2bb7e)" d="M 450.607577 282.799219 
L 454.530588 282.799219 
L 454.530588 235.234219 
L 450.607577 235.234219 
z
"/>
   </g>
   <g id="patch_113">
    <path clip-path="url(#p9792e2bb7e)" d="M 454.530588 282.799219 
L 458.453599 282.799219 
L 458.453599 201.259219 
L 454.530588 201.259219 
z
"/>
   </g>
   <g id="patch_114">
    <path clip-path="url(#p9792e2bb7e)" d="M 458.453599 282.799219 
L 462.37661 282.799219 
L 462.37661 248.824219 
L 458.453599 248.824219 
z
"/>
   </g>
   <g id="patch_115">
    <path clip-path="url(#p9792e2bb7e)" d="M 462.37661 282.799219 
L 466.299621 282.799219 
L 466.299621 262.414219 
L 462.37661 262.414219 
z
"/>
   </g>
   <g id="patch_116">
    <path clip-path="url(#p9792e2bb7e)" d="M 466.299621 282.799219 
L 470.222632 282.799219 
L 470.222632 248.824219 
L 466.299621 248.824219 
z
"/>
   </g>
   <g id="patch_117">
    <path clip-path="url(#p9792e2bb7e)" d="M 470.222632 282.799219 
L 474.145643 282.799219 
L 474.145643 269.209219 
L 470.222632 269.209219 
z
"/>
   </g>
   <g id="patch_118">
    <path clip-path="url(#p9792e2bb7e)" d="M 474.145643 282.799219 
L 478.068654 282.799219 
L 478.068654 255.619219 
L 474.145643 255.619219 
z
"/>
   </g>
   <g id="patch_119">
    <path clip-path="url(#p9792e2bb7e)" d="M 478.068654 282.799219 
L 481.991665 282.799219 
L 481.991665 221.644219 
L 478.068654 221.644219 
z
"/>
   </g>
   <g id="patch_120">
    <path clip-path="url(#p9792e2bb7e)" d="M 481.991665 282.799219 
L 485.914676 282.799219 
L 485.914676 221.644219 
L 481.991665 221.644219 
z
"/>
   </g>
   <g id="patch_121">
    <path clip-path="url(#p9792e2bb7e)" d="M 485.914676 282.799219 
L 489.837687 282.799219 
L 489.837687 187.669219 
L 485.914676 187.669219 
z
"/>
   </g>
   <g id="patch_122">
    <path clip-path="url(#p9792e2bb7e)" d="M 489.837687 282.799219 
L 493.760698 282.799219 
L 493.760698 201.259219 
L 489.837687 201.259219 
z
"/>
   </g>
   <g id="patch_123">
    <path clip-path="url(#p9792e2bb7e)" d="M 493.760698 282.799219 
L 497.68371 282.799219 
L 497.68371 228.439219 
L 493.760698 228.439219 
z
"/>
   </g>
   <g id="patch_124">
    <path clip-path="url(#p9792e2bb7e)" d="M 497.68371 282.799219 
L 501.606721 282.799219 
L 501.606721 235.234219 
L 497.68371 235.234219 
z
"/>
   </g>
   <g id="patch_125">
    <path clip-path="url(#p9792e2bb7e)" d="M 501.606721 282.799219 
L 505.529732 282.799219 
L 505.529732 235.234219 
L 501.606721 235.234219 
z
"/>
   </g>
   <g id="patch_126">
    <path clip-path="url(#p9792e2bb7e)" d="M 505.529732 282.799219 
L 509.452743 282.799219 
L 509.452743 228.439219 
L 505.529732 228.439219 
z
"/>
   </g>
   <g id="patch_127">
    <path clip-path="url(#p9792e2bb7e)" d="M 509.452743 282.799219 
L 513.375754 282.799219 
L 513.375754 242.029219 
L 509.452743 242.029219 
z
"/>
   </g>
   <g id="patch_128">
    <path clip-path="url(#p9792e2bb7e)" d="M 513.375754 282.799219 
L 517.298765 282.799219 
L 517.298765 235.234219 
L 513.375754 235.234219 
z
"/>
   </g>
   <g id="patch_129">
    <path clip-path="url(#p9792e2bb7e)" d="M 517.298765 282.799219 
L 521.221776 282.799219 
L 521.221776 187.669219 
L 517.298765 187.669219 
z
"/>
   </g>
   <g id="patch_130">
    <path clip-path="url(#p9792e2bb7e)" d="M 521.221776 282.799219 
L 525.144787 282.799219 
L 525.144787 201.259219 
L 521.221776 201.259219 
z
"/>
   </g>
   <g id="patch_131">
    <path clip-path="url(#p9792e2bb7e)" d="M 525.144787 282.799219 
L 529.067798 282.799219 
L 529.067798 214.849219 
L 525.144787 214.849219 
z
"/>
   </g>
   <g id="patch_132">
    <path clip-path="url(#p9792e2bb7e)" d="M 529.067798 282.799219 
L 532.990809 282.799219 
L 532.990809 208.054219 
L 529.067798 208.054219 
z
"/>
   </g>
   <g id="patch_133">
    <path clip-path="url(#p9792e2bb7e)" d="M 532.990809 282.799219 
L 536.91382 282.799219 
L 536.91382 235.234219 
L 532.990809 235.234219 
z
"/>
   </g>
   <g id="patch_134">
    <path clip-path="url(#p9792e2bb7e)" d="M 536.91382 282.799219 
L 540.836831 282.799219 
L 540.836831 248.824219 
L 536.91382 248.824219 
z
"/>
   </g>
   <g id="patch_135">
    <path clip-path="url(#p9792e2bb7e)" d="M 540.836831 282.799219 
L 544.759842 282.799219 
L 544.759842 228.439219 
L 540.836831 228.439219 
z
"/>
   </g>
   <g id="patch_136">
    <path clip-path="url(#p9792e2bb7e)" d="M 544.759842 282.799219 
L 548.682853 282.799219 
L 548.682853 242.029219 
L 544.759842 242.029219 
z
"/>
   </g>
   <g id="patch_137">
    <path clip-path="url(#p9792e2bb7e)" d="M 548.682853 282.799219 
L 552.605864 282.799219 
L 552.605864 242.029219 
L 548.682853 242.029219 
z
"/>
   </g>
   <g id="patch_138">
    <path clip-path="url(#p9792e2bb7e)" d="M 552.605864 282.799219 
L 556.528875 282.799219 
L 556.528875 214.849219 
L 552.605864 214.849219 
z
"/>
   </g>
   <g id="patch_139">
    <path clip-path="url(#p9792e2bb7e)" d="M 556.528875 282.799219 
L 560.451886 282.799219 
L 560.451886 228.439219 
L 556.528875 228.439219 
z
"/>
   </g>
   <g id="patch_140">
    <path clip-path="url(#p9792e2bb7e)" d="M 560.451886 282.799219 
L 564.374897 282.799219 
L 564.374897 228.439219 
L 560.451886 228.439219 
z
"/>
   </g>
   <g id="patch_141">
    <path clip-path="url(#p9792e2bb7e)" d="M 564.374897 282.799219 
L 568.297909 282.799219 
L 568.297909 228.439219 
L 564.374897 228.439219 
z
"/>
   </g>
   <g id="patch_142">
    <path clip-path="url(#p9792e2bb7e)" d="M 568.297909 282.799219 
L 572.22092 282.799219 
L 572.22092 242.029219 
L 568.297909 242.029219 
z
"/>
   </g>
   <g id="patch_143">
    <path clip-path="url(#p9792e2bb7e)" d="M 572.22092 282.799219 
L 576.143931 282.799219 
L 576.143931 242.029219 
L 572.22092 242.029219 
z
"/>
   </g>
   <g id="patch_144">
    <path clip-path="url(#p9792e2bb7e)" d="M 576.143931 282.799219 
L 580.066942 282.799219 
L 580.066942 242.029219 
L 576.143931 242.029219 
z
"/>
   </g>
   <g id="patch_145">
    <path clip-path="url(#p9792e2bb7e)" d="M 580.066942 282.799219 
L 583.989953 282.799219 
L 583.989953 228.439219 
L 580.066942 228.439219 
z
"/>
   </g>
   <g id="patch_146">
    <path clip-path="url(#p9792e2bb7e)" d="M 583.989953 282.799219 
L 587.912964 282.799219 
L 587.912964 235.234219 
L 583.989953 235.234219 
z
"/>
   </g>
   <g id="patch_147">
    <path clip-path="url(#p9792e2bb7e)" d="M 587.912964 282.799219 
L 591.835975 282.799219 
L 591.835975 255.619219 
L 587.912964 255.619219 
z
"/>
   </g>
   <g id="patch_148">
    <path clip-path="url(#p9792e2bb7e)" d="M 591.835975 282.799219 
L 595.758986 282.799219 
L 595.758986 255.619219 
L 591.835975 255.619219 
z
"/>
   </g>
   <g id="patch_149">
    <path clip-path="url(#p9792e2bb7e)" d="M 595.758986 282.799219 
L 599.681997 282.799219 
L 599.681997 228.439219 
L 595.758986 228.439219 
z
"/>
   </g>
   <g id="patch_150">
    <path clip-path="url(#p9792e2bb7e)" d="M 599.681997 282.799219 
L 603.605008 282.799219 
L 603.605008 221.644219 
L 599.681997 221.644219 
z
"/>
   </g>
   <g id="patch_151">
    <path clip-path="url(#p9792e2bb7e)" d="M 603.605008 282.799219 
L 607.528019 282.799219 
L 607.528019 242.029219 
L 603.605008 242.029219 
z
"/>
   </g>
   <g id="patch_152">
    <path clip-path="url(#p9792e2bb7e)" d="M 607.528019 282.799219 
L 611.45103 282.799219 
L 611.45103 262.414219 
L 607.528019 262.414219 
z
"/>
   </g>
   <g id="patch_153">
    <path clip-path="url(#p9792e2bb7e)" d="M 611.45103 282.799219 
L 615.374041 282.799219 
L 615.374041 255.619219 
L 611.45103 255.619219 
z
"/>
   </g>
   <g id="patch_154">
    <path clip-path="url(#p9792e2bb7e)" d="M 615.374041 282.799219 
L 619.297052 282.799219 
L 619.297052 208.054219 
L 615.374041 208.054219 
z
"/>
   </g>
   <g id="patch_155">
    <path clip-path="url(#p9792e2bb7e)" d="M 619.297052 282.799219 
L 623.220063 282.799219 
L 623.220063 194.464219 
L 619.297052 194.464219 
z
"/>
   </g>
   <g id="patch_156">
    <path clip-path="url(#p9792e2bb7e)" d="M 623.220063 282.799219 
L 627.143074 282.799219 
L 627.143074 248.824219 
L 623.220063 248.824219 
z
"/>
   </g>
   <g id="patch_157">
    <path clip-path="url(#p9792e2bb7e)" d="M 627.143074 282.799219 
L 631.066085 282.799219 
L 631.066085 235.234219 
L 627.143074 235.234219 
z
"/>
   </g>
   <g id="patch_158">
    <path clip-path="url(#p9792e2bb7e)" d="M 631.066085 282.799219 
L 634.989096 282.799219 
L 634.989096 228.439219 
L 631.066085 228.439219 
z
"/>
   </g>
   <g id="patch_159">
    <path clip-path="url(#p9792e2bb7e)" d="M 634.989096 282.799219 
L 638.912108 282.799219 
L 638.912108 255.619219 
L 634.989096 255.619219 
z
"/>
   </g>
   <g id="patch_160">
    <path clip-path="url(#p9792e2bb7e)" d="M 638.912108 282.799219 
L 642.835119 282.799219 
L 642.835119 248.824219 
L 638.912108 248.824219 
z
"/>
   </g>
   <g id="patch_161">
    <path clip-path="url(#p9792e2bb7e)" d="M 642.835119 282.799219 
L 646.75813 282.799219 
L 646.75813 248.824219 
L 642.835119 248.824219 
z
"/>
   </g>
   <g id="patch_162">
    <path clip-path="url(#p9792e2bb7e)" d="M 646.75813 282.799219 
L 650.681141 282.799219 
L 650.681141 262.414219 
L 646.75813 262.414219 
z
"/>
   </g>
   <g id="patch_163">
    <path clip-path="url(#p9792e2bb7e)" d="M 650.681141 282.799219 
L 654.604152 282.799219 
L 654.604152 228.439219 
L 650.681141 228.439219 
z
"/>
   </g>
   <g id="patch_164">
    <path clip-path="url(#p9792e2bb7e)" d="M 654.604152 282.799219 
L 658.527163 282.799219 
L 658.527163 262.414219 
L 654.604152 262.414219 
z
"/>
   </g>
   <g id="patch_165">
    <path clip-path="url(#p9792e2bb7e)" d="M 658.527163 282.799219 
L 662.450174 282.799219 
L 662.450174 221.644219 
L 658.527163 221.644219 
z
"/>
   </g>
   <g id="patch_166">
    <path clip-path="url(#p9792e2bb7e)" d="M 662.450174 282.799219 
L 666.373185 282.799219 
L 666.373185 248.824219 
L 662.450174 248.824219 
z
"/>
   </g>
   <g id="patch_167">
    <path clip-path="url(#p9792e2bb7e)" d="M 666.373185 282.799219 
L 670.296196 282.799219 
L 670.296196 262.414219 
L 666.373185 262.414219 
z
"/>
   </g>
   <g id="patch_168">
    <path clip-path="url(#p9792e2bb7e)" d="M 670.296196 282.799219 
L 674.219207 282.799219 
L 674.219207 242.029219 
L 670.296196 242.029219 
z
"/>
   </g>
   <g id="patch_169">
    <path clip-path="url(#p9792e2bb7e)" d="M 674.219207 282.799219 
L 678.142218 282.799219 
L 678.142218 214.849219 
L 674.219207 214.849219 
z
"/>
   </g>
   <g id="patch_170">
    <path clip-path="url(#p9792e2bb7e)" d="M 678.142218 282.799219 
L 682.065229 282.799219 
L 682.065229 194.464219 
L 678.142218 194.464219 
z
"/>
   </g>
   <g id="patch_171">
    <path clip-path="url(#p9792e2bb7e)" d="M 682.065229 282.799219 
L 685.98824 282.799219 
L 685.98824 214.849219 
L 682.065229 214.849219 
z
"/>
   </g>
   <g id="patch_172">
    <path clip-path="url(#p9792e2bb7e)" d="M 685.98824 282.799219 
L 689.911251 282.799219 
L 689.911251 242.029219 
L 685.98824 242.029219 
z
"/>
   </g>
   <g id="patch_173">
    <path clip-path="url(#p9792e2bb7e)" d="M 689.911251 282.799219 
L 693.834262 282.799219 
L 693.834262 248.824219 
L 689.911251 248.824219 
z
"/>
   </g>
   <g id="patch_174">
    <path clip-path="url(#p9792e2bb7e)" d="M 693.834262 282.799219 
L 697.757273 282.799219 
L 697.757273 255.619219 
L 693.834262 255.619219 
z
"/>
   </g>
   <g id="patch_175">
    <path clip-path="url(#p9792e2bb7e)" d="M 697.757273 282.799219 
L 701.680284 282.799219 
L 701.680284 262.414219 
L 697.757273 262.414219 
z
"/>
   </g>
   <g id="patch_176">
    <path clip-path="url(#p9792e2bb7e)" d="M 701.680284 282.799219 
L 705.603295 282.799219 
L 705.603295 235.234219 
L 701.680284 235.234219 
z
"/>
   </g>
   <g id="patch_177">
    <path clip-path="url(#p9792e2bb7e)" d="M 705.603295 282.799219 
L 709.526307 282.799219 
L 709.526307 235.234219 
L 705.603295 235.234219 
z
"/>
   </g>
   <g id="patch_178">
    <path clip-path="url(#p9792e2bb7e)" d="M 709.526307 282.799219 
L 713.449318 282.799219 
L 713.449318 248.824219 
L 709.526307 248.824219 
z
"/>
   </g>
   <g id="patch_179">
    <path clip-path="url(#p9792e2bb7e)" d="M 713.449318 282.799219 
L 717.372329 282.799219 
L 717.372329 235.234219 
L 713.449318 235.234219 
z
"/>
   </g>
   <g id="patch_180">
    <path clip-path="url(#p9792e2bb7e)" d="M 717.372329 282.799219 
L 721.29534 282.799219 
L 721.29534 248.824219 
L 717.372329 248.824219 
z
"/>
   </g>
   <g id="patch_181">
    <path clip-path="url(#p9792e2bb7e)" d="M 721.29534 282.799219 
L 725.218351 282.799219 
L 725.218351 221.644219 
L 721.29534 221.644219 
z
"/>
   </g>
   <g id="patch_182">
    <path clip-path="url(#p9792e2bb7e)" d="M 725.218351 282.799219 
L 729.141362 282.799219 
L 729.141362 187.669219 
L 725.218351 187.669219 
z
"/>
   </g>
   <g id="patch_183">
    <path clip-path="url(#p9792e2bb7e)" d="M 729.141362 282.799219 
L 733.064373 282.799219 
L 733.064373 242.029219 
L 729.141362 242.029219 
z
"/>
   </g>
   <g id="patch_184">
    <path clip-path="url(#p9792e2bb7e)" d="M 733.064373 282.799219 
L 736.987384 282.799219 
L 736.987384 248.824219 
L 733.064373 248.824219 
z
"/>
   </g>
   <g id="patch_185">
    <path clip-path="url(#p9792e2bb7e)" d="M 736.987384 282.799219 
L 740.910395 282.799219 
L 740.910395 235.234219 
L 736.987384 235.234219 
z
"/>
   </g>
   <g id="patch_186">
    <path clip-path="url(#p9792e2bb7e)" d="M 740.910395 282.799219 
L 744.833406 282.799219 
L 744.833406 235.234219 
L 740.910395 235.234219 
z
"/>
   </g>
   <g id="patch_187">
    <path clip-path="url(#p9792e2bb7e)" d="M 744.833406 282.799219 
L 748.756417 282.799219 
L 748.756417 276.004219 
L 744.833406 276.004219 
z
"/>
   </g>
   <g id="patch_188">
    <path clip-path="url(#p9792e2bb7e)" d="M 748.756417 282.799219 
L 752.679428 282.799219 
L 752.679428 255.619219 
L 748.756417 255.619219 
z
"/>
   </g>
   <g id="patch_189">
    <path clip-path="url(#p9792e2bb7e)" d="M 752.679428 282.799219 
L 756.602439 282.799219 
L 756.602439 248.824219 
L 752.679428 248.824219 
z
"/>
   </g>
   <g id="patch_190">
    <path clip-path="url(#p9792e2bb7e)" d="M 756.602439 282.799219 
L 760.52545 282.799219 
L 760.52545 269.209219 
L 756.602439 269.209219 
z
"/>
   </g>
   <g id="patch_191">
    <path clip-path="url(#p9792e2bb7e)" d="M 760.52545 282.799219 
L 764.448461 282.799219 
L 764.448461 255.619219 
L 760.52545 255.619219 
z
"/>
   </g>
   <g id="patch_192">
    <path clip-path="url(#p9792e2bb7e)" d="M 764.448461 282.799219 
L 768.371472 282.799219 
L 768.371472 262.414219 
L 764.448461 262.414219 
z
"/>
   </g>
   <g id="patch_193">
    <path clip-path="url(#p9792e2bb7e)" d="M 768.371472 282.799219 
L 772.294483 282.799219 
L 772.294483 248.824219 
L 768.371472 248.824219 
z
"/>
   </g>
   <g id="patch_194">
    <path clip-path="url(#p9792e2bb7e)" d="M 772.294483 282.799219 
L 776.217494 282.799219 
L 776.217494 235.234219 
L 772.294483 235.234219 
z
"/>
   </g>
   <g id="patch_195">
    <path clip-path="url(#p9792e2bb7e)" d="M 776.217494 282.799219 
L 780.140506 282.799219 
L 780.140506 242.029219 
L 776.217494 242.029219 
z
"/>
   </g>
   <g id="patch_196">
    <path clip-path="url(#p9792e2bb7e)" d="M 780.140506 282.799219 
L 784.063517 282.799219 
L 784.063517 242.029219 
L 780.140506 242.029219 
z
"/>
   </g>
   <g id="patch_197">
    <path clip-path="url(#p9792e2bb7e)" d="M 784.063517 282.799219 
L 787.986528 282.799219 
L 787.986528 214.849219 
L 784.063517 214.849219 
z
"/>
   </g>
   <g id="patch_198">
    <path clip-path="url(#p9792e2bb7e)" d="M 787.986528 282.799219 
L 791.909539 282.799219 
L 791.909539 255.619219 
L 787.986528 255.619219 
z
"/>
   </g>
   <g id="patch_199">
    <path clip-path="url(#p9792e2bb7e)" d="M 791.909539 282.799219 
L 795.83255 282.799219 
L 795.83255 255.619219 
L 791.909539 255.619219 
z
"/>
   </g>
   <g id="patch_200">
    <path clip-path="url(#p9792e2bb7e)" d="M 795.83255 282.799219 
L 799.755561 282.799219 
L 799.755561 269.209219 
L 795.83255 269.209219 
z
"/>
   </g>
   <g id="patch_201">
    <path clip-path="url(#p9792e2bb7e)" d="M 799.755561 282.799219 
L 803.678572 282.799219 
L 803.678572 269.209219 
L 799.755561 269.209219 
z
"/>
   </g>
   <g id="patch_202">
    <path clip-path="url(#p9792e2bb7e)" d="M 803.678572 282.799219 
L 807.601583 282.799219 
L 807.601583 262.414219 
L 803.678572 262.414219 
z
"/>
   </g>
   <g id="matplotlib.axis_1">
    <g id="xtick_1"/>
    <g id="xtick_2"/>
    <g id="xtick_3"/>
    <g id="xtick_4"/>
    <g id="xtick_5"/>
    <g id="xtick_6"/>
    <g id="xtick_7"/>
    <g id="xtick_8"/>
   </g>
   <g id="matplotlib.axis_2">
    <g id="ytick_1">
     <g id="line2d_1">
      <defs>
       <path d="M 0 0 
L -3.5 0 
" id="macacb49bf3" style="stroke:#000000;stroke-width:0.8;"/>
      </defs>
      <g>
       <use style="stroke:#000000;stroke-width:0.8;" x="26.925" xlink:href="#macacb49bf3" y="282.799219"/>
      </g>
     </g>
     <g id="text_1">
      <!-- 0 -->
      <defs>
       <path d="M 31.78125 66.40625 
Q 24.171875 66.40625 20.328125 58.90625 
Q 16.5 51.421875 16.5 36.375 
Q 16.5 21.390625 20.328125 13.890625 
Q 24.171875 6.390625 31.78125 6.390625 
Q 39.453125 6.390625 43.28125 13.890625 
Q 47.125 21.390625 47.125 36.375 
Q 47.125 51.421875 43.28125 58.90625 
Q 39.453125 66.40625 31.78125 66.40625 
z
M 31.78125 74.21875 
Q 44.046875 74.21875 50.515625 64.515625 
Q 56.984375 54.828125 56.984375 36.375 
Q 56.984375 17.96875 50.515625 8.265625 
Q 44.046875 -1.421875 31.78125 -1.421875 
Q 19.53125 -1.421875 13.0625 8.265625 
Q 6.59375 17.96875 6.59375 36.375 
Q 6.59375 54.828125 13.0625 64.515625 
Q 19.53125 74.21875 31.78125 74.21875 
z
" id="DejaVuSans-48"/>
      </defs>
      <g transform="translate(13.5625 286.598437)scale(0.1 -0.1)">
       <use xlink:href="#DejaVuSans-48"/>
      </g>
     </g>
    </g>
    <g id="ytick_2">
     <g id="line2d_2">
      <g>
       <use style="stroke:#000000;stroke-width:0.8;" x="26.925" xlink:href="#macacb49bf3" y="248.824219"/>
      </g>
     </g>
     <g id="text_2">
      <!-- 5 -->
      <defs>
       <path d="M 10.796875 72.90625 
L 49.515625 72.90625 
L 49.515625 64.59375 
L 19.828125 64.59375 
L 19.828125 46.734375 
Q 21.96875 47.46875 24.109375 47.828125 
Q 26.265625 48.1875 28.421875 48.1875 
Q 40.625 48.1875 47.75 41.5 
Q 54.890625 34.8125 54.890625 23.390625 
Q 54.890625 11.625 47.5625 5.09375 
Q 40.234375 -1.421875 26.90625 -1.421875 
Q 22.3125 -1.421875 17.546875 -0.640625 
Q 12.796875 0.140625 7.71875 1.703125 
L 7.71875 11.625 
Q 12.109375 9.234375 16.796875 8.0625 
Q 21.484375 6.890625 26.703125 6.890625 
Q 35.15625 6.890625 40.078125 11.328125 
Q 45.015625 15.765625 45.015625 23.390625 
Q 45.015625 31 40.078125 35.4375 
Q 35.15625 39.890625 26.703125 39.890625 
Q 22.75 39.890625 18.8125 39.015625 
Q 14.890625 38.140625 10.796875 36.28125 
z
" id="DejaVuSans-53"/>
      </defs>
      <g transform="translate(13.5625 252.623437)scale(0.1 -0.1)">
       <use xlink:href="#DejaVuSans-53"/>
      </g>
     </g>
    </g>
    <g id="ytick_3">
     <g id="line2d_3">
      <g>
       <use style="stroke:#000000;stroke-width:0.8;" x="26.925" xlink:href="#macacb49bf3" y="214.849219"/>
      </g>
     </g>
     <g id="text_3">
      <!-- 10 -->
      <defs>
       <path d="M 12.40625 8.296875 
L 28.515625 8.296875 
L 28.515625 63.921875 
L 10.984375 60.40625 
L 10.984375 69.390625 
L 28.421875 72.90625 
L 38.28125 72.90625 
L 38.28125 8.296875 
L 54.390625 8.296875 
L 54.390625 0 
L 12.40625 0 
z
" id="DejaVuSans-49"/>
      </defs>
      <g transform="translate(7.2 218.648437)scale(0.1 -0.1)">
       <use xlink:href="#DejaVuSans-49"/>
       <use x="63.623047" xlink:href="#DejaVuSans-48"/>
      </g>
     </g>
    </g>
    <g id="ytick_4">
     <g id="line2d_4">
      <g>
       <use style="stroke:#000000;stroke-width:0.8;" x="26.925" xlink:href="#macacb49bf3" y="180.874219"/>
      </g>
     </g>
     <g id="text_4">
      <!-- 15 -->
      <g transform="translate(7.2 184.673437)scale(0.1 -0.1)">
       <use xlink:href="#DejaVuSans-49"/>
       <use x="63.623047" xlink:href="#DejaVuSans-53"/>
      </g>
     </g>
    </g>
    <g id="ytick_5">
     <g id="line2d_5">
      <g>
       <use style="stroke:#000000;stroke-width:0.8;" x="26.925" xlink:href="#macacb49bf3" y="146.899219"/>
      </g>
     </g>
     <g id="text_5">
      <!-- 20 -->
      <defs>
       <path d="M 19.1875 8.296875 
L 53.609375 8.296875 
L 53.609375 0 
L 7.328125 0 
L 7.328125 8.296875 
Q 12.9375 14.109375 22.625 23.890625 
Q 32.328125 33.6875 34.8125 36.53125 
Q 39.546875 41.84375 41.421875 45.53125 
Q 43.3125 49.21875 43.3125 52.78125 
Q 43.3125 58.59375 39.234375 62.25 
Q 35.15625 65.921875 28.609375 65.921875 
Q 23.96875 65.921875 18.8125 64.3125 
Q 13.671875 62.703125 7.8125 59.421875 
L 7.8125 69.390625 
Q 13.765625 71.78125 18.9375 73 
Q 24.125 74.21875 28.421875 74.21875 
Q 39.75 74.21875 46.484375 68.546875 
Q 53.21875 62.890625 53.21875 53.421875 
Q 53.21875 48.921875 51.53125 44.890625 
Q 49.859375 40.875 45.40625 35.40625 
Q 44.1875 33.984375 37.640625 27.21875 
Q 31.109375 20.453125 19.1875 8.296875 
z
" id="DejaVuSans-50"/>
      </defs>
      <g transform="translate(7.2 150.698437)scale(0.1 -0.1)">
       <use xlink:href="#DejaVuSans-50"/>
       <use x="63.623047" xlink:href="#DejaVuSans-48"/>
      </g>
     </g>
    </g>
    <g id="ytick_6">
     <g id="line2d_6">
      <g>
       <use style="stroke:#000000;stroke-width:0.8;" x="26.925" xlink:href="#macacb49bf3" y="112.924219"/>
      </g>
     </g>
     <g id="text_6">
      <!-- 25 -->
      <g transform="translate(7.2 116.723437)scale(0.1 -0.1)">
       <use xlink:href="#DejaVuSans-50"/>
       <use x="63.623047" xlink:href="#DejaVuSans-53"/>
      </g>
     </g>
    </g>
    <g id="ytick_7">
     <g id="line2d_7">
      <g>
       <use style="stroke:#000000;stroke-width:0.8;" x="26.925" xlink:href="#macacb49bf3" y="78.949219"/>
      </g>
     </g>
     <g id="text_7">
      <!-- 30 -->
      <defs>
       <path d="M 40.578125 39.3125 
Q 47.65625 37.796875 51.625 33 
Q 55.609375 28.21875 55.609375 21.1875 
Q 55.609375 10.40625 48.1875 4.484375 
Q 40.765625 -1.421875 27.09375 -1.421875 
Q 22.515625 -1.421875 17.65625 -0.515625 
Q 12.796875 0.390625 7.625 2.203125 
L 7.625 11.71875 
Q 11.71875 9.328125 16.59375 8.109375 
Q 21.484375 6.890625 26.8125 6.890625 
Q 36.078125 6.890625 40.9375 10.546875 
Q 45.796875 14.203125 45.796875 21.1875 
Q 45.796875 27.640625 41.28125 31.265625 
Q 36.765625 34.90625 28.71875 34.90625 
L 20.21875 34.90625 
L 20.21875 43.015625 
L 29.109375 43.015625 
Q 36.375 43.015625 40.234375 45.921875 
Q 44.09375 48.828125 44.09375 54.296875 
Q 44.09375 59.90625 40.109375 62.90625 
Q 36.140625 65.921875 28.71875 65.921875 
Q 24.65625 65.921875 20.015625 65.03125 
Q 15.375 64.15625 9.8125 62.3125 
L 9.8125 71.09375 
Q 15.4375 72.65625 20.34375 73.4375 
Q 25.25 74.21875 29.59375 74.21875 
Q 40.828125 74.21875 47.359375 69.109375 
Q 53.90625 64.015625 53.90625 55.328125 
Q 53.90625 49.265625 50.4375 45.09375 
Q 46.96875 40.921875 40.578125 39.3125 
z
" id="DejaVuSans-51"/>
      </defs>
      <g transform="translate(7.2 82.748437)scale(0.1 -0.1)">
       <use xlink:href="#DejaVuSans-51"/>
       <use x="63.623047" xlink:href="#DejaVuSans-48"/>
      </g>
     </g>
    </g>
    <g id="ytick_8">
     <g id="line2d_8">
      <g>
       <use style="stroke:#000000;stroke-width:0.8;" x="26.925" xlink:href="#macacb49bf3" y="44.974219"/>
      </g>
     </g>
     <g id="text_8">
      <!-- 35 -->
      <g transform="translate(7.2 48.773437)scale(0.1 -0.1)">
       <use xlink:href="#DejaVuSans-51"/>
       <use x="63.623047" xlink:href="#DejaVuSans-53"/>
      </g>
     </g>
    </g>
    <g id="ytick_9">
     <g id="line2d_9">
      <g>
       <use style="stroke:#000000;stroke-width:0.8;" x="26.925" xlink:href="#macacb49bf3" y="10.999219"/>
      </g>
     </g>
     <g id="text_9">
      <!-- 40 -->
      <defs>
       <path d="M 37.796875 64.3125 
L 12.890625 25.390625 
L 37.796875 25.390625 
z
M 35.203125 72.90625 
L 47.609375 72.90625 
L 47.609375 25.390625 
L 58.015625 25.390625 
L 58.015625 17.1875 
L 47.609375 17.1875 
L 47.609375 0 
L 37.796875 0 
L 37.796875 17.1875 
L 4.890625 17.1875 
L 4.890625 26.703125 
z
" id="DejaVuSans-52"/>
      </defs>
      <g transform="translate(7.2 14.798437)scale(0.1 -0.1)">
       <use xlink:href="#DejaVuSans-52"/>
       <use x="63.623047" xlink:href="#DejaVuSans-48"/>
      </g>
     </g>
    </g>
   </g>
   <g id="patch_203">
    <path d="M 26.925 282.799219 
L 26.925 10.999219 
" style="fill:none;stroke:#000000;stroke-linecap:square;stroke-linejoin:miter;stroke-width:0.8;"/>
   </g>
   <g id="patch_204">
    <path d="M 808.125 282.799219 
L 808.125 10.999219 
" style="fill:none;stroke:#000000;stroke-linecap:square;stroke-linejoin:miter;stroke-width:0.8;"/>
   </g>
   <g id="patch_205">
    <path d="M 26.925 282.799219 
L 808.125 282.799219 
" style="fill:none;stroke:#000000;stroke-linecap:square;stroke-linejoin:miter;stroke-width:0.8;"/>
   </g>
   <g id="patch_206">
    <path d="M 26.925 10.999219 
L 808.125 10.999219 
" style="fill:none;stroke:#000000;stroke-linecap:square;stroke-linejoin:miter;stroke-width:0.8;"/>
   </g>
  </g>
 </g>
 <defs>
  <clipPath id="p9792e2bb7e">
   <rect height="271.8" width="781.2" x="26.925" y="10.999219"/>
  </clipPath>
 </defs>
</svg>
