<?xml version="1.0" encoding="utf-8" standalone="no"?>
<!DOCTYPE svg PUBLIC "-//W3C//DTD SVG 1.1//EN"
  "http://www.w3.org/Graphics/SVG/1.1/DTD/svg11.dtd">
<!-- Created with matplotlib (https://matplotlib.org/) -->
<svg height="324.226719pt" version="1.1" viewBox="0 0 844.567187 324.226719" width="844.567187pt" xmlns="http://www.w3.org/2000/svg" xmlns:xlink="http://www.w3.org/1999/xlink">
 <defs>
  <style type="text/css">
*{stroke-linecap:butt;stroke-linejoin:round;}
  </style>
 </defs>
 <g id="figure_1">
  <g id="patch_1">
   <path d="M 0 324.226719 
L 844.567187 324.226719 
L 844.567187 0 
L 0 0 
z
" style="fill:none;"/>
  </g>
  <g id="axes_1">
   <g id="patch_2">
    <path d="M 45.034375 282.799219 
L 826.234375 282.799219 
L 826.234375 10.999219 
L 45.034375 10.999219 
z
" style="fill:none;"/>
   </g>
   <g id="patch_3">
    <path clip-path="url(#p27fa973db1)" d="M 41.108747 282.799219 
L 44.99767 282.799219 
L 44.99767 -118.105781 
L 41.108747 -118.105781 
z
"/>
   </g>
   <g id="patch_4">
    <path clip-path="url(#p27fa973db1)" d="M 44.99767 282.799219 
L 48.886594 282.799219 
L 48.886594 201.259219 
L 44.99767 201.259219 
z
"/>
   </g>
   <g id="patch_5">
    <path clip-path="url(#p27fa973db1)" d="M 48.886594 282.799219 
L 52.775517 282.799219 
L 52.775517 167.284219 
L 48.886594 167.284219 
z
"/>
   </g>
   <g id="patch_6">
    <path clip-path="url(#p27fa973db1)" d="M 52.775517 282.799219 
L 56.664441 282.799219 
L 56.664441 214.849219 
L 52.775517 214.849219 
z
"/>
   </g>
   <g id="patch_7">
    <path clip-path="url(#p27fa973db1)" d="M 56.664441 282.799219 
L 60.553364 282.799219 
L 60.553364 228.439219 
L 56.664441 228.439219 
z
"/>
   </g>
   <g id="patch_8">
    <path clip-path="url(#p27fa973db1)" d="M 60.553364 282.799219 
L 64.442288 282.799219 
L 64.442288 242.029219 
L 60.553364 242.029219 
z
"/>
   </g>
   <g id="patch_9">
    <path clip-path="url(#p27fa973db1)" d="M 64.442288 282.799219 
L 68.331211 282.799219 
L 68.331211 248.824219 
L 64.442288 248.824219 
z
"/>
   </g>
   <g id="patch_10">
    <path clip-path="url(#p27fa973db1)" d="M 68.331211 282.799219 
L 72.220135 282.799219 
L 72.220135 208.054219 
L 68.331211 208.054219 
z
"/>
   </g>
   <g id="patch_11">
    <path clip-path="url(#p27fa973db1)" d="M 72.220135 282.799219 
L 76.109059 282.799219 
L 76.109059 194.464219 
L 72.220135 194.464219 
z
"/>
   </g>
   <g id="patch_12">
    <path clip-path="url(#p27fa973db1)" d="M 76.109059 282.799219 
L 79.997982 282.799219 
L 79.997982 242.029219 
L 76.109059 242.029219 
z
"/>
   </g>
   <g id="patch_13">
    <path clip-path="url(#p27fa973db1)" d="M 79.997982 282.799219 
L 83.886906 282.799219 
L 83.886906 201.259219 
L 79.997982 201.259219 
z
"/>
   </g>
   <g id="patch_14">
    <path clip-path="url(#p27fa973db1)" d="M 83.886906 282.799219 
L 87.775829 282.799219 
L 87.775829 255.619219 
L 83.886906 255.619219 
z
"/>
   </g>
   <g id="patch_15">
    <path clip-path="url(#p27fa973db1)" d="M 87.775829 282.799219 
L 91.664753 282.799219 
L 91.664753 228.439219 
L 87.775829 228.439219 
z
"/>
   </g>
   <g id="patch_16">
    <path clip-path="url(#p27fa973db1)" d="M 91.664753 282.799219 
L 95.553676 282.799219 
L 95.553676 221.644219 
L 91.664753 221.644219 
z
"/>
   </g>
   <g id="patch_17">
    <path clip-path="url(#p27fa973db1)" d="M 95.553676 282.799219 
L 99.4426 282.799219 
L 99.4426 214.849219 
L 95.553676 214.849219 
z
"/>
   </g>
   <g id="patch_18">
    <path clip-path="url(#p27fa973db1)" d="M 99.4426 282.799219 
L 103.331523 282.799219 
L 103.331523 201.259219 
L 99.4426 201.259219 
z
"/>
   </g>
   <g id="patch_19">
    <path clip-path="url(#p27fa973db1)" d="M 103.331523 282.799219 
L 107.220447 282.799219 
L 107.220447 208.054219 
L 103.331523 208.054219 
z
"/>
   </g>
   <g id="patch_20">
    <path clip-path="url(#p27fa973db1)" d="M 107.220447 282.799219 
L 111.10937 282.799219 
L 111.10937 228.439219 
L 107.220447 228.439219 
z
"/>
   </g>
   <g id="patch_21">
    <path clip-path="url(#p27fa973db1)" d="M 111.10937 282.799219 
L 114.998294 282.799219 
L 114.998294 248.824219 
L 111.10937 248.824219 
z
"/>
   </g>
   <g id="patch_22">
    <path clip-path="url(#p27fa973db1)" d="M 114.998294 282.799219 
L 118.887217 282.799219 
L 118.887217 201.259219 
L 114.998294 201.259219 
z
"/>
   </g>
   <g id="patch_23">
    <path clip-path="url(#p27fa973db1)" d="M 118.887217 282.799219 
L 122.776141 282.799219 
L 122.776141 228.439219 
L 118.887217 228.439219 
z
"/>
   </g>
   <g id="patch_24">
    <path clip-path="url(#p27fa973db1)" d="M 122.776141 282.799219 
L 126.665064 282.799219 
L 126.665064 228.439219 
L 122.776141 228.439219 
z
"/>
   </g>
   <g id="patch_25">
    <path clip-path="url(#p27fa973db1)" d="M 126.665064 282.799219 
L 130.553988 282.799219 
L 130.553988 255.619219 
L 126.665064 255.619219 
z
"/>
   </g>
   <g id="patch_26">
    <path clip-path="url(#p27fa973db1)" d="M 130.553988 282.799219 
L 134.442911 282.799219 
L 134.442911 180.874219 
L 130.553988 180.874219 
z
"/>
   </g>
   <g id="patch_27">
    <path clip-path="url(#p27fa973db1)" d="M 134.442911 282.799219 
L 138.331835 282.799219 
L 138.331835 228.439219 
L 134.442911 228.439219 
z
"/>
   </g>
   <g id="patch_28">
    <path clip-path="url(#p27fa973db1)" d="M 138.331835 282.799219 
L 142.220758 282.799219 
L 142.220758 235.234219 
L 138.331835 235.234219 
z
"/>
   </g>
   <g id="patch_29">
    <path clip-path="url(#p27fa973db1)" d="M 142.220758 282.799219 
L 146.109682 282.799219 
L 146.109682 214.849219 
L 142.220758 214.849219 
z
"/>
   </g>
   <g id="patch_30">
    <path clip-path="url(#p27fa973db1)" d="M 146.109682 282.799219 
L 149.998605 282.799219 
L 149.998605 228.439219 
L 146.109682 228.439219 
z
"/>
   </g>
   <g id="patch_31">
    <path clip-path="url(#p27fa973db1)" d="M 149.998605 282.799219 
L 153.887529 282.799219 
L 153.887529 242.029219 
L 149.998605 242.029219 
z
"/>
   </g>
   <g id="patch_32">
    <path clip-path="url(#p27fa973db1)" d="M 153.887529 282.799219 
L 157.776452 282.799219 
L 157.776452 228.439219 
L 153.887529 228.439219 
z
"/>
   </g>
   <g id="patch_33">
    <path clip-path="url(#p27fa973db1)" d="M 157.776452 282.799219 
L 161.665376 282.799219 
L 161.665376 248.824219 
L 157.776452 248.824219 
z
"/>
   </g>
   <g id="patch_34">
    <path clip-path="url(#p27fa973db1)" d="M 161.665376 282.799219 
L 165.554299 282.799219 
L 165.554299 276.004219 
L 161.665376 276.004219 
z
"/>
   </g>
   <g id="patch_35">
    <path clip-path="url(#p27fa973db1)" d="M 165.554299 282.799219 
L 169.443223 282.799219 
L 169.443223 255.619219 
L 165.554299 255.619219 
z
"/>
   </g>
   <g id="patch_36">
    <path clip-path="url(#p27fa973db1)" d="M 169.443223 282.799219 
L 173.332146 282.799219 
L 173.332146 242.029219 
L 169.443223 242.029219 
z
"/>
   </g>
   <g id="patch_37">
    <path clip-path="url(#p27fa973db1)" d="M 173.332146 282.799219 
L 177.22107 282.799219 
L 177.22107 262.414219 
L 173.332146 262.414219 
z
"/>
   </g>
   <g id="patch_38">
    <path clip-path="url(#p27fa973db1)" d="M 177.22107 282.799219 
L 181.109993 282.799219 
L 181.109993 235.234219 
L 177.22107 235.234219 
z
"/>
   </g>
   <g id="patch_39">
    <path clip-path="url(#p27fa973db1)" d="M 181.109993 282.799219 
L 184.998917 282.799219 
L 184.998917 221.644219 
L 181.109993 221.644219 
z
"/>
   </g>
   <g id="patch_40">
    <path clip-path="url(#p27fa973db1)" d="M 184.998917 282.799219 
L 188.887841 282.799219 
L 188.887841 242.029219 
L 184.998917 242.029219 
z
"/>
   </g>
   <g id="patch_41">
    <path clip-path="url(#p27fa973db1)" d="M 188.887841 282.799219 
L 192.776764 282.799219 
L 192.776764 262.414219 
L 188.887841 262.414219 
z
"/>
   </g>
   <g id="patch_42">
    <path clip-path="url(#p27fa973db1)" d="M 192.776764 282.799219 
L 196.665688 282.799219 
L 196.665688 214.849219 
L 192.776764 214.849219 
z
"/>
   </g>
   <g id="patch_43">
    <path clip-path="url(#p27fa973db1)" d="M 196.665688 282.799219 
L 200.554611 282.799219 
L 200.554611 221.644219 
L 196.665688 221.644219 
z
"/>
   </g>
   <g id="patch_44">
    <path clip-path="url(#p27fa973db1)" d="M 200.554611 282.799219 
L 204.443535 282.799219 
L 204.443535 242.029219 
L 200.554611 242.029219 
z
"/>
   </g>
   <g id="patch_45">
    <path clip-path="url(#p27fa973db1)" d="M 204.443535 282.799219 
L 208.332458 282.799219 
L 208.332458 235.234219 
L 204.443535 235.234219 
z
"/>
   </g>
   <g id="patch_46">
    <path clip-path="url(#p27fa973db1)" d="M 208.332458 282.799219 
L 212.221382 282.799219 
L 212.221382 242.029219 
L 208.332458 242.029219 
z
"/>
   </g>
   <g id="patch_47">
    <path clip-path="url(#p27fa973db1)" d="M 212.221382 282.799219 
L 216.110305 282.799219 
L 216.110305 248.824219 
L 212.221382 248.824219 
z
"/>
   </g>
   <g id="patch_48">
    <path clip-path="url(#p27fa973db1)" d="M 216.110305 282.799219 
L 219.999229 282.799219 
L 219.999229 262.414219 
L 216.110305 262.414219 
z
"/>
   </g>
   <g id="patch_49">
    <path clip-path="url(#p27fa973db1)" d="M 219.999229 282.799219 
L 223.888152 282.799219 
L 223.888152 235.234219 
L 219.999229 235.234219 
z
"/>
   </g>
   <g id="patch_50">
    <path clip-path="url(#p27fa973db1)" d="M 223.888152 282.799219 
L 227.777076 282.799219 
L 227.777076 262.414219 
L 223.888152 262.414219 
z
"/>
   </g>
   <g id="patch_51">
    <path clip-path="url(#p27fa973db1)" d="M 227.777076 282.799219 
L 231.665999 282.799219 
L 231.665999 235.234219 
L 227.777076 235.234219 
z
"/>
   </g>
   <g id="patch_52">
    <path clip-path="url(#p27fa973db1)" d="M 231.665999 282.799219 
L 235.554923 282.799219 
L 235.554923 248.824219 
L 231.665999 248.824219 
z
"/>
   </g>
   <g id="patch_53">
    <path clip-path="url(#p27fa973db1)" d="M 235.554923 282.799219 
L 239.443846 282.799219 
L 239.443846 262.414219 
L 235.554923 262.414219 
z
"/>
   </g>
   <g id="patch_54">
    <path clip-path="url(#p27fa973db1)" d="M 239.443846 282.799219 
L 243.33277 282.799219 
L 243.33277 235.234219 
L 239.443846 235.234219 
z
"/>
   </g>
   <g id="patch_55">
    <path clip-path="url(#p27fa973db1)" d="M 243.33277 282.799219 
L 247.221693 282.799219 
L 247.221693 248.824219 
L 243.33277 248.824219 
z
"/>
   </g>
   <g id="patch_56">
    <path clip-path="url(#p27fa973db1)" d="M 247.221693 282.799219 
L 251.110617 282.799219 
L 251.110617 242.029219 
L 247.221693 242.029219 
z
"/>
   </g>
   <g id="patch_57">
    <path clip-path="url(#p27fa973db1)" d="M 251.110617 282.799219 
L 254.99954 282.799219 
L 254.99954 242.029219 
L 251.110617 242.029219 
z
"/>
   </g>
   <g id="patch_58">
    <path clip-path="url(#p27fa973db1)" d="M 254.99954 282.799219 
L 258.888464 282.799219 
L 258.888464 208.054219 
L 254.99954 208.054219 
z
"/>
   </g>
   <g id="patch_59">
    <path clip-path="url(#p27fa973db1)" d="M 258.888464 282.799219 
L 262.777387 282.799219 
L 262.777387 255.619219 
L 258.888464 255.619219 
z
"/>
   </g>
   <g id="patch_60">
    <path clip-path="url(#p27fa973db1)" d="M 262.777387 282.799219 
L 266.666311 282.799219 
L 266.666311 228.439219 
L 262.777387 228.439219 
z
"/>
   </g>
   <g id="patch_61">
    <path clip-path="url(#p27fa973db1)" d="M 266.666311 282.799219 
L 270.555234 282.799219 
L 270.555234 235.234219 
L 266.666311 235.234219 
z
"/>
   </g>
   <g id="patch_62">
    <path clip-path="url(#p27fa973db1)" d="M 270.555234 282.799219 
L 274.444158 282.799219 
L 274.444158 235.234219 
L 270.555234 235.234219 
z
"/>
   </g>
   <g id="patch_63">
    <path clip-path="url(#p27fa973db1)" d="M 274.444158 282.799219 
L 278.333081 282.799219 
L 278.333081 242.029219 
L 274.444158 242.029219 
z
"/>
   </g>
   <g id="patch_64">
    <path clip-path="url(#p27fa973db1)" d="M 278.333081 282.799219 
L 282.222005 282.799219 
L 282.222005 255.619219 
L 278.333081 255.619219 
z
"/>
   </g>
   <g id="patch_65">
    <path clip-path="url(#p27fa973db1)" d="M 282.222005 282.799219 
L 286.110928 282.799219 
L 286.110928 242.029219 
L 282.222005 242.029219 
z
"/>
   </g>
   <g id="patch_66">
    <path clip-path="url(#p27fa973db1)" d="M 286.110928 282.799219 
L 289.999852 282.799219 
L 289.999852 255.619219 
L 286.110928 255.619219 
z
"/>
   </g>
   <g id="patch_67">
    <path clip-path="url(#p27fa973db1)" d="M 289.999852 282.799219 
L 293.888776 282.799219 
L 293.888776 255.619219 
L 289.999852 255.619219 
z
"/>
   </g>
   <g id="patch_68">
    <path clip-path="url(#p27fa973db1)" d="M 293.888776 282.799219 
L 297.777699 282.799219 
L 297.777699 248.824219 
L 293.888776 248.824219 
z
"/>
   </g>
   <g id="patch_69">
    <path clip-path="url(#p27fa973db1)" d="M 297.777699 282.799219 
L 301.666623 282.799219 
L 301.666623 235.234219 
L 297.777699 235.234219 
z
"/>
   </g>
   <g id="patch_70">
    <path clip-path="url(#p27fa973db1)" d="M 301.666623 282.799219 
L 305.555546 282.799219 
L 305.555546 262.414219 
L 301.666623 262.414219 
z
"/>
   </g>
   <g id="patch_71">
    <path clip-path="url(#p27fa973db1)" d="M 305.555546 282.799219 
L 309.44447 282.799219 
L 309.44447 262.414219 
L 305.555546 262.414219 
z
"/>
   </g>
   <g id="patch_72">
    <path clip-path="url(#p27fa973db1)" d="M 309.44447 282.799219 
L 313.333393 282.799219 
L 313.333393 262.414219 
L 309.44447 262.414219 
z
"/>
   </g>
   <g id="patch_73">
    <path clip-path="url(#p27fa973db1)" d="M 313.333393 282.799219 
L 317.222317 282.799219 
L 317.222317 262.414219 
L 313.333393 262.414219 
z
"/>
   </g>
   <g id="patch_74">
    <path clip-path="url(#p27fa973db1)" d="M 317.222317 282.799219 
L 321.11124 282.799219 
L 321.11124 255.619219 
L 317.222317 255.619219 
z
"/>
   </g>
   <g id="patch_75">
    <path clip-path="url(#p27fa973db1)" d="M 321.11124 282.799219 
L 325.000164 282.799219 
L 325.000164 269.209219 
L 321.11124 269.209219 
z
"/>
   </g>
   <g id="patch_76">
    <path clip-path="url(#p27fa973db1)" d="M 325.000164 282.799219 
L 328.889087 282.799219 
L 328.889087 255.619219 
L 325.000164 255.619219 
z
"/>
   </g>
   <g id="patch_77">
    <path clip-path="url(#p27fa973db1)" d="M 328.889087 282.799219 
L 332.778011 282.799219 
L 332.778011 262.414219 
L 328.889087 262.414219 
z
"/>
   </g>
   <g id="patch_78">
    <path clip-path="url(#p27fa973db1)" d="M 332.778011 282.799219 
L 336.666934 282.799219 
L 336.666934 255.619219 
L 332.778011 255.619219 
z
"/>
   </g>
   <g id="patch_79">
    <path clip-path="url(#p27fa973db1)" d="M 336.666934 282.799219 
L 340.555858 282.799219 
L 340.555858 228.439219 
L 336.666934 228.439219 
z
"/>
   </g>
   <g id="patch_80">
    <path clip-path="url(#p27fa973db1)" d="M 340.555858 282.799219 
L 344.444781 282.799219 
L 344.444781 228.439219 
L 340.555858 228.439219 
z
"/>
   </g>
   <g id="patch_81">
    <path clip-path="url(#p27fa973db1)" d="M 344.444781 282.799219 
L 348.333705 282.799219 
L 348.333705 248.824219 
L 344.444781 248.824219 
z
"/>
   </g>
   <g id="patch_82">
    <path clip-path="url(#p27fa973db1)" d="M 348.333705 282.799219 
L 352.222628 282.799219 
L 352.222628 248.824219 
L 348.333705 248.824219 
z
"/>
   </g>
   <g id="patch_83">
    <path clip-path="url(#p27fa973db1)" d="M 352.222628 282.799219 
L 356.111552 282.799219 
L 356.111552 248.824219 
L 352.222628 248.824219 
z
"/>
   </g>
   <g id="patch_84">
    <path clip-path="url(#p27fa973db1)" d="M 356.111552 282.799219 
L 360.000475 282.799219 
L 360.000475 269.209219 
L 356.111552 269.209219 
z
"/>
   </g>
   <g id="patch_85">
    <path clip-path="url(#p27fa973db1)" d="M 360.000475 282.799219 
L 363.889399 282.799219 
L 363.889399 269.209219 
L 360.000475 269.209219 
z
"/>
   </g>
   <g id="patch_86">
    <path clip-path="url(#p27fa973db1)" d="M 363.889399 282.799219 
L 367.778322 282.799219 
L 367.778322 248.824219 
L 363.889399 248.824219 
z
"/>
   </g>
   <g id="patch_87">
    <path clip-path="url(#p27fa973db1)" d="M 367.778322 282.799219 
L 371.667246 282.799219 
L 371.667246 214.849219 
L 367.778322 214.849219 
z
"/>
   </g>
   <g id="patch_88">
    <path clip-path="url(#p27fa973db1)" d="M 371.667246 282.799219 
L 375.556169 282.799219 
L 375.556169 269.209219 
L 371.667246 269.209219 
z
"/>
   </g>
   <g id="patch_89">
    <path clip-path="url(#p27fa973db1)" d="M 375.556169 282.799219 
L 379.445093 282.799219 
L 379.445093 262.414219 
L 375.556169 262.414219 
z
"/>
   </g>
   <g id="patch_90">
    <path clip-path="url(#p27fa973db1)" d="M 379.445093 282.799219 
L 383.334016 282.799219 
L 383.334016 242.029219 
L 379.445093 242.029219 
z
"/>
   </g>
   <g id="patch_91">
    <path clip-path="url(#p27fa973db1)" d="M 383.334016 282.799219 
L 387.22294 282.799219 
L 387.22294 228.439219 
L 383.334016 228.439219 
z
"/>
   </g>
   <g id="patch_92">
    <path clip-path="url(#p27fa973db1)" d="M 387.22294 282.799219 
L 391.111863 282.799219 
L 391.111863 248.824219 
L 387.22294 248.824219 
z
"/>
   </g>
   <g id="patch_93">
    <path clip-path="url(#p27fa973db1)" d="M 391.111863 282.799219 
L 395.000787 282.799219 
L 395.000787 262.414219 
L 391.111863 262.414219 
z
"/>
   </g>
   <g id="patch_94">
    <path clip-path="url(#p27fa973db1)" d="M 395.000787 282.799219 
L 398.88971 282.799219 
L 398.88971 242.029219 
L 395.000787 242.029219 
z
"/>
   </g>
   <g id="patch_95">
    <path clip-path="url(#p27fa973db1)" d="M 398.88971 282.799219 
L 402.778634 282.799219 
L 402.778634 248.824219 
L 398.88971 248.824219 
z
"/>
   </g>
   <g id="patch_96">
    <path clip-path="url(#p27fa973db1)" d="M 402.778634 282.799219 
L 406.667558 282.799219 
L 406.667558 248.824219 
L 402.778634 248.824219 
z
"/>
   </g>
   <g id="patch_97">
    <path clip-path="url(#p27fa973db1)" d="M 406.667558 282.799219 
L 410.556481 282.799219 
L 410.556481 228.439219 
L 406.667558 228.439219 
z
"/>
   </g>
   <g id="patch_98">
    <path clip-path="url(#p27fa973db1)" d="M 410.556481 282.799219 
L 414.445405 282.799219 
L 414.445405 255.619219 
L 410.556481 255.619219 
z
"/>
   </g>
   <g id="patch_99">
    <path clip-path="url(#p27fa973db1)" d="M 414.445405 282.799219 
L 418.334328 282.799219 
L 418.334328 228.439219 
L 414.445405 228.439219 
z
"/>
   </g>
   <g id="patch_100">
    <path clip-path="url(#p27fa973db1)" d="M 418.334328 282.799219 
L 422.223252 282.799219 
L 422.223252 248.824219 
L 418.334328 248.824219 
z
"/>
   </g>
   <g id="patch_101">
    <path clip-path="url(#p27fa973db1)" d="M 422.223252 282.799219 
L 426.112175 282.799219 
L 426.112175 262.414219 
L 422.223252 262.414219 
z
"/>
   </g>
   <g id="patch_102">
    <path clip-path="url(#p27fa973db1)" d="M 426.112175 282.799219 
L 430.001099 282.799219 
L 430.001099 269.209219 
L 426.112175 269.209219 
z
"/>
   </g>
   <g id="patch_103">
    <path clip-path="url(#p27fa973db1)" d="M 430.001099 282.799219 
L 433.890022 282.799219 
L 433.890022 255.619219 
L 430.001099 255.619219 
z
"/>
   </g>
   <g id="patch_104">
    <path clip-path="url(#p27fa973db1)" d="M 433.890022 282.799219 
L 437.778946 282.799219 
L 437.778946 248.824219 
L 433.890022 248.824219 
z
"/>
   </g>
   <g id="patch_105">
    <path clip-path="url(#p27fa973db1)" d="M 437.778946 282.799219 
L 441.667869 282.799219 
L 441.667869 255.619219 
L 437.778946 255.619219 
z
"/>
   </g>
   <g id="patch_106">
    <path clip-path="url(#p27fa973db1)" d="M 441.667869 282.799219 
L 445.556793 282.799219 
L 445.556793 255.619219 
L 441.667869 255.619219 
z
"/>
   </g>
   <g id="patch_107">
    <path clip-path="url(#p27fa973db1)" d="M 445.556793 282.799219 
L 449.445716 282.799219 
L 449.445716 262.414219 
L 445.556793 262.414219 
z
"/>
   </g>
   <g id="patch_108">
    <path clip-path="url(#p27fa973db1)" d="M 449.445716 282.799219 
L 453.33464 282.799219 
L 453.33464 276.004219 
L 449.445716 276.004219 
z
"/>
   </g>
   <g id="patch_109">
    <path clip-path="url(#p27fa973db1)" d="M 453.33464 282.799219 
L 457.223563 282.799219 
L 457.223563 269.209219 
L 453.33464 269.209219 
z
"/>
   </g>
   <g id="patch_110">
    <path clip-path="url(#p27fa973db1)" d="M 457.223563 282.799219 
L 461.112487 282.799219 
L 461.112487 255.619219 
L 457.223563 255.619219 
z
"/>
   </g>
   <g id="patch_111">
    <path clip-path="url(#p27fa973db1)" d="M 461.112487 282.799219 
L 465.00141 282.799219 
L 465.00141 262.414219 
L 461.112487 262.414219 
z
"/>
   </g>
   <g id="patch_112">
    <path clip-path="url(#p27fa973db1)" d="M 465.00141 282.799219 
L 468.890334 282.799219 
L 468.890334 242.029219 
L 465.00141 242.029219 
z
"/>
   </g>
   <g id="patch_113">
    <path clip-path="url(#p27fa973db1)" d="M 468.890334 282.799219 
L 472.779257 282.799219 
L 472.779257 228.439219 
L 468.890334 228.439219 
z
"/>
   </g>
   <g id="patch_114">
    <path clip-path="url(#p27fa973db1)" d="M 472.779257 282.799219 
L 476.668181 282.799219 
L 476.668181 255.619219 
L 472.779257 255.619219 
z
"/>
   </g>
   <g id="patch_115">
    <path clip-path="url(#p27fa973db1)" d="M 476.668181 282.799219 
L 480.557104 282.799219 
L 480.557104 248.824219 
L 476.668181 248.824219 
z
"/>
   </g>
   <g id="patch_116">
    <path clip-path="url(#p27fa973db1)" d="M 480.557104 282.799219 
L 484.446028 282.799219 
L 484.446028 248.824219 
L 480.557104 248.824219 
z
"/>
   </g>
   <g id="patch_117">
    <path clip-path="url(#p27fa973db1)" d="M 484.446028 282.799219 
L 488.334951 282.799219 
L 488.334951 262.414219 
L 484.446028 262.414219 
z
"/>
   </g>
   <g id="patch_118">
    <path clip-path="url(#p27fa973db1)" d="M 488.334951 282.799219 
L 492.223875 282.799219 
L 492.223875 248.824219 
L 488.334951 248.824219 
z
"/>
   </g>
   <g id="patch_119">
    <path clip-path="url(#p27fa973db1)" d="M 492.223875 282.799219 
L 496.112798 282.799219 
L 496.112798 208.054219 
L 492.223875 208.054219 
z
"/>
   </g>
   <g id="patch_120">
    <path clip-path="url(#p27fa973db1)" d="M 496.112798 282.799219 
L 500.001722 282.799219 
L 500.001722 214.849219 
L 496.112798 214.849219 
z
"/>
   </g>
   <g id="patch_121">
    <path clip-path="url(#p27fa973db1)" d="M 500.001722 282.799219 
L 503.890645 282.799219 
L 503.890645 228.439219 
L 500.001722 228.439219 
z
"/>
   </g>
   <g id="patch_122">
    <path clip-path="url(#p27fa973db1)" d="M 503.890645 282.799219 
L 507.779569 282.799219 
L 507.779569 235.234219 
L 503.890645 235.234219 
z
"/>
   </g>
   <g id="patch_123">
    <path clip-path="url(#p27fa973db1)" d="M 507.779569 282.799219 
L 511.668492 282.799219 
L 511.668492 248.824219 
L 507.779569 248.824219 
z
"/>
   </g>
   <g id="patch_124">
    <path clip-path="url(#p27fa973db1)" d="M 511.668492 282.799219 
L 515.557416 282.799219 
L 515.557416 276.004219 
L 511.668492 276.004219 
z
"/>
   </g>
   <g id="patch_125">
    <path clip-path="url(#p27fa973db1)" d="M 515.557416 282.799219 
L 519.44634 282.799219 
L 519.44634 269.209219 
L 515.557416 269.209219 
z
"/>
   </g>
   <g id="patch_126">
    <path clip-path="url(#p27fa973db1)" d="M 519.44634 282.799219 
L 523.335263 282.799219 
L 523.335263 282.799219 
L 519.44634 282.799219 
z
"/>
   </g>
   <g id="patch_127">
    <path clip-path="url(#p27fa973db1)" d="M 523.335263 282.799219 
L 527.224187 282.799219 
L 527.224187 269.209219 
L 523.335263 269.209219 
z
"/>
   </g>
   <g id="patch_128">
    <path clip-path="url(#p27fa973db1)" d="M 527.224187 282.799219 
L 531.11311 282.799219 
L 531.11311 248.824219 
L 527.224187 248.824219 
z
"/>
   </g>
   <g id="patch_129">
    <path clip-path="url(#p27fa973db1)" d="M 531.11311 282.799219 
L 535.002034 282.799219 
L 535.002034 221.644219 
L 531.11311 221.644219 
z
"/>
   </g>
   <g id="patch_130">
    <path clip-path="url(#p27fa973db1)" d="M 535.002034 282.799219 
L 538.890957 282.799219 
L 538.890957 262.414219 
L 535.002034 262.414219 
z
"/>
   </g>
   <g id="patch_131">
    <path clip-path="url(#p27fa973db1)" d="M 538.890957 282.799219 
L 542.779881 282.799219 
L 542.779881 255.619219 
L 538.890957 255.619219 
z
"/>
   </g>
   <g id="patch_132">
    <path clip-path="url(#p27fa973db1)" d="M 542.779881 282.799219 
L 546.668804 282.799219 
L 546.668804 228.439219 
L 542.779881 228.439219 
z
"/>
   </g>
   <g id="patch_133">
    <path clip-path="url(#p27fa973db1)" d="M 546.668804 282.799219 
L 550.557728 282.799219 
L 550.557728 248.824219 
L 546.668804 248.824219 
z
"/>
   </g>
   <g id="patch_134">
    <path clip-path="url(#p27fa973db1)" d="M 550.557728 282.799219 
L 554.446651 282.799219 
L 554.446651 248.824219 
L 550.557728 248.824219 
z
"/>
   </g>
   <g id="patch_135">
    <path clip-path="url(#p27fa973db1)" d="M 554.446651 282.799219 
L 558.335575 282.799219 
L 558.335575 262.414219 
L 554.446651 262.414219 
z
"/>
   </g>
   <g id="patch_136">
    <path clip-path="url(#p27fa973db1)" d="M 558.335575 282.799219 
L 562.224498 282.799219 
L 562.224498 248.824219 
L 558.335575 248.824219 
z
"/>
   </g>
   <g id="patch_137">
    <path clip-path="url(#p27fa973db1)" d="M 562.224498 282.799219 
L 566.113422 282.799219 
L 566.113422 248.824219 
L 562.224498 248.824219 
z
"/>
   </g>
   <g id="patch_138">
    <path clip-path="url(#p27fa973db1)" d="M 566.113422 282.799219 
L 570.002345 282.799219 
L 570.002345 235.234219 
L 566.113422 235.234219 
z
"/>
   </g>
   <g id="patch_139">
    <path clip-path="url(#p27fa973db1)" d="M 570.002345 282.799219 
L 573.891269 282.799219 
L 573.891269 269.209219 
L 570.002345 269.209219 
z
"/>
   </g>
   <g id="patch_140">
    <path clip-path="url(#p27fa973db1)" d="M 573.891269 282.799219 
L 577.780192 282.799219 
L 577.780192 255.619219 
L 573.891269 255.619219 
z
"/>
   </g>
   <g id="patch_141">
    <path clip-path="url(#p27fa973db1)" d="M 577.780192 282.799219 
L 581.669116 282.799219 
L 581.669116 255.619219 
L 577.780192 255.619219 
z
"/>
   </g>
   <g id="patch_142">
    <path clip-path="url(#p27fa973db1)" d="M 581.669116 282.799219 
L 585.558039 282.799219 
L 585.558039 269.209219 
L 581.669116 269.209219 
z
"/>
   </g>
   <g id="patch_143">
    <path clip-path="url(#p27fa973db1)" d="M 585.558039 282.799219 
L 589.446963 282.799219 
L 589.446963 235.234219 
L 585.558039 235.234219 
z
"/>
   </g>
   <g id="patch_144">
    <path clip-path="url(#p27fa973db1)" d="M 589.446963 282.799219 
L 593.335886 282.799219 
L 593.335886 235.234219 
L 589.446963 235.234219 
z
"/>
   </g>
   <g id="patch_145">
    <path clip-path="url(#p27fa973db1)" d="M 593.335886 282.799219 
L 597.22481 282.799219 
L 597.22481 235.234219 
L 593.335886 235.234219 
z
"/>
   </g>
   <g id="patch_146">
    <path clip-path="url(#p27fa973db1)" d="M 597.22481 282.799219 
L 601.113733 282.799219 
L 601.113733 262.414219 
L 597.22481 262.414219 
z
"/>
   </g>
   <g id="patch_147">
    <path clip-path="url(#p27fa973db1)" d="M 601.113733 282.799219 
L 605.002657 282.799219 
L 605.002657 248.824219 
L 601.113733 248.824219 
z
"/>
   </g>
   <g id="patch_148">
    <path clip-path="url(#p27fa973db1)" d="M 605.002657 282.799219 
L 608.89158 282.799219 
L 608.89158 262.414219 
L 605.002657 262.414219 
z
"/>
   </g>
   <g id="patch_149">
    <path clip-path="url(#p27fa973db1)" d="M 608.89158 282.799219 
L 612.780504 282.799219 
L 612.780504 235.234219 
L 608.89158 235.234219 
z
"/>
   </g>
   <g id="patch_150">
    <path clip-path="url(#p27fa973db1)" d="M 612.780504 282.799219 
L 616.669427 282.799219 
L 616.669427 214.849219 
L 612.780504 214.849219 
z
"/>
   </g>
   <g id="patch_151">
    <path clip-path="url(#p27fa973db1)" d="M 616.669427 282.799219 
L 620.558351 282.799219 
L 620.558351 255.619219 
L 616.669427 255.619219 
z
"/>
   </g>
   <g id="patch_152">
    <path clip-path="url(#p27fa973db1)" d="M 620.558351 282.799219 
L 624.447274 282.799219 
L 624.447274 255.619219 
L 620.558351 255.619219 
z
"/>
   </g>
   <g id="patch_153">
    <path clip-path="url(#p27fa973db1)" d="M 624.447274 282.799219 
L 628.336198 282.799219 
L 628.336198 248.824219 
L 624.447274 248.824219 
z
"/>
   </g>
   <g id="patch_154">
    <path clip-path="url(#p27fa973db1)" d="M 628.336198 282.799219 
L 632.225122 282.799219 
L 632.225122 262.414219 
L 628.336198 262.414219 
z
"/>
   </g>
   <g id="patch_155">
    <path clip-path="url(#p27fa973db1)" d="M 632.225122 282.799219 
L 636.114045 282.799219 
L 636.114045 276.004219 
L 632.225122 276.004219 
z
"/>
   </g>
   <g id="patch_156">
    <path clip-path="url(#p27fa973db1)" d="M 636.114045 282.799219 
L 640.002969 282.799219 
L 640.002969 255.619219 
L 636.114045 255.619219 
z
"/>
   </g>
   <g id="patch_157">
    <path clip-path="url(#p27fa973db1)" d="M 640.002969 282.799219 
L 643.891892 282.799219 
L 643.891892 262.414219 
L 640.002969 262.414219 
z
"/>
   </g>
   <g id="patch_158">
    <path clip-path="url(#p27fa973db1)" d="M 643.891892 282.799219 
L 647.780816 282.799219 
L 647.780816 269.209219 
L 643.891892 269.209219 
z
"/>
   </g>
   <g id="patch_159">
    <path clip-path="url(#p27fa973db1)" d="M 647.780816 282.799219 
L 651.669739 282.799219 
L 651.669739 255.619219 
L 647.780816 255.619219 
z
"/>
   </g>
   <g id="patch_160">
    <path clip-path="url(#p27fa973db1)" d="M 651.669739 282.799219 
L 655.558663 282.799219 
L 655.558663 269.209219 
L 651.669739 269.209219 
z
"/>
   </g>
   <g id="patch_161">
    <path clip-path="url(#p27fa973db1)" d="M 655.558663 282.799219 
L 659.447586 282.799219 
L 659.447586 262.414219 
L 655.558663 262.414219 
z
"/>
   </g>
   <g id="patch_162">
    <path clip-path="url(#p27fa973db1)" d="M 659.447586 282.799219 
L 663.33651 282.799219 
L 663.33651 276.004219 
L 659.447586 276.004219 
z
"/>
   </g>
   <g id="patch_163">
    <path clip-path="url(#p27fa973db1)" d="M 663.33651 282.799219 
L 667.225433 282.799219 
L 667.225433 269.209219 
L 663.33651 269.209219 
z
"/>
   </g>
   <g id="patch_164">
    <path clip-path="url(#p27fa973db1)" d="M 667.225433 282.799219 
L 671.114357 282.799219 
L 671.114357 248.824219 
L 667.225433 248.824219 
z
"/>
   </g>
   <g id="patch_165">
    <path clip-path="url(#p27fa973db1)" d="M 671.114357 282.799219 
L 675.00328 282.799219 
L 675.00328 276.004219 
L 671.114357 276.004219 
z
"/>
   </g>
   <g id="patch_166">
    <path clip-path="url(#p27fa973db1)" d="M 675.00328 282.799219 
L 678.892204 282.799219 
L 678.892204 235.234219 
L 675.00328 235.234219 
z
"/>
   </g>
   <g id="patch_167">
    <path clip-path="url(#p27fa973db1)" d="M 678.892204 282.799219 
L 682.781127 282.799219 
L 682.781127 255.619219 
L 678.892204 255.619219 
z
"/>
   </g>
   <g id="patch_168">
    <path clip-path="url(#p27fa973db1)" d="M 682.781127 282.799219 
L 686.670051 282.799219 
L 686.670051 269.209219 
L 682.781127 269.209219 
z
"/>
   </g>
   <g id="patch_169">
    <path clip-path="url(#p27fa973db1)" d="M 686.670051 282.799219 
L 690.558974 282.799219 
L 690.558974 282.799219 
L 686.670051 282.799219 
z
"/>
   </g>
   <g id="patch_170">
    <path clip-path="url(#p27fa973db1)" d="M 690.558974 282.799219 
L 694.447898 282.799219 
L 694.447898 269.209219 
L 690.558974 269.209219 
z
"/>
   </g>
   <g id="patch_171">
    <path clip-path="url(#p27fa973db1)" d="M 694.447898 282.799219 
L 698.336821 282.799219 
L 698.336821 269.209219 
L 694.447898 269.209219 
z
"/>
   </g>
   <g id="patch_172">
    <path clip-path="url(#p27fa973db1)" d="M 698.336821 282.799219 
L 702.225745 282.799219 
L 702.225745 262.414219 
L 698.336821 262.414219 
z
"/>
   </g>
   <g id="patch_173">
    <path clip-path="url(#p27fa973db1)" d="M 702.225745 282.799219 
L 706.114668 282.799219 
L 706.114668 262.414219 
L 702.225745 262.414219 
z
"/>
   </g>
   <g id="patch_174">
    <path clip-path="url(#p27fa973db1)" d="M 706.114668 282.799219 
L 710.003592 282.799219 
L 710.003592 276.004219 
L 706.114668 276.004219 
z
"/>
   </g>
   <g id="patch_175">
    <path clip-path="url(#p27fa973db1)" d="M 710.003592 282.799219 
L 713.892515 282.799219 
L 713.892515 269.209219 
L 710.003592 269.209219 
z
"/>
   </g>
   <g id="patch_176">
    <path clip-path="url(#p27fa973db1)" d="M 713.892515 282.799219 
L 717.781439 282.799219 
L 717.781439 269.209219 
L 713.892515 269.209219 
z
"/>
   </g>
   <g id="patch_177">
    <path clip-path="url(#p27fa973db1)" d="M 717.781439 282.799219 
L 721.670362 282.799219 
L 721.670362 269.209219 
L 717.781439 269.209219 
z
"/>
   </g>
   <g id="patch_178">
    <path clip-path="url(#p27fa973db1)" d="M 721.670362 282.799219 
L 725.559286 282.799219 
L 725.559286 255.619219 
L 721.670362 255.619219 
z
"/>
   </g>
   <g id="patch_179">
    <path clip-path="url(#p27fa973db1)" d="M 725.559286 282.799219 
L 729.448209 282.799219 
L 729.448209 255.619219 
L 725.559286 255.619219 
z
"/>
   </g>
   <g id="patch_180">
    <path clip-path="url(#p27fa973db1)" d="M 729.448209 282.799219 
L 733.337133 282.799219 
L 733.337133 255.619219 
L 729.448209 255.619219 
z
"/>
   </g>
   <g id="patch_181">
    <path clip-path="url(#p27fa973db1)" d="M 733.337133 282.799219 
L 737.226057 282.799219 
L 737.226057 255.619219 
L 733.337133 255.619219 
z
"/>
   </g>
   <g id="patch_182">
    <path clip-path="url(#p27fa973db1)" d="M 737.226057 282.799219 
L 741.11498 282.799219 
L 741.11498 248.824219 
L 737.226057 248.824219 
z
"/>
   </g>
   <g id="patch_183">
    <path clip-path="url(#p27fa973db1)" d="M 741.11498 282.799219 
L 745.003904 282.799219 
L 745.003904 276.004219 
L 741.11498 276.004219 
z
"/>
   </g>
   <g id="patch_184">
    <path clip-path="url(#p27fa973db1)" d="M 745.003904 282.799219 
L 748.892827 282.799219 
L 748.892827 269.209219 
L 745.003904 269.209219 
z
"/>
   </g>
   <g id="patch_185">
    <path clip-path="url(#p27fa973db1)" d="M 748.892827 282.799219 
L 752.781751 282.799219 
L 752.781751 282.799219 
L 748.892827 282.799219 
z
"/>
   </g>
   <g id="patch_186">
    <path clip-path="url(#p27fa973db1)" d="M 752.781751 282.799219 
L 756.670674 282.799219 
L 756.670674 269.209219 
L 752.781751 269.209219 
z
"/>
   </g>
   <g id="patch_187">
    <path clip-path="url(#p27fa973db1)" d="M 756.670674 282.799219 
L 760.559598 282.799219 
L 760.559598 276.004219 
L 756.670674 276.004219 
z
"/>
   </g>
   <g id="patch_188">
    <path clip-path="url(#p27fa973db1)" d="M 760.559598 282.799219 
L 764.448521 282.799219 
L 764.448521 269.209219 
L 760.559598 269.209219 
z
"/>
   </g>
   <g id="patch_189">
    <path clip-path="url(#p27fa973db1)" d="M 764.448521 282.799219 
L 768.337445 282.799219 
L 768.337445 269.209219 
L 764.448521 269.209219 
z
"/>
   </g>
   <g id="patch_190">
    <path clip-path="url(#p27fa973db1)" d="M 768.337445 282.799219 
L 772.226368 282.799219 
L 772.226368 269.209219 
L 768.337445 269.209219 
z
"/>
   </g>
   <g id="patch_191">
    <path clip-path="url(#p27fa973db1)" d="M 772.226368 282.799219 
L 776.115292 282.799219 
L 776.115292 255.619219 
L 772.226368 255.619219 
z
"/>
   </g>
   <g id="patch_192">
    <path clip-path="url(#p27fa973db1)" d="M 776.115292 282.799219 
L 780.004215 282.799219 
L 780.004215 269.209219 
L 776.115292 269.209219 
z
"/>
   </g>
   <g id="patch_193">
    <path clip-path="url(#p27fa973db1)" d="M 780.004215 282.799219 
L 783.893139 282.799219 
L 783.893139 276.004219 
L 780.004215 276.004219 
z
"/>
   </g>
   <g id="patch_194">
    <path clip-path="url(#p27fa973db1)" d="M 783.893139 282.799219 
L 787.782062 282.799219 
L 787.782062 269.209219 
L 783.893139 269.209219 
z
"/>
   </g>
   <g id="patch_195">
    <path clip-path="url(#p27fa973db1)" d="M 787.782062 282.799219 
L 791.670986 282.799219 
L 791.670986 269.209219 
L 787.782062 269.209219 
z
"/>
   </g>
   <g id="patch_196">
    <path clip-path="url(#p27fa973db1)" d="M 791.670986 282.799219 
L 795.559909 282.799219 
L 795.559909 235.234219 
L 791.670986 235.234219 
z
"/>
   </g>
   <g id="patch_197">
    <path clip-path="url(#p27fa973db1)" d="M 795.559909 282.799219 
L 799.448833 282.799219 
L 799.448833 269.209219 
L 795.559909 269.209219 
z
"/>
   </g>
   <g id="patch_198">
    <path clip-path="url(#p27fa973db1)" d="M 799.448833 282.799219 
L 803.337756 282.799219 
L 803.337756 262.414219 
L 799.448833 262.414219 
z
"/>
   </g>
   <g id="patch_199">
    <path clip-path="url(#p27fa973db1)" d="M 803.337756 282.799219 
L 807.22668 282.799219 
L 807.22668 262.414219 
L 803.337756 262.414219 
z
"/>
   </g>
   <g id="patch_200">
    <path clip-path="url(#p27fa973db1)" d="M 807.22668 282.799219 
L 811.115603 282.799219 
L 811.115603 269.209219 
L 807.22668 269.209219 
z
"/>
   </g>
   <g id="patch_201">
    <path clip-path="url(#p27fa973db1)" d="M 811.115603 282.799219 
L 815.004527 282.799219 
L 815.004527 276.004219 
L 811.115603 276.004219 
z
"/>
   </g>
   <g id="patch_202">
    <path clip-path="url(#p27fa973db1)" d="M 815.004527 282.799219 
L 818.89345 282.799219 
L 818.89345 262.414219 
L 815.004527 262.414219 
z
"/>
   </g>
   <g id="matplotlib.axis_1">
    <g id="xtick_1">
     <g id="line2d_1">
      <defs>
       <path d="M 0 0 
L 0 3.5 
" id="mf3bf42040f" style="stroke:#000000;stroke-width:0.8;"/>
      </defs>
      <g>
       <use style="stroke:#000000;stroke-width:0.8;" x="139.24945" xlink:href="#mf3bf42040f" y="282.799219"/>
      </g>
     </g>
     <g id="text_1">
      <!-- −0.25 -->
      <defs>
       <path d="M 10.59375 35.5 
L 73.1875 35.5 
L 73.1875 27.203125 
L 10.59375 27.203125 
z
" id="DejaVuSans-8722"/>
       <path d="M 31.78125 66.40625 
Q 24.171875 66.40625 20.328125 58.90625 
Q 16.5 51.421875 16.5 36.375 
Q 16.5 21.390625 20.328125 13.890625 
Q 24.171875 6.390625 31.78125 6.390625 
Q 39.453125 6.390625 43.28125 13.890625 
Q 47.125 21.390625 47.125 36.375 
Q 47.125 51.421875 43.28125 58.90625 
Q 39.453125 66.40625 31.78125 66.40625 
z
M 31.78125 74.21875 
Q 44.046875 74.21875 50.515625 64.515625 
Q 56.984375 54.828125 56.984375 36.375 
Q 56.984375 17.96875 50.515625 8.265625 
Q 44.046875 -1.421875 31.78125 -1.421875 
Q 19.53125 -1.421875 13.0625 8.265625 
Q 6.59375 17.96875 6.59375 36.375 
Q 6.59375 54.828125 13.0625 64.515625 
Q 19.53125 74.21875 31.78125 74.21875 
z
" id="DejaVuSans-48"/>
       <path d="M 10.6875 12.40625 
L 21 12.40625 
L 21 0 
L 10.6875 0 
z
" id="DejaVuSans-46"/>
       <path d="M 19.1875 8.296875 
L 53.609375 8.296875 
L 53.609375 0 
L 7.328125 0 
L 7.328125 8.296875 
Q 12.9375 14.109375 22.625 23.890625 
Q 32.328125 33.6875 34.8125 36.53125 
Q 39.546875 41.84375 41.421875 45.53125 
Q 43.3125 49.21875 43.3125 52.78125 
Q 43.3125 58.59375 39.234375 62.25 
Q 35.15625 65.921875 28.609375 65.921875 
Q 23.96875 65.921875 18.8125 64.3125 
Q 13.671875 62.703125 7.8125 59.421875 
L 7.8125 69.390625 
Q 13.765625 71.78125 18.9375 73 
Q 24.125 74.21875 28.421875 74.21875 
Q 39.75 74.21875 46.484375 68.546875 
Q 53.21875 62.890625 53.21875 53.421875 
Q 53.21875 48.921875 51.53125 44.890625 
Q 49.859375 40.875 45.40625 35.40625 
Q 44.1875 33.984375 37.640625 27.21875 
Q 31.109375 20.453125 19.1875 8.296875 
z
" id="DejaVuSans-50"/>
       <path d="M 10.796875 72.90625 
L 49.515625 72.90625 
L 49.515625 64.59375 
L 19.828125 64.59375 
L 19.828125 46.734375 
Q 21.96875 47.46875 24.109375 47.828125 
Q 26.265625 48.1875 28.421875 48.1875 
Q 40.625 48.1875 47.75 41.5 
Q 54.890625 34.8125 54.890625 23.390625 
Q 54.890625 11.625 47.5625 5.09375 
Q 40.234375 -1.421875 26.90625 -1.421875 
Q 22.3125 -1.421875 17.546875 -0.640625 
Q 12.796875 0.140625 7.71875 1.703125 
L 7.71875 11.625 
Q 12.109375 9.234375 16.796875 8.0625 
Q 21.484375 6.890625 26.703125 6.890625 
Q 35.15625 6.890625 40.078125 11.328125 
Q 45.015625 15.765625 45.015625 23.390625 
Q 45.015625 31 40.078125 35.4375 
Q 35.15625 39.890625 26.703125 39.890625 
Q 22.75 39.890625 18.8125 39.015625 
Q 14.890625 38.140625 10.796875 36.28125 
z
" id="DejaVuSans-53"/>
      </defs>
      <g transform="translate(123.926794 297.397656)scale(0.1 -0.1)">
       <use xlink:href="#DejaVuSans-8722"/>
       <use x="83.789062" xlink:href="#DejaVuSans-48"/>
       <use x="147.412109" xlink:href="#DejaVuSans-46"/>
       <use x="179.199219" xlink:href="#DejaVuSans-50"/>
       <use x="242.822266" xlink:href="#DejaVuSans-53"/>
      </g>
     </g>
    </g>
    <g id="xtick_2">
     <g id="line2d_2">
      <g>
       <use style="stroke:#000000;stroke-width:0.8;" x="237.390154" xlink:href="#mf3bf42040f" y="282.799219"/>
      </g>
     </g>
     <g id="text_2">
      <!-- 0.00 -->
      <g transform="translate(226.257341 297.397656)scale(0.1 -0.1)">
       <use xlink:href="#DejaVuSans-48"/>
       <use x="63.623047" xlink:href="#DejaVuSans-46"/>
       <use x="95.410156" xlink:href="#DejaVuSans-48"/>
       <use x="159.033203" xlink:href="#DejaVuSans-48"/>
      </g>
     </g>
    </g>
    <g id="xtick_3">
     <g id="line2d_3">
      <g>
       <use style="stroke:#000000;stroke-width:0.8;" x="335.530857" xlink:href="#mf3bf42040f" y="282.799219"/>
      </g>
     </g>
     <g id="text_3">
      <!-- 0.25 -->
      <g transform="translate(324.398045 297.397656)scale(0.1 -0.1)">
       <use xlink:href="#DejaVuSans-48"/>
       <use x="63.623047" xlink:href="#DejaVuSans-46"/>
       <use x="95.410156" xlink:href="#DejaVuSans-50"/>
       <use x="159.033203" xlink:href="#DejaVuSans-53"/>
      </g>
     </g>
    </g>
    <g id="xtick_4">
     <g id="line2d_4">
      <g>
       <use style="stroke:#000000;stroke-width:0.8;" x="433.671561" xlink:href="#mf3bf42040f" y="282.799219"/>
      </g>
     </g>
     <g id="text_4">
      <!-- 0.50 -->
      <g transform="translate(422.538748 297.397656)scale(0.1 -0.1)">
       <use xlink:href="#DejaVuSans-48"/>
       <use x="63.623047" xlink:href="#DejaVuSans-46"/>
       <use x="95.410156" xlink:href="#DejaVuSans-53"/>
       <use x="159.033203" xlink:href="#DejaVuSans-48"/>
      </g>
     </g>
    </g>
    <g id="xtick_5">
     <g id="line2d_5">
      <g>
       <use style="stroke:#000000;stroke-width:0.8;" x="531.812264" xlink:href="#mf3bf42040f" y="282.799219"/>
      </g>
     </g>
     <g id="text_5">
      <!-- 0.75 -->
      <defs>
       <path d="M 8.203125 72.90625 
L 55.078125 72.90625 
L 55.078125 68.703125 
L 28.609375 0 
L 18.3125 0 
L 43.21875 64.59375 
L 8.203125 64.59375 
z
" id="DejaVuSans-55"/>
      </defs>
      <g transform="translate(520.679452 297.397656)scale(0.1 -0.1)">
       <use xlink:href="#DejaVuSans-48"/>
       <use x="63.623047" xlink:href="#DejaVuSans-46"/>
       <use x="95.410156" xlink:href="#DejaVuSans-55"/>
       <use x="159.033203" xlink:href="#DejaVuSans-53"/>
      </g>
     </g>
    </g>
    <g id="xtick_6">
     <g id="line2d_6">
      <g>
       <use style="stroke:#000000;stroke-width:0.8;" x="629.952968" xlink:href="#mf3bf42040f" y="282.799219"/>
      </g>
     </g>
     <g id="text_6">
      <!-- 1.00 -->
      <defs>
       <path d="M 12.40625 8.296875 
L 28.515625 8.296875 
L 28.515625 63.921875 
L 10.984375 60.40625 
L 10.984375 69.390625 
L 28.421875 72.90625 
L 38.28125 72.90625 
L 38.28125 8.296875 
L 54.390625 8.296875 
L 54.390625 0 
L 12.40625 0 
z
" id="DejaVuSans-49"/>
      </defs>
      <g transform="translate(618.820155 297.397656)scale(0.1 -0.1)">
       <use xlink:href="#DejaVuSans-49"/>
       <use x="63.623047" xlink:href="#DejaVuSans-46"/>
       <use x="95.410156" xlink:href="#DejaVuSans-48"/>
       <use x="159.033203" xlink:href="#DejaVuSans-48"/>
      </g>
     </g>
    </g>
    <g id="xtick_7">
     <g id="line2d_7">
      <g>
       <use style="stroke:#000000;stroke-width:0.8;" x="728.093671" xlink:href="#mf3bf42040f" y="282.799219"/>
      </g>
     </g>
     <g id="text_7">
      <!-- 1.25 -->
      <g transform="translate(716.960859 297.397656)scale(0.1 -0.1)">
       <use xlink:href="#DejaVuSans-49"/>
       <use x="63.623047" xlink:href="#DejaVuSans-46"/>
       <use x="95.410156" xlink:href="#DejaVuSans-50"/>
       <use x="159.033203" xlink:href="#DejaVuSans-53"/>
      </g>
     </g>
    </g>
    <g id="xtick_8">
     <g id="line2d_8">
      <g>
       <use style="stroke:#000000;stroke-width:0.8;" x="826.234375" xlink:href="#mf3bf42040f" y="282.799219"/>
      </g>
     </g>
     <g id="text_8">
      <!-- 1.50 -->
      <g transform="translate(815.101562 297.397656)scale(0.1 -0.1)">
       <use xlink:href="#DejaVuSans-49"/>
       <use x="63.623047" xlink:href="#DejaVuSans-46"/>
       <use x="95.410156" xlink:href="#DejaVuSans-53"/>
       <use x="159.033203" xlink:href="#DejaVuSans-48"/>
      </g>
     </g>
    </g>
    <g id="text_9">
     <!-- Temps peri-stimulus -->
     <defs>
      <path d="M -0.296875 72.90625 
L 61.375 72.90625 
L 61.375 64.59375 
L 35.5 64.59375 
L 35.5 0 
L 25.59375 0 
L 25.59375 64.59375 
L -0.296875 64.59375 
z
" id="DejaVuSans-84"/>
      <path d="M 56.203125 29.59375 
L 56.203125 25.203125 
L 14.890625 25.203125 
Q 15.484375 15.921875 20.484375 11.0625 
Q 25.484375 6.203125 34.421875 6.203125 
Q 39.59375 6.203125 44.453125 7.46875 
Q 49.3125 8.734375 54.109375 11.28125 
L 54.109375 2.78125 
Q 49.265625 0.734375 44.1875 -0.34375 
Q 39.109375 -1.421875 33.890625 -1.421875 
Q 20.796875 -1.421875 13.15625 6.1875 
Q 5.515625 13.8125 5.515625 26.8125 
Q 5.515625 40.234375 12.765625 48.109375 
Q 20.015625 56 32.328125 56 
Q 43.359375 56 49.78125 48.890625 
Q 56.203125 41.796875 56.203125 29.59375 
z
M 47.21875 32.234375 
Q 47.125 39.59375 43.09375 43.984375 
Q 39.0625 48.390625 32.421875 48.390625 
Q 24.90625 48.390625 20.390625 44.140625 
Q 15.875 39.890625 15.1875 32.171875 
z
" id="DejaVuSans-101"/>
      <path d="M 52 44.1875 
Q 55.375 50.25 60.0625 53.125 
Q 64.75 56 71.09375 56 
Q 79.640625 56 84.28125 50.015625 
Q 88.921875 44.046875 88.921875 33.015625 
L 88.921875 0 
L 79.890625 0 
L 79.890625 32.71875 
Q 79.890625 40.578125 77.09375 44.375 
Q 74.3125 48.1875 68.609375 48.1875 
Q 61.625 48.1875 57.5625 43.546875 
Q 53.515625 38.921875 53.515625 30.90625 
L 53.515625 0 
L 44.484375 0 
L 44.484375 32.71875 
Q 44.484375 40.625 41.703125 44.40625 
Q 38.921875 48.1875 33.109375 48.1875 
Q 26.21875 48.1875 22.15625 43.53125 
Q 18.109375 38.875 18.109375 30.90625 
L 18.109375 0 
L 9.078125 0 
L 9.078125 54.6875 
L 18.109375 54.6875 
L 18.109375 46.1875 
Q 21.1875 51.21875 25.484375 53.609375 
Q 29.78125 56 35.6875 56 
Q 41.65625 56 45.828125 52.96875 
Q 50 49.953125 52 44.1875 
z
" id="DejaVuSans-109"/>
      <path d="M 18.109375 8.203125 
L 18.109375 -20.796875 
L 9.078125 -20.796875 
L 9.078125 54.6875 
L 18.109375 54.6875 
L 18.109375 46.390625 
Q 20.953125 51.265625 25.265625 53.625 
Q 29.59375 56 35.59375 56 
Q 45.5625 56 51.78125 48.09375 
Q 58.015625 40.1875 58.015625 27.296875 
Q 58.015625 14.40625 51.78125 6.484375 
Q 45.5625 -1.421875 35.59375 -1.421875 
Q 29.59375 -1.421875 25.265625 0.953125 
Q 20.953125 3.328125 18.109375 8.203125 
z
M 48.6875 27.296875 
Q 48.6875 37.203125 44.609375 42.84375 
Q 40.53125 48.484375 33.40625 48.484375 
Q 26.265625 48.484375 22.1875 42.84375 
Q 18.109375 37.203125 18.109375 27.296875 
Q 18.109375 17.390625 22.1875 11.75 
Q 26.265625 6.109375 33.40625 6.109375 
Q 40.53125 6.109375 44.609375 11.75 
Q 48.6875 17.390625 48.6875 27.296875 
z
" id="DejaVuSans-112"/>
      <path d="M 44.28125 53.078125 
L 44.28125 44.578125 
Q 40.484375 46.53125 36.375 47.5 
Q 32.28125 48.484375 27.875 48.484375 
Q 21.1875 48.484375 17.84375 46.4375 
Q 14.5 44.390625 14.5 40.28125 
Q 14.5 37.15625 16.890625 35.375 
Q 19.28125 33.59375 26.515625 31.984375 
L 29.59375 31.296875 
Q 39.15625 29.25 43.1875 25.515625 
Q 47.21875 21.78125 47.21875 15.09375 
Q 47.21875 7.46875 41.1875 3.015625 
Q 35.15625 -1.421875 24.609375 -1.421875 
Q 20.21875 -1.421875 15.453125 -0.5625 
Q 10.6875 0.296875 5.421875 2 
L 5.421875 11.28125 
Q 10.40625 8.6875 15.234375 7.390625 
Q 20.0625 6.109375 24.8125 6.109375 
Q 31.15625 6.109375 34.5625 8.28125 
Q 37.984375 10.453125 37.984375 14.40625 
Q 37.984375 18.0625 35.515625 20.015625 
Q 33.0625 21.96875 24.703125 23.78125 
L 21.578125 24.515625 
Q 13.234375 26.265625 9.515625 29.90625 
Q 5.8125 33.546875 5.8125 39.890625 
Q 5.8125 47.609375 11.28125 51.796875 
Q 16.75 56 26.8125 56 
Q 31.78125 56 36.171875 55.265625 
Q 40.578125 54.546875 44.28125 53.078125 
z
" id="DejaVuSans-115"/>
      <path id="DejaVuSans-32"/>
      <path d="M 41.109375 46.296875 
Q 39.59375 47.171875 37.8125 47.578125 
Q 36.03125 48 33.890625 48 
Q 26.265625 48 22.1875 43.046875 
Q 18.109375 38.09375 18.109375 28.8125 
L 18.109375 0 
L 9.078125 0 
L 9.078125 54.6875 
L 18.109375 54.6875 
L 18.109375 46.1875 
Q 20.953125 51.171875 25.484375 53.578125 
Q 30.03125 56 36.53125 56 
Q 37.453125 56 38.578125 55.875 
Q 39.703125 55.765625 41.0625 55.515625 
z
" id="DejaVuSans-114"/>
      <path d="M 9.421875 54.6875 
L 18.40625 54.6875 
L 18.40625 0 
L 9.421875 0 
z
M 9.421875 75.984375 
L 18.40625 75.984375 
L 18.40625 64.59375 
L 9.421875 64.59375 
z
" id="DejaVuSans-105"/>
      <path d="M 4.890625 31.390625 
L 31.203125 31.390625 
L 31.203125 23.390625 
L 4.890625 23.390625 
z
" id="DejaVuSans-45"/>
      <path d="M 18.3125 70.21875 
L 18.3125 54.6875 
L 36.8125 54.6875 
L 36.8125 47.703125 
L 18.3125 47.703125 
L 18.3125 18.015625 
Q 18.3125 11.328125 20.140625 9.421875 
Q 21.96875 7.515625 27.59375 7.515625 
L 36.8125 7.515625 
L 36.8125 0 
L 27.59375 0 
Q 17.1875 0 13.234375 3.875 
Q 9.28125 7.765625 9.28125 18.015625 
L 9.28125 47.703125 
L 2.6875 47.703125 
L 2.6875 54.6875 
L 9.28125 54.6875 
L 9.28125 70.21875 
z
" id="DejaVuSans-116"/>
      <path d="M 8.5 21.578125 
L 8.5 54.6875 
L 17.484375 54.6875 
L 17.484375 21.921875 
Q 17.484375 14.15625 20.5 10.265625 
Q 23.53125 6.390625 29.59375 6.390625 
Q 36.859375 6.390625 41.078125 11.03125 
Q 45.3125 15.671875 45.3125 23.6875 
L 45.3125 54.6875 
L 54.296875 54.6875 
L 54.296875 0 
L 45.3125 0 
L 45.3125 8.40625 
Q 42.046875 3.421875 37.71875 1 
Q 33.40625 -1.421875 27.6875 -1.421875 
Q 18.265625 -1.421875 13.375 4.4375 
Q 8.5 10.296875 8.5 21.578125 
z
M 31.109375 56 
z
" id="DejaVuSans-117"/>
      <path d="M 9.421875 75.984375 
L 18.40625 75.984375 
L 18.40625 0 
L 9.421875 0 
z
" id="DejaVuSans-108"/>
     </defs>
     <g transform="translate(364.220156 314.115156)scale(0.14 -0.14)">
      <use xlink:href="#DejaVuSans-84"/>
      <use x="60.818359" xlink:href="#DejaVuSans-101"/>
      <use x="122.341797" xlink:href="#DejaVuSans-109"/>
      <use x="219.753906" xlink:href="#DejaVuSans-112"/>
      <use x="283.230469" xlink:href="#DejaVuSans-115"/>
      <use x="335.330078" xlink:href="#DejaVuSans-32"/>
      <use x="367.117188" xlink:href="#DejaVuSans-112"/>
      <use x="430.59375" xlink:href="#DejaVuSans-101"/>
      <use x="492.117188" xlink:href="#DejaVuSans-114"/>
      <use x="533.230469" xlink:href="#DejaVuSans-105"/>
      <use x="561.013672" xlink:href="#DejaVuSans-45"/>
      <use x="597.097656" xlink:href="#DejaVuSans-115"/>
      <use x="649.197266" xlink:href="#DejaVuSans-116"/>
      <use x="688.40625" xlink:href="#DejaVuSans-105"/>
      <use x="716.189453" xlink:href="#DejaVuSans-109"/>
      <use x="813.601562" xlink:href="#DejaVuSans-117"/>
      <use x="876.980469" xlink:href="#DejaVuSans-108"/>
      <use x="904.763672" xlink:href="#DejaVuSans-117"/>
      <use x="968.142578" xlink:href="#DejaVuSans-115"/>
     </g>
    </g>
   </g>
   <g id="matplotlib.axis_2">
    <g id="ytick_1">
     <g id="line2d_9">
      <defs>
       <path d="M 0 0 
L -3.5 0 
" id="m97bba3f9fe" style="stroke:#000000;stroke-width:0.8;"/>
      </defs>
      <g>
       <use style="stroke:#000000;stroke-width:0.8;" x="45.034375" xlink:href="#m97bba3f9fe" y="282.799219"/>
      </g>
     </g>
     <g id="text_10">
      <!-- 0 -->
      <g transform="translate(31.671875 286.598437)scale(0.1 -0.1)">
       <use xlink:href="#DejaVuSans-48"/>
      </g>
     </g>
    </g>
    <g id="ytick_2">
     <g id="line2d_10">
      <g>
       <use style="stroke:#000000;stroke-width:0.8;" x="45.034375" xlink:href="#m97bba3f9fe" y="248.824219"/>
      </g>
     </g>
     <g id="text_11">
      <!-- 5 -->
      <g transform="translate(31.671875 252.623437)scale(0.1 -0.1)">
       <use xlink:href="#DejaVuSans-53"/>
      </g>
     </g>
    </g>
    <g id="ytick_3">
     <g id="line2d_11">
      <g>
       <use style="stroke:#000000;stroke-width:0.8;" x="45.034375" xlink:href="#m97bba3f9fe" y="214.849219"/>
      </g>
     </g>
     <g id="text_12">
      <!-- 10 -->
      <g transform="translate(25.309375 218.648437)scale(0.1 -0.1)">
       <use xlink:href="#DejaVuSans-49"/>
       <use x="63.623047" xlink:href="#DejaVuSans-48"/>
      </g>
     </g>
    </g>
    <g id="ytick_4">
     <g id="line2d_12">
      <g>
       <use style="stroke:#000000;stroke-width:0.8;" x="45.034375" xlink:href="#m97bba3f9fe" y="180.874219"/>
      </g>
     </g>
     <g id="text_13">
      <!-- 15 -->
      <g transform="translate(25.309375 184.673437)scale(0.1 -0.1)">
       <use xlink:href="#DejaVuSans-49"/>
       <use x="63.623047" xlink:href="#DejaVuSans-53"/>
      </g>
     </g>
    </g>
    <g id="ytick_5">
     <g id="line2d_13">
      <g>
       <use style="stroke:#000000;stroke-width:0.8;" x="45.034375" xlink:href="#m97bba3f9fe" y="146.899219"/>
      </g>
     </g>
     <g id="text_14">
      <!-- 20 -->
      <g transform="translate(25.309375 150.698437)scale(0.1 -0.1)">
       <use xlink:href="#DejaVuSans-50"/>
       <use x="63.623047" xlink:href="#DejaVuSans-48"/>
      </g>
     </g>
    </g>
    <g id="ytick_6">
     <g id="line2d_14">
      <g>
       <use style="stroke:#000000;stroke-width:0.8;" x="45.034375" xlink:href="#m97bba3f9fe" y="112.924219"/>
      </g>
     </g>
     <g id="text_15">
      <!-- 25 -->
      <g transform="translate(25.309375 116.723437)scale(0.1 -0.1)">
       <use xlink:href="#DejaVuSans-50"/>
       <use x="63.623047" xlink:href="#DejaVuSans-53"/>
      </g>
     </g>
    </g>
    <g id="ytick_7">
     <g id="line2d_15">
      <g>
       <use style="stroke:#000000;stroke-width:0.8;" x="45.034375" xlink:href="#m97bba3f9fe" y="78.949219"/>
      </g>
     </g>
     <g id="text_16">
      <!-- 30 -->
      <defs>
       <path d="M 40.578125 39.3125 
Q 47.65625 37.796875 51.625 33 
Q 55.609375 28.21875 55.609375 21.1875 
Q 55.609375 10.40625 48.1875 4.484375 
Q 40.765625 -1.421875 27.09375 -1.421875 
Q 22.515625 -1.421875 17.65625 -0.515625 
Q 12.796875 0.390625 7.625 2.203125 
L 7.625 11.71875 
Q 11.71875 9.328125 16.59375 8.109375 
Q 21.484375 6.890625 26.8125 6.890625 
Q 36.078125 6.890625 40.9375 10.546875 
Q 45.796875 14.203125 45.796875 21.1875 
Q 45.796875 27.640625 41.28125 31.265625 
Q 36.765625 34.90625 28.71875 34.90625 
L 20.21875 34.90625 
L 20.21875 43.015625 
L 29.109375 43.015625 
Q 36.375 43.015625 40.234375 45.921875 
Q 44.09375 48.828125 44.09375 54.296875 
Q 44.09375 59.90625 40.109375 62.90625 
Q 36.140625 65.921875 28.71875 65.921875 
Q 24.65625 65.921875 20.015625 65.03125 
Q 15.375 64.15625 9.8125 62.3125 
L 9.8125 71.09375 
Q 15.4375 72.65625 20.34375 73.4375 
Q 25.25 74.21875 29.59375 74.21875 
Q 40.828125 74.21875 47.359375 69.109375 
Q 53.90625 64.015625 53.90625 55.328125 
Q 53.90625 49.265625 50.4375 45.09375 
Q 46.96875 40.921875 40.578125 39.3125 
z
" id="DejaVuSans-51"/>
      </defs>
      <g transform="translate(25.309375 82.748437)scale(0.1 -0.1)">
       <use xlink:href="#DejaVuSans-51"/>
       <use x="63.623047" xlink:href="#DejaVuSans-48"/>
      </g>
     </g>
    </g>
    <g id="ytick_8">
     <g id="line2d_16">
      <g>
       <use style="stroke:#000000;stroke-width:0.8;" x="45.034375" xlink:href="#m97bba3f9fe" y="44.974219"/>
      </g>
     </g>
     <g id="text_17">
      <!-- 35 -->
      <g transform="translate(25.309375 48.773438)scale(0.1 -0.1)">
       <use xlink:href="#DejaVuSans-51"/>
       <use x="63.623047" xlink:href="#DejaVuSans-53"/>
      </g>
     </g>
    </g>
    <g id="ytick_9">
     <g id="line2d_17">
      <g>
       <use style="stroke:#000000;stroke-width:0.8;" x="45.034375" xlink:href="#m97bba3f9fe" y="10.999219"/>
      </g>
     </g>
     <g id="text_18">
      <!-- 40 -->
      <defs>
       <path d="M 37.796875 64.3125 
L 12.890625 25.390625 
L 37.796875 25.390625 
z
M 35.203125 72.90625 
L 47.609375 72.90625 
L 47.609375 25.390625 
L 58.015625 25.390625 
L 58.015625 17.1875 
L 47.609375 17.1875 
L 47.609375 0 
L 37.796875 0 
L 37.796875 17.1875 
L 4.890625 17.1875 
L 4.890625 26.703125 
z
" id="DejaVuSans-52"/>
      </defs>
      <g transform="translate(25.309375 14.798437)scale(0.1 -0.1)">
       <use xlink:href="#DejaVuSans-52"/>
       <use x="63.623047" xlink:href="#DejaVuSans-48"/>
      </g>
     </g>
    </g>
    <g id="text_19">
     <!-- Fréquence de décharge (Hz) -->
     <defs>
      <path d="M 9.8125 72.90625 
L 51.703125 72.90625 
L 51.703125 64.59375 
L 19.671875 64.59375 
L 19.671875 43.109375 
L 48.578125 43.109375 
L 48.578125 34.8125 
L 19.671875 34.8125 
L 19.671875 0 
L 9.8125 0 
z
" id="DejaVuSans-70"/>
      <path d="M 56.203125 29.59375 
L 56.203125 25.203125 
L 14.890625 25.203125 
Q 15.484375 15.921875 20.484375 11.0625 
Q 25.484375 6.203125 34.421875 6.203125 
Q 39.59375 6.203125 44.453125 7.46875 
Q 49.3125 8.734375 54.109375 11.28125 
L 54.109375 2.78125 
Q 49.265625 0.734375 44.1875 -0.34375 
Q 39.109375 -1.421875 33.890625 -1.421875 
Q 20.796875 -1.421875 13.15625 6.1875 
Q 5.515625 13.8125 5.515625 26.8125 
Q 5.515625 40.234375 12.765625 48.109375 
Q 20.015625 56 32.328125 56 
Q 43.359375 56 49.78125 48.890625 
Q 56.203125 41.796875 56.203125 29.59375 
z
M 47.21875 32.234375 
Q 47.125 39.59375 43.09375 43.984375 
Q 39.0625 48.390625 32.421875 48.390625 
Q 24.90625 48.390625 20.390625 44.140625 
Q 15.875 39.890625 15.1875 32.171875 
z
M 38.53125 79.984375 
L 48.25 79.984375 
L 32.34375 61.625 
L 24.859375 61.625 
z
" id="DejaVuSans-233"/>
      <path d="M 14.796875 27.296875 
Q 14.796875 17.390625 18.875 11.75 
Q 22.953125 6.109375 30.078125 6.109375 
Q 37.203125 6.109375 41.296875 11.75 
Q 45.40625 17.390625 45.40625 27.296875 
Q 45.40625 37.203125 41.296875 42.84375 
Q 37.203125 48.484375 30.078125 48.484375 
Q 22.953125 48.484375 18.875 42.84375 
Q 14.796875 37.203125 14.796875 27.296875 
z
M 45.40625 8.203125 
Q 42.578125 3.328125 38.25 0.953125 
Q 33.9375 -1.421875 27.875 -1.421875 
Q 17.96875 -1.421875 11.734375 6.484375 
Q 5.515625 14.40625 5.515625 27.296875 
Q 5.515625 40.1875 11.734375 48.09375 
Q 17.96875 56 27.875 56 
Q 33.9375 56 38.25 53.625 
Q 42.578125 51.265625 45.40625 46.390625 
L 45.40625 54.6875 
L 54.390625 54.6875 
L 54.390625 -20.796875 
L 45.40625 -20.796875 
z
" id="DejaVuSans-113"/>
      <path d="M 54.890625 33.015625 
L 54.890625 0 
L 45.90625 0 
L 45.90625 32.71875 
Q 45.90625 40.484375 42.875 44.328125 
Q 39.84375 48.1875 33.796875 48.1875 
Q 26.515625 48.1875 22.3125 43.546875 
Q 18.109375 38.921875 18.109375 30.90625 
L 18.109375 0 
L 9.078125 0 
L 9.078125 54.6875 
L 18.109375 54.6875 
L 18.109375 46.1875 
Q 21.34375 51.125 25.703125 53.5625 
Q 30.078125 56 35.796875 56 
Q 45.21875 56 50.046875 50.171875 
Q 54.890625 44.34375 54.890625 33.015625 
z
" id="DejaVuSans-110"/>
      <path d="M 48.78125 52.59375 
L 48.78125 44.1875 
Q 44.96875 46.296875 41.140625 47.34375 
Q 37.3125 48.390625 33.40625 48.390625 
Q 24.65625 48.390625 19.8125 42.84375 
Q 14.984375 37.3125 14.984375 27.296875 
Q 14.984375 17.28125 19.8125 11.734375 
Q 24.65625 6.203125 33.40625 6.203125 
Q 37.3125 6.203125 41.140625 7.25 
Q 44.96875 8.296875 48.78125 10.40625 
L 48.78125 2.09375 
Q 45.015625 0.34375 40.984375 -0.53125 
Q 36.96875 -1.421875 32.421875 -1.421875 
Q 20.0625 -1.421875 12.78125 6.34375 
Q 5.515625 14.109375 5.515625 27.296875 
Q 5.515625 40.671875 12.859375 48.328125 
Q 20.21875 56 33.015625 56 
Q 37.15625 56 41.109375 55.140625 
Q 45.0625 54.296875 48.78125 52.59375 
z
" id="DejaVuSans-99"/>
      <path d="M 45.40625 46.390625 
L 45.40625 75.984375 
L 54.390625 75.984375 
L 54.390625 0 
L 45.40625 0 
L 45.40625 8.203125 
Q 42.578125 3.328125 38.25 0.953125 
Q 33.9375 -1.421875 27.875 -1.421875 
Q 17.96875 -1.421875 11.734375 6.484375 
Q 5.515625 14.40625 5.515625 27.296875 
Q 5.515625 40.1875 11.734375 48.09375 
Q 17.96875 56 27.875 56 
Q 33.9375 56 38.25 53.625 
Q 42.578125 51.265625 45.40625 46.390625 
z
M 14.796875 27.296875 
Q 14.796875 17.390625 18.875 11.75 
Q 22.953125 6.109375 30.078125 6.109375 
Q 37.203125 6.109375 41.296875 11.75 
Q 45.40625 17.390625 45.40625 27.296875 
Q 45.40625 37.203125 41.296875 42.84375 
Q 37.203125 48.484375 30.078125 48.484375 
Q 22.953125 48.484375 18.875 42.84375 
Q 14.796875 37.203125 14.796875 27.296875 
z
" id="DejaVuSans-100"/>
      <path d="M 54.890625 33.015625 
L 54.890625 0 
L 45.90625 0 
L 45.90625 32.71875 
Q 45.90625 40.484375 42.875 44.328125 
Q 39.84375 48.1875 33.796875 48.1875 
Q 26.515625 48.1875 22.3125 43.546875 
Q 18.109375 38.921875 18.109375 30.90625 
L 18.109375 0 
L 9.078125 0 
L 9.078125 75.984375 
L 18.109375 75.984375 
L 18.109375 46.1875 
Q 21.34375 51.125 25.703125 53.5625 
Q 30.078125 56 35.796875 56 
Q 45.21875 56 50.046875 50.171875 
Q 54.890625 44.34375 54.890625 33.015625 
z
" id="DejaVuSans-104"/>
      <path d="M 34.28125 27.484375 
Q 23.390625 27.484375 19.1875 25 
Q 14.984375 22.515625 14.984375 16.5 
Q 14.984375 11.71875 18.140625 8.90625 
Q 21.296875 6.109375 26.703125 6.109375 
Q 34.1875 6.109375 38.703125 11.40625 
Q 43.21875 16.703125 43.21875 25.484375 
L 43.21875 27.484375 
z
M 52.203125 31.203125 
L 52.203125 0 
L 43.21875 0 
L 43.21875 8.296875 
Q 40.140625 3.328125 35.546875 0.953125 
Q 30.953125 -1.421875 24.3125 -1.421875 
Q 15.921875 -1.421875 10.953125 3.296875 
Q 6 8.015625 6 15.921875 
Q 6 25.140625 12.171875 29.828125 
Q 18.359375 34.515625 30.609375 34.515625 
L 43.21875 34.515625 
L 43.21875 35.40625 
Q 43.21875 41.609375 39.140625 45 
Q 35.0625 48.390625 27.6875 48.390625 
Q 23 48.390625 18.546875 47.265625 
Q 14.109375 46.140625 10.015625 43.890625 
L 10.015625 52.203125 
Q 14.9375 54.109375 19.578125 55.046875 
Q 24.21875 56 28.609375 56 
Q 40.484375 56 46.34375 49.84375 
Q 52.203125 43.703125 52.203125 31.203125 
z
" id="DejaVuSans-97"/>
      <path d="M 45.40625 27.984375 
Q 45.40625 37.75 41.375 43.109375 
Q 37.359375 48.484375 30.078125 48.484375 
Q 22.859375 48.484375 18.828125 43.109375 
Q 14.796875 37.75 14.796875 27.984375 
Q 14.796875 18.265625 18.828125 12.890625 
Q 22.859375 7.515625 30.078125 7.515625 
Q 37.359375 7.515625 41.375 12.890625 
Q 45.40625 18.265625 45.40625 27.984375 
z
M 54.390625 6.78125 
Q 54.390625 -7.171875 48.1875 -13.984375 
Q 42 -20.796875 29.203125 -20.796875 
Q 24.46875 -20.796875 20.265625 -20.09375 
Q 16.0625 -19.390625 12.109375 -17.921875 
L 12.109375 -9.1875 
Q 16.0625 -11.328125 19.921875 -12.34375 
Q 23.78125 -13.375 27.78125 -13.375 
Q 36.625 -13.375 41.015625 -8.765625 
Q 45.40625 -4.15625 45.40625 5.171875 
L 45.40625 9.625 
Q 42.625 4.78125 38.28125 2.390625 
Q 33.9375 0 27.875 0 
Q 17.828125 0 11.671875 7.65625 
Q 5.515625 15.328125 5.515625 27.984375 
Q 5.515625 40.671875 11.671875 48.328125 
Q 17.828125 56 27.875 56 
Q 33.9375 56 38.28125 53.609375 
Q 42.625 51.21875 45.40625 46.390625 
L 45.40625 54.6875 
L 54.390625 54.6875 
z
" id="DejaVuSans-103"/>
      <path d="M 31 75.875 
Q 24.46875 64.65625 21.28125 53.65625 
Q 18.109375 42.671875 18.109375 31.390625 
Q 18.109375 20.125 21.3125 9.0625 
Q 24.515625 -2 31 -13.1875 
L 23.1875 -13.1875 
Q 15.875 -1.703125 12.234375 9.375 
Q 8.59375 20.453125 8.59375 31.390625 
Q 8.59375 42.28125 12.203125 53.3125 
Q 15.828125 64.359375 23.1875 75.875 
z
" id="DejaVuSans-40"/>
      <path d="M 9.8125 72.90625 
L 19.671875 72.90625 
L 19.671875 43.015625 
L 55.515625 43.015625 
L 55.515625 72.90625 
L 65.375 72.90625 
L 65.375 0 
L 55.515625 0 
L 55.515625 34.71875 
L 19.671875 34.71875 
L 19.671875 0 
L 9.8125 0 
z
" id="DejaVuSans-72"/>
      <path d="M 5.515625 54.6875 
L 48.1875 54.6875 
L 48.1875 46.484375 
L 14.40625 7.171875 
L 48.1875 7.171875 
L 48.1875 0 
L 4.296875 0 
L 4.296875 8.203125 
L 38.09375 47.515625 
L 5.515625 47.515625 
z
" id="DejaVuSans-122"/>
      <path d="M 8.015625 75.875 
L 15.828125 75.875 
Q 23.140625 64.359375 26.78125 53.3125 
Q 30.421875 42.28125 30.421875 31.390625 
Q 30.421875 20.453125 26.78125 9.375 
Q 23.140625 -1.703125 15.828125 -13.1875 
L 8.015625 -13.1875 
Q 14.5 -2 17.703125 9.0625 
Q 20.90625 20.125 20.90625 31.390625 
Q 20.90625 42.671875 17.703125 53.65625 
Q 14.5 64.65625 8.015625 75.875 
z
" id="DejaVuSans-41"/>
     </defs>
     <g transform="translate(18.397813 246.659062)rotate(-90)scale(0.14 -0.14)">
      <use xlink:href="#DejaVuSans-70"/>
      <use x="57.410156" xlink:href="#DejaVuSans-114"/>
      <use x="98.492188" xlink:href="#DejaVuSans-233"/>
      <use x="160.015625" xlink:href="#DejaVuSans-113"/>
      <use x="223.492188" xlink:href="#DejaVuSans-117"/>
      <use x="286.871094" xlink:href="#DejaVuSans-101"/>
      <use x="348.394531" xlink:href="#DejaVuSans-110"/>
      <use x="411.773438" xlink:href="#DejaVuSans-99"/>
      <use x="466.753906" xlink:href="#DejaVuSans-101"/>
      <use x="528.277344" xlink:href="#DejaVuSans-32"/>
      <use x="560.064453" xlink:href="#DejaVuSans-100"/>
      <use x="623.541016" xlink:href="#DejaVuSans-101"/>
      <use x="685.064453" xlink:href="#DejaVuSans-32"/>
      <use x="716.851562" xlink:href="#DejaVuSans-100"/>
      <use x="780.328125" xlink:href="#DejaVuSans-233"/>
      <use x="841.851562" xlink:href="#DejaVuSans-99"/>
      <use x="896.832031" xlink:href="#DejaVuSans-104"/>
      <use x="960.210938" xlink:href="#DejaVuSans-97"/>
      <use x="1021.490234" xlink:href="#DejaVuSans-114"/>
      <use x="1062.587891" xlink:href="#DejaVuSans-103"/>
      <use x="1126.064453" xlink:href="#DejaVuSans-101"/>
      <use x="1187.587891" xlink:href="#DejaVuSans-32"/>
      <use x="1219.375" xlink:href="#DejaVuSans-40"/>
      <use x="1258.388672" xlink:href="#DejaVuSans-72"/>
      <use x="1333.583984" xlink:href="#DejaVuSans-122"/>
      <use x="1386.074219" xlink:href="#DejaVuSans-41"/>
     </g>
    </g>
   </g>
   <g id="patch_203">
    <path d="M 45.034375 282.799219 
L 45.034375 10.999219 
" style="fill:none;stroke:#000000;stroke-linecap:square;stroke-linejoin:miter;stroke-width:0.8;"/>
   </g>
   <g id="patch_204">
    <path d="M 826.234375 282.799219 
L 826.234375 10.999219 
" style="fill:none;stroke:#000000;stroke-linecap:square;stroke-linejoin:miter;stroke-width:0.8;"/>
   </g>
   <g id="patch_205">
    <path d="M 45.034375 282.799219 
L 826.234375 282.799219 
" style="fill:none;stroke:#000000;stroke-linecap:square;stroke-linejoin:miter;stroke-width:0.8;"/>
   </g>
   <g id="patch_206">
    <path d="M 45.034375 10.999219 
L 826.234375 10.999219 
" style="fill:none;stroke:#000000;stroke-linecap:square;stroke-linejoin:miter;stroke-width:0.8;"/>
   </g>
  </g>
 </g>
 <defs>
  <clipPath id="p27fa973db1">
   <rect height="271.8" width="781.2" x="45.034375" y="10.999219"/>
  </clipPath>
 </defs>
</svg>
