<?xml version="1.0" encoding="utf-8" standalone="no"?>
<!DOCTYPE svg PUBLIC "-//W3C//DTD SVG 1.1//EN"
  "http://www.w3.org/Graphics/SVG/1.1/DTD/svg11.dtd">
<!-- Created with matplotlib (https://matplotlib.org/) -->
<svg height="295.878125pt" version="1.1" viewBox="0 0 818.825 295.878125" width="818.825pt" xmlns="http://www.w3.org/2000/svg" xmlns:xlink="http://www.w3.org/1999/xlink">
 <defs>
  <style type="text/css">
*{stroke-linecap:butt;stroke-linejoin:round;}
  </style>
 </defs>
 <g id="figure_1">
  <g id="patch_1">
   <path d="M 0 295.878125 
L 818.825 295.878125 
L 818.825 0 
L 0 0 
z
" style="fill:none;"/>
  </g>
  <g id="axes_1">
   <g id="patch_2">
    <path d="M 26.925 282.799219 
L 808.125 282.799219 
L 808.125 10.999219 
L 26.925 10.999219 
z
" style="fill:none;"/>
   </g>
   <g id="patch_3">
    <path clip-path="url(#pd048269ad4)" d="M 22.999372 282.799219 
L 26.916887 282.799219 
L 26.916887 -118.105781 
L 22.999372 -118.105781 
z
"/>
   </g>
   <g id="patch_4">
    <path clip-path="url(#pd048269ad4)" d="M 26.916887 282.799219 
L 30.834402 282.799219 
L 30.834402 160.489219 
L 26.916887 160.489219 
z
"/>
   </g>
   <g id="patch_5">
    <path clip-path="url(#pd048269ad4)" d="M 30.834402 282.799219 
L 34.751917 282.799219 
L 34.751917 180.874219 
L 30.834402 180.874219 
z
"/>
   </g>
   <g id="patch_6">
    <path clip-path="url(#pd048269ad4)" d="M 34.751917 282.799219 
L 38.669433 282.799219 
L 38.669433 194.464219 
L 34.751917 194.464219 
z
"/>
   </g>
   <g id="patch_7">
    <path clip-path="url(#pd048269ad4)" d="M 38.669433 282.799219 
L 42.586948 282.799219 
L 42.586948 167.284219 
L 38.669433 167.284219 
z
"/>
   </g>
   <g id="patch_8">
    <path clip-path="url(#pd048269ad4)" d="M 42.586948 282.799219 
L 46.504463 282.799219 
L 46.504463 201.259219 
L 42.586948 201.259219 
z
"/>
   </g>
   <g id="patch_9">
    <path clip-path="url(#pd048269ad4)" d="M 46.504463 282.799219 
L 50.421978 282.799219 
L 50.421978 180.874219 
L 46.504463 180.874219 
z
"/>
   </g>
   <g id="patch_10">
    <path clip-path="url(#pd048269ad4)" d="M 50.421978 282.799219 
L 54.339493 282.799219 
L 54.339493 214.849219 
L 50.421978 214.849219 
z
"/>
   </g>
   <g id="patch_11">
    <path clip-path="url(#pd048269ad4)" d="M 54.339493 282.799219 
L 58.257008 282.799219 
L 58.257008 269.209219 
L 54.339493 269.209219 
z
"/>
   </g>
   <g id="patch_12">
    <path clip-path="url(#pd048269ad4)" d="M 58.257008 282.799219 
L 62.174524 282.799219 
L 62.174524 242.029219 
L 58.257008 242.029219 
z
"/>
   </g>
   <g id="patch_13">
    <path clip-path="url(#pd048269ad4)" d="M 62.174524 282.799219 
L 66.092039 282.799219 
L 66.092039 208.054219 
L 62.174524 208.054219 
z
"/>
   </g>
   <g id="patch_14">
    <path clip-path="url(#pd048269ad4)" d="M 66.092039 282.799219 
L 70.009554 282.799219 
L 70.009554 248.824219 
L 66.092039 248.824219 
z
"/>
   </g>
   <g id="patch_15">
    <path clip-path="url(#pd048269ad4)" d="M 70.009554 282.799219 
L 73.927069 282.799219 
L 73.927069 248.824219 
L 70.009554 248.824219 
z
"/>
   </g>
   <g id="patch_16">
    <path clip-path="url(#pd048269ad4)" d="M 73.927069 282.799219 
L 77.844584 282.799219 
L 77.844584 248.824219 
L 73.927069 248.824219 
z
"/>
   </g>
   <g id="patch_17">
    <path clip-path="url(#pd048269ad4)" d="M 77.844584 282.799219 
L 81.762099 282.799219 
L 81.762099 269.209219 
L 77.844584 269.209219 
z
"/>
   </g>
   <g id="patch_18">
    <path clip-path="url(#pd048269ad4)" d="M 81.762099 282.799219 
L 85.679615 282.799219 
L 85.679615 255.619219 
L 81.762099 255.619219 
z
"/>
   </g>
   <g id="patch_19">
    <path clip-path="url(#pd048269ad4)" d="M 85.679615 282.799219 
L 89.59713 282.799219 
L 89.59713 262.414219 
L 85.679615 262.414219 
z
"/>
   </g>
   <g id="patch_20">
    <path clip-path="url(#pd048269ad4)" d="M 89.59713 282.799219 
L 93.514645 282.799219 
L 93.514645 248.824219 
L 89.59713 248.824219 
z
"/>
   </g>
   <g id="patch_21">
    <path clip-path="url(#pd048269ad4)" d="M 93.514645 282.799219 
L 97.43216 282.799219 
L 97.43216 235.234219 
L 93.514645 235.234219 
z
"/>
   </g>
   <g id="patch_22">
    <path clip-path="url(#pd048269ad4)" d="M 97.43216 282.799219 
L 101.349675 282.799219 
L 101.349675 221.644219 
L 97.43216 221.644219 
z
"/>
   </g>
   <g id="patch_23">
    <path clip-path="url(#pd048269ad4)" d="M 101.349675 282.799219 
L 105.267191 282.799219 
L 105.267191 208.054219 
L 101.349675 208.054219 
z
"/>
   </g>
   <g id="patch_24">
    <path clip-path="url(#pd048269ad4)" d="M 105.267191 282.799219 
L 109.184706 282.799219 
L 109.184706 235.234219 
L 105.267191 235.234219 
z
"/>
   </g>
   <g id="patch_25">
    <path clip-path="url(#pd048269ad4)" d="M 109.184706 282.799219 
L 113.102221 282.799219 
L 113.102221 262.414219 
L 109.184706 262.414219 
z
"/>
   </g>
   <g id="patch_26">
    <path clip-path="url(#pd048269ad4)" d="M 113.102221 282.799219 
L 117.019736 282.799219 
L 117.019736 242.029219 
L 113.102221 242.029219 
z
"/>
   </g>
   <g id="patch_27">
    <path clip-path="url(#pd048269ad4)" d="M 117.019736 282.799219 
L 120.937251 282.799219 
L 120.937251 228.439219 
L 117.019736 228.439219 
z
"/>
   </g>
   <g id="patch_28">
    <path clip-path="url(#pd048269ad4)" d="M 120.937251 282.799219 
L 124.854766 282.799219 
L 124.854766 228.439219 
L 120.937251 228.439219 
z
"/>
   </g>
   <g id="patch_29">
    <path clip-path="url(#pd048269ad4)" d="M 124.854766 282.799219 
L 128.772282 282.799219 
L 128.772282 248.824219 
L 124.854766 248.824219 
z
"/>
   </g>
   <g id="patch_30">
    <path clip-path="url(#pd048269ad4)" d="M 128.772282 282.799219 
L 132.689797 282.799219 
L 132.689797 262.414219 
L 128.772282 262.414219 
z
"/>
   </g>
   <g id="patch_31">
    <path clip-path="url(#pd048269ad4)" d="M 132.689797 282.799219 
L 136.607312 282.799219 
L 136.607312 255.619219 
L 132.689797 255.619219 
z
"/>
   </g>
   <g id="patch_32">
    <path clip-path="url(#pd048269ad4)" d="M 136.607312 282.799219 
L 140.524827 282.799219 
L 140.524827 214.849219 
L 136.607312 214.849219 
z
"/>
   </g>
   <g id="patch_33">
    <path clip-path="url(#pd048269ad4)" d="M 140.524827 282.799219 
L 144.442342 282.799219 
L 144.442342 262.414219 
L 140.524827 262.414219 
z
"/>
   </g>
   <g id="patch_34">
    <path clip-path="url(#pd048269ad4)" d="M 144.442342 282.799219 
L 148.359857 282.799219 
L 148.359857 228.439219 
L 144.442342 228.439219 
z
"/>
   </g>
   <g id="patch_35">
    <path clip-path="url(#pd048269ad4)" d="M 148.359857 282.799219 
L 152.277373 282.799219 
L 152.277373 262.414219 
L 148.359857 262.414219 
z
"/>
   </g>
   <g id="patch_36">
    <path clip-path="url(#pd048269ad4)" d="M 152.277373 282.799219 
L 156.194888 282.799219 
L 156.194888 255.619219 
L 152.277373 255.619219 
z
"/>
   </g>
   <g id="patch_37">
    <path clip-path="url(#pd048269ad4)" d="M 156.194888 282.799219 
L 160.112403 282.799219 
L 160.112403 248.824219 
L 156.194888 248.824219 
z
"/>
   </g>
   <g id="patch_38">
    <path clip-path="url(#pd048269ad4)" d="M 160.112403 282.799219 
L 164.029918 282.799219 
L 164.029918 269.209219 
L 160.112403 269.209219 
z
"/>
   </g>
   <g id="patch_39">
    <path clip-path="url(#pd048269ad4)" d="M 164.029918 282.799219 
L 167.947433 282.799219 
L 167.947433 242.029219 
L 164.029918 242.029219 
z
"/>
   </g>
   <g id="patch_40">
    <path clip-path="url(#pd048269ad4)" d="M 167.947433 282.799219 
L 171.864949 282.799219 
L 171.864949 262.414219 
L 167.947433 262.414219 
z
"/>
   </g>
   <g id="patch_41">
    <path clip-path="url(#pd048269ad4)" d="M 171.864949 282.799219 
L 175.782464 282.799219 
L 175.782464 276.004219 
L 171.864949 276.004219 
z
"/>
   </g>
   <g id="patch_42">
    <path clip-path="url(#pd048269ad4)" d="M 175.782464 282.799219 
L 179.699979 282.799219 
L 179.699979 242.029219 
L 175.782464 242.029219 
z
"/>
   </g>
   <g id="patch_43">
    <path clip-path="url(#pd048269ad4)" d="M 179.699979 282.799219 
L 183.617494 282.799219 
L 183.617494 255.619219 
L 179.699979 255.619219 
z
"/>
   </g>
   <g id="patch_44">
    <path clip-path="url(#pd048269ad4)" d="M 183.617494 282.799219 
L 187.535009 282.799219 
L 187.535009 262.414219 
L 183.617494 262.414219 
z
"/>
   </g>
   <g id="patch_45">
    <path clip-path="url(#pd048269ad4)" d="M 187.535009 282.799219 
L 191.452524 282.799219 
L 191.452524 221.644219 
L 187.535009 221.644219 
z
"/>
   </g>
   <g id="patch_46">
    <path clip-path="url(#pd048269ad4)" d="M 191.452524 282.799219 
L 195.37004 282.799219 
L 195.37004 255.619219 
L 191.452524 255.619219 
z
"/>
   </g>
   <g id="patch_47">
    <path clip-path="url(#pd048269ad4)" d="M 195.37004 282.799219 
L 199.287555 282.799219 
L 199.287555 228.439219 
L 195.37004 228.439219 
z
"/>
   </g>
   <g id="patch_48">
    <path clip-path="url(#pd048269ad4)" d="M 199.287555 282.799219 
L 203.20507 282.799219 
L 203.20507 208.054219 
L 199.287555 208.054219 
z
"/>
   </g>
   <g id="patch_49">
    <path clip-path="url(#pd048269ad4)" d="M 203.20507 282.799219 
L 207.122585 282.799219 
L 207.122585 235.234219 
L 203.20507 235.234219 
z
"/>
   </g>
   <g id="patch_50">
    <path clip-path="url(#pd048269ad4)" d="M 207.122585 282.799219 
L 211.0401 282.799219 
L 211.0401 208.054219 
L 207.122585 208.054219 
z
"/>
   </g>
   <g id="patch_51">
    <path clip-path="url(#pd048269ad4)" d="M 211.0401 282.799219 
L 214.957615 282.799219 
L 214.957615 180.874219 
L 211.0401 180.874219 
z
"/>
   </g>
   <g id="patch_52">
    <path clip-path="url(#pd048269ad4)" d="M 214.957615 282.799219 
L 218.875131 282.799219 
L 218.875131 228.439219 
L 214.957615 228.439219 
z
"/>
   </g>
   <g id="patch_53">
    <path clip-path="url(#pd048269ad4)" d="M 218.875131 282.799219 
L 222.792646 282.799219 
L 222.792646 187.669219 
L 218.875131 187.669219 
z
"/>
   </g>
   <g id="patch_54">
    <path clip-path="url(#pd048269ad4)" d="M 222.792646 282.799219 
L 226.710161 282.799219 
L 226.710161 248.824219 
L 222.792646 248.824219 
z
"/>
   </g>
   <g id="patch_55">
    <path clip-path="url(#pd048269ad4)" d="M 226.710161 282.799219 
L 230.627676 282.799219 
L 230.627676 269.209219 
L 226.710161 269.209219 
z
"/>
   </g>
   <g id="patch_56">
    <path clip-path="url(#pd048269ad4)" d="M 230.627676 282.799219 
L 234.545191 282.799219 
L 234.545191 262.414219 
L 230.627676 262.414219 
z
"/>
   </g>
   <g id="patch_57">
    <path clip-path="url(#pd048269ad4)" d="M 234.545191 282.799219 
L 238.462707 282.799219 
L 238.462707 262.414219 
L 234.545191 262.414219 
z
"/>
   </g>
   <g id="patch_58">
    <path clip-path="url(#pd048269ad4)" d="M 238.462707 282.799219 
L 242.380222 282.799219 
L 242.380222 269.209219 
L 238.462707 269.209219 
z
"/>
   </g>
   <g id="patch_59">
    <path clip-path="url(#pd048269ad4)" d="M 242.380222 282.799219 
L 246.297737 282.799219 
L 246.297737 276.004219 
L 242.380222 276.004219 
z
"/>
   </g>
   <g id="patch_60">
    <path clip-path="url(#pd048269ad4)" d="M 246.297737 282.799219 
L 250.215252 282.799219 
L 250.215252 235.234219 
L 246.297737 235.234219 
z
"/>
   </g>
   <g id="patch_61">
    <path clip-path="url(#pd048269ad4)" d="M 250.215252 282.799219 
L 254.132767 282.799219 
L 254.132767 276.004219 
L 250.215252 276.004219 
z
"/>
   </g>
   <g id="patch_62">
    <path clip-path="url(#pd048269ad4)" d="M 254.132767 282.799219 
L 258.050282 282.799219 
L 258.050282 228.439219 
L 254.132767 228.439219 
z
"/>
   </g>
   <g id="patch_63">
    <path clip-path="url(#pd048269ad4)" d="M 258.050282 282.799219 
L 261.967798 282.799219 
L 261.967798 242.029219 
L 258.050282 242.029219 
z
"/>
   </g>
   <g id="patch_64">
    <path clip-path="url(#pd048269ad4)" d="M 261.967798 282.799219 
L 265.885313 282.799219 
L 265.885313 235.234219 
L 261.967798 235.234219 
z
"/>
   </g>
   <g id="patch_65">
    <path clip-path="url(#pd048269ad4)" d="M 265.885313 282.799219 
L 269.802828 282.799219 
L 269.802828 262.414219 
L 265.885313 262.414219 
z
"/>
   </g>
   <g id="patch_66">
    <path clip-path="url(#pd048269ad4)" d="M 269.802828 282.799219 
L 273.720343 282.799219 
L 273.720343 276.004219 
L 269.802828 276.004219 
z
"/>
   </g>
   <g id="patch_67">
    <path clip-path="url(#pd048269ad4)" d="M 273.720343 282.799219 
L 277.637858 282.799219 
L 277.637858 255.619219 
L 273.720343 255.619219 
z
"/>
   </g>
   <g id="patch_68">
    <path clip-path="url(#pd048269ad4)" d="M 277.637858 282.799219 
L 281.555373 282.799219 
L 281.555373 262.414219 
L 277.637858 262.414219 
z
"/>
   </g>
   <g id="patch_69">
    <path clip-path="url(#pd048269ad4)" d="M 281.555373 282.799219 
L 285.472889 282.799219 
L 285.472889 228.439219 
L 281.555373 228.439219 
z
"/>
   </g>
   <g id="patch_70">
    <path clip-path="url(#pd048269ad4)" d="M 285.472889 282.799219 
L 289.390404 282.799219 
L 289.390404 248.824219 
L 285.472889 248.824219 
z
"/>
   </g>
   <g id="patch_71">
    <path clip-path="url(#pd048269ad4)" d="M 289.390404 282.799219 
L 293.307919 282.799219 
L 293.307919 248.824219 
L 289.390404 248.824219 
z
"/>
   </g>
   <g id="patch_72">
    <path clip-path="url(#pd048269ad4)" d="M 293.307919 282.799219 
L 297.225434 282.799219 
L 297.225434 269.209219 
L 293.307919 269.209219 
z
"/>
   </g>
   <g id="patch_73">
    <path clip-path="url(#pd048269ad4)" d="M 297.225434 282.799219 
L 301.142949 282.799219 
L 301.142949 282.799219 
L 297.225434 282.799219 
z
"/>
   </g>
   <g id="patch_74">
    <path clip-path="url(#pd048269ad4)" d="M 301.142949 282.799219 
L 305.060465 282.799219 
L 305.060465 276.004219 
L 301.142949 276.004219 
z
"/>
   </g>
   <g id="patch_75">
    <path clip-path="url(#pd048269ad4)" d="M 305.060465 282.799219 
L 308.97798 282.799219 
L 308.97798 262.414219 
L 305.060465 262.414219 
z
"/>
   </g>
   <g id="patch_76">
    <path clip-path="url(#pd048269ad4)" d="M 308.97798 282.799219 
L 312.895495 282.799219 
L 312.895495 262.414219 
L 308.97798 262.414219 
z
"/>
   </g>
   <g id="patch_77">
    <path clip-path="url(#pd048269ad4)" d="M 312.895495 282.799219 
L 316.81301 282.799219 
L 316.81301 282.799219 
L 312.895495 282.799219 
z
"/>
   </g>
   <g id="patch_78">
    <path clip-path="url(#pd048269ad4)" d="M 316.81301 282.799219 
L 320.730525 282.799219 
L 320.730525 269.209219 
L 316.81301 269.209219 
z
"/>
   </g>
   <g id="patch_79">
    <path clip-path="url(#pd048269ad4)" d="M 320.730525 282.799219 
L 324.64804 282.799219 
L 324.64804 248.824219 
L 320.730525 248.824219 
z
"/>
   </g>
   <g id="patch_80">
    <path clip-path="url(#pd048269ad4)" d="M 324.64804 282.799219 
L 328.565556 282.799219 
L 328.565556 276.004219 
L 324.64804 276.004219 
z
"/>
   </g>
   <g id="patch_81">
    <path clip-path="url(#pd048269ad4)" d="M 328.565556 282.799219 
L 332.483071 282.799219 
L 332.483071 262.414219 
L 328.565556 262.414219 
z
"/>
   </g>
   <g id="patch_82">
    <path clip-path="url(#pd048269ad4)" d="M 332.483071 282.799219 
L 336.400586 282.799219 
L 336.400586 255.619219 
L 332.483071 255.619219 
z
"/>
   </g>
   <g id="patch_83">
    <path clip-path="url(#pd048269ad4)" d="M 336.400586 282.799219 
L 340.318101 282.799219 
L 340.318101 269.209219 
L 336.400586 269.209219 
z
"/>
   </g>
   <g id="patch_84">
    <path clip-path="url(#pd048269ad4)" d="M 340.318101 282.799219 
L 344.235616 282.799219 
L 344.235616 242.029219 
L 340.318101 242.029219 
z
"/>
   </g>
   <g id="patch_85">
    <path clip-path="url(#pd048269ad4)" d="M 344.235616 282.799219 
L 348.153131 282.799219 
L 348.153131 262.414219 
L 344.235616 262.414219 
z
"/>
   </g>
   <g id="patch_86">
    <path clip-path="url(#pd048269ad4)" d="M 348.153131 282.799219 
L 352.070647 282.799219 
L 352.070647 276.004219 
L 348.153131 276.004219 
z
"/>
   </g>
   <g id="patch_87">
    <path clip-path="url(#pd048269ad4)" d="M 352.070647 282.799219 
L 355.988162 282.799219 
L 355.988162 201.259219 
L 352.070647 201.259219 
z
"/>
   </g>
   <g id="patch_88">
    <path clip-path="url(#pd048269ad4)" d="M 355.988162 282.799219 
L 359.905677 282.799219 
L 359.905677 214.849219 
L 355.988162 214.849219 
z
"/>
   </g>
   <g id="patch_89">
    <path clip-path="url(#pd048269ad4)" d="M 359.905677 282.799219 
L 363.823192 282.799219 
L 363.823192 228.439219 
L 359.905677 228.439219 
z
"/>
   </g>
   <g id="patch_90">
    <path clip-path="url(#pd048269ad4)" d="M 363.823192 282.799219 
L 367.740707 282.799219 
L 367.740707 255.619219 
L 363.823192 255.619219 
z
"/>
   </g>
   <g id="patch_91">
    <path clip-path="url(#pd048269ad4)" d="M 367.740707 282.799219 
L 371.658223 282.799219 
L 371.658223 255.619219 
L 367.740707 255.619219 
z
"/>
   </g>
   <g id="patch_92">
    <path clip-path="url(#pd048269ad4)" d="M 371.658223 282.799219 
L 375.575738 282.799219 
L 375.575738 242.029219 
L 371.658223 242.029219 
z
"/>
   </g>
   <g id="patch_93">
    <path clip-path="url(#pd048269ad4)" d="M 375.575738 282.799219 
L 379.493253 282.799219 
L 379.493253 248.824219 
L 375.575738 248.824219 
z
"/>
   </g>
   <g id="patch_94">
    <path clip-path="url(#pd048269ad4)" d="M 379.493253 282.799219 
L 383.410768 282.799219 
L 383.410768 269.209219 
L 379.493253 269.209219 
z
"/>
   </g>
   <g id="patch_95">
    <path clip-path="url(#pd048269ad4)" d="M 383.410768 282.799219 
L 387.328283 282.799219 
L 387.328283 255.619219 
L 383.410768 255.619219 
z
"/>
   </g>
   <g id="patch_96">
    <path clip-path="url(#pd048269ad4)" d="M 387.328283 282.799219 
L 391.245798 282.799219 
L 391.245798 194.464219 
L 387.328283 194.464219 
z
"/>
   </g>
   <g id="patch_97">
    <path clip-path="url(#pd048269ad4)" d="M 391.245798 282.799219 
L 395.163314 282.799219 
L 395.163314 235.234219 
L 391.245798 235.234219 
z
"/>
   </g>
   <g id="patch_98">
    <path clip-path="url(#pd048269ad4)" d="M 395.163314 282.799219 
L 399.080829 282.799219 
L 399.080829 221.644219 
L 395.163314 221.644219 
z
"/>
   </g>
   <g id="patch_99">
    <path clip-path="url(#pd048269ad4)" d="M 399.080829 282.799219 
L 402.998344 282.799219 
L 402.998344 242.029219 
L 399.080829 242.029219 
z
"/>
   </g>
   <g id="patch_100">
    <path clip-path="url(#pd048269ad4)" d="M 402.998344 282.799219 
L 406.915859 282.799219 
L 406.915859 235.234219 
L 402.998344 235.234219 
z
"/>
   </g>
   <g id="patch_101">
    <path clip-path="url(#pd048269ad4)" d="M 406.915859 282.799219 
L 410.833374 282.799219 
L 410.833374 208.054219 
L 406.915859 208.054219 
z
"/>
   </g>
   <g id="patch_102">
    <path clip-path="url(#pd048269ad4)" d="M 410.833374 282.799219 
L 414.750889 282.799219 
L 414.750889 194.464219 
L 410.833374 194.464219 
z
"/>
   </g>
   <g id="patch_103">
    <path clip-path="url(#pd048269ad4)" d="M 414.750889 282.799219 
L 418.668405 282.799219 
L 418.668405 235.234219 
L 414.750889 235.234219 
z
"/>
   </g>
   <g id="patch_104">
    <path clip-path="url(#pd048269ad4)" d="M 418.668405 282.799219 
L 422.58592 282.799219 
L 422.58592 242.029219 
L 418.668405 242.029219 
z
"/>
   </g>
   <g id="patch_105">
    <path clip-path="url(#pd048269ad4)" d="M 422.58592 282.799219 
L 426.503435 282.799219 
L 426.503435 235.234219 
L 422.58592 235.234219 
z
"/>
   </g>
   <g id="patch_106">
    <path clip-path="url(#pd048269ad4)" d="M 426.503435 282.799219 
L 430.42095 282.799219 
L 430.42095 262.414219 
L 426.503435 262.414219 
z
"/>
   </g>
   <g id="patch_107">
    <path clip-path="url(#pd048269ad4)" d="M 430.42095 282.799219 
L 434.338465 282.799219 
L 434.338465 262.414219 
L 430.42095 262.414219 
z
"/>
   </g>
   <g id="patch_108">
    <path clip-path="url(#pd048269ad4)" d="M 434.338465 282.799219 
L 438.255981 282.799219 
L 438.255981 248.824219 
L 434.338465 248.824219 
z
"/>
   </g>
   <g id="patch_109">
    <path clip-path="url(#pd048269ad4)" d="M 438.255981 282.799219 
L 442.173496 282.799219 
L 442.173496 255.619219 
L 438.255981 255.619219 
z
"/>
   </g>
   <g id="patch_110">
    <path clip-path="url(#pd048269ad4)" d="M 442.173496 282.799219 
L 446.091011 282.799219 
L 446.091011 262.414219 
L 442.173496 262.414219 
z
"/>
   </g>
   <g id="patch_111">
    <path clip-path="url(#pd048269ad4)" d="M 446.091011 282.799219 
L 450.008526 282.799219 
L 450.008526 221.644219 
L 446.091011 221.644219 
z
"/>
   </g>
   <g id="patch_112">
    <path clip-path="url(#pd048269ad4)" d="M 450.008526 282.799219 
L 453.926041 282.799219 
L 453.926041 214.849219 
L 450.008526 214.849219 
z
"/>
   </g>
   <g id="patch_113">
    <path clip-path="url(#pd048269ad4)" d="M 453.926041 282.799219 
L 457.843556 282.799219 
L 457.843556 255.619219 
L 453.926041 255.619219 
z
"/>
   </g>
   <g id="patch_114">
    <path clip-path="url(#pd048269ad4)" d="M 457.843556 282.799219 
L 461.761072 282.799219 
L 461.761072 248.824219 
L 457.843556 248.824219 
z
"/>
   </g>
   <g id="patch_115">
    <path clip-path="url(#pd048269ad4)" d="M 461.761072 282.799219 
L 465.678587 282.799219 
L 465.678587 248.824219 
L 461.761072 248.824219 
z
"/>
   </g>
   <g id="patch_116">
    <path clip-path="url(#pd048269ad4)" d="M 465.678587 282.799219 
L 469.596102 282.799219 
L 469.596102 208.054219 
L 465.678587 208.054219 
z
"/>
   </g>
   <g id="patch_117">
    <path clip-path="url(#pd048269ad4)" d="M 469.596102 282.799219 
L 473.513617 282.799219 
L 473.513617 235.234219 
L 469.596102 235.234219 
z
"/>
   </g>
   <g id="patch_118">
    <path clip-path="url(#pd048269ad4)" d="M 473.513617 282.799219 
L 477.431132 282.799219 
L 477.431132 262.414219 
L 473.513617 262.414219 
z
"/>
   </g>
   <g id="patch_119">
    <path clip-path="url(#pd048269ad4)" d="M 477.431132 282.799219 
L 481.348647 282.799219 
L 481.348647 201.259219 
L 477.431132 201.259219 
z
"/>
   </g>
   <g id="patch_120">
    <path clip-path="url(#pd048269ad4)" d="M 481.348647 282.799219 
L 485.266163 282.799219 
L 485.266163 214.849219 
L 481.348647 214.849219 
z
"/>
   </g>
   <g id="patch_121">
    <path clip-path="url(#pd048269ad4)" d="M 485.266163 282.799219 
L 489.183678 282.799219 
L 489.183678 228.439219 
L 485.266163 228.439219 
z
"/>
   </g>
   <g id="patch_122">
    <path clip-path="url(#pd048269ad4)" d="M 489.183678 282.799219 
L 493.101193 282.799219 
L 493.101193 242.029219 
L 489.183678 242.029219 
z
"/>
   </g>
   <g id="patch_123">
    <path clip-path="url(#pd048269ad4)" d="M 493.101193 282.799219 
L 497.018708 282.799219 
L 497.018708 214.849219 
L 493.101193 214.849219 
z
"/>
   </g>
   <g id="patch_124">
    <path clip-path="url(#pd048269ad4)" d="M 497.018708 282.799219 
L 500.936223 282.799219 
L 500.936223 248.824219 
L 497.018708 248.824219 
z
"/>
   </g>
   <g id="patch_125">
    <path clip-path="url(#pd048269ad4)" d="M 500.936223 282.799219 
L 504.853738 282.799219 
L 504.853738 282.799219 
L 500.936223 282.799219 
z
"/>
   </g>
   <g id="patch_126">
    <path clip-path="url(#pd048269ad4)" d="M 504.853738 282.799219 
L 508.771254 282.799219 
L 508.771254 255.619219 
L 504.853738 255.619219 
z
"/>
   </g>
   <g id="patch_127">
    <path clip-path="url(#pd048269ad4)" d="M 508.771254 282.799219 
L 512.688769 282.799219 
L 512.688769 262.414219 
L 508.771254 262.414219 
z
"/>
   </g>
   <g id="patch_128">
    <path clip-path="url(#pd048269ad4)" d="M 512.688769 282.799219 
L 516.606284 282.799219 
L 516.606284 276.004219 
L 512.688769 276.004219 
z
"/>
   </g>
   <g id="patch_129">
    <path clip-path="url(#pd048269ad4)" d="M 516.606284 282.799219 
L 520.523799 282.799219 
L 520.523799 269.209219 
L 516.606284 269.209219 
z
"/>
   </g>
   <g id="patch_130">
    <path clip-path="url(#pd048269ad4)" d="M 520.523799 282.799219 
L 524.441314 282.799219 
L 524.441314 262.414219 
L 520.523799 262.414219 
z
"/>
   </g>
   <g id="patch_131">
    <path clip-path="url(#pd048269ad4)" d="M 524.441314 282.799219 
L 528.35883 282.799219 
L 528.35883 262.414219 
L 524.441314 262.414219 
z
"/>
   </g>
   <g id="patch_132">
    <path clip-path="url(#pd048269ad4)" d="M 528.35883 282.799219 
L 532.276345 282.799219 
L 532.276345 255.619219 
L 528.35883 255.619219 
z
"/>
   </g>
   <g id="patch_133">
    <path clip-path="url(#pd048269ad4)" d="M 532.276345 282.799219 
L 536.19386 282.799219 
L 536.19386 269.209219 
L 532.276345 269.209219 
z
"/>
   </g>
   <g id="patch_134">
    <path clip-path="url(#pd048269ad4)" d="M 536.19386 282.799219 
L 540.111375 282.799219 
L 540.111375 235.234219 
L 536.19386 235.234219 
z
"/>
   </g>
   <g id="patch_135">
    <path clip-path="url(#pd048269ad4)" d="M 540.111375 282.799219 
L 544.02889 282.799219 
L 544.02889 269.209219 
L 540.111375 269.209219 
z
"/>
   </g>
   <g id="patch_136">
    <path clip-path="url(#pd048269ad4)" d="M 544.02889 282.799219 
L 547.946405 282.799219 
L 547.946405 262.414219 
L 544.02889 262.414219 
z
"/>
   </g>
   <g id="patch_137">
    <path clip-path="url(#pd048269ad4)" d="M 547.946405 282.799219 
L 551.863921 282.799219 
L 551.863921 248.824219 
L 547.946405 248.824219 
z
"/>
   </g>
   <g id="patch_138">
    <path clip-path="url(#pd048269ad4)" d="M 551.863921 282.799219 
L 555.781436 282.799219 
L 555.781436 235.234219 
L 551.863921 235.234219 
z
"/>
   </g>
   <g id="patch_139">
    <path clip-path="url(#pd048269ad4)" d="M 555.781436 282.799219 
L 559.698951 282.799219 
L 559.698951 248.824219 
L 555.781436 248.824219 
z
"/>
   </g>
   <g id="patch_140">
    <path clip-path="url(#pd048269ad4)" d="M 559.698951 282.799219 
L 563.616466 282.799219 
L 563.616466 262.414219 
L 559.698951 262.414219 
z
"/>
   </g>
   <g id="patch_141">
    <path clip-path="url(#pd048269ad4)" d="M 563.616466 282.799219 
L 567.533981 282.799219 
L 567.533981 262.414219 
L 563.616466 262.414219 
z
"/>
   </g>
   <g id="patch_142">
    <path clip-path="url(#pd048269ad4)" d="M 567.533981 282.799219 
L 571.451496 282.799219 
L 571.451496 262.414219 
L 567.533981 262.414219 
z
"/>
   </g>
   <g id="patch_143">
    <path clip-path="url(#pd048269ad4)" d="M 571.451496 282.799219 
L 575.369012 282.799219 
L 575.369012 262.414219 
L 571.451496 262.414219 
z
"/>
   </g>
   <g id="patch_144">
    <path clip-path="url(#pd048269ad4)" d="M 575.369012 282.799219 
L 579.286527 282.799219 
L 579.286527 242.029219 
L 575.369012 242.029219 
z
"/>
   </g>
   <g id="patch_145">
    <path clip-path="url(#pd048269ad4)" d="M 579.286527 282.799219 
L 583.204042 282.799219 
L 583.204042 248.824219 
L 579.286527 248.824219 
z
"/>
   </g>
   <g id="patch_146">
    <path clip-path="url(#pd048269ad4)" d="M 583.204042 282.799219 
L 587.121557 282.799219 
L 587.121557 242.029219 
L 583.204042 242.029219 
z
"/>
   </g>
   <g id="patch_147">
    <path clip-path="url(#pd048269ad4)" d="M 587.121557 282.799219 
L 591.039072 282.799219 
L 591.039072 235.234219 
L 587.121557 235.234219 
z
"/>
   </g>
   <g id="patch_148">
    <path clip-path="url(#pd048269ad4)" d="M 591.039072 282.799219 
L 594.956588 282.799219 
L 594.956588 208.054219 
L 591.039072 208.054219 
z
"/>
   </g>
   <g id="patch_149">
    <path clip-path="url(#pd048269ad4)" d="M 594.956588 282.799219 
L 598.874103 282.799219 
L 598.874103 255.619219 
L 594.956588 255.619219 
z
"/>
   </g>
   <g id="patch_150">
    <path clip-path="url(#pd048269ad4)" d="M 598.874103 282.799219 
L 602.791618 282.799219 
L 602.791618 255.619219 
L 598.874103 255.619219 
z
"/>
   </g>
   <g id="patch_151">
    <path clip-path="url(#pd048269ad4)" d="M 602.791618 282.799219 
L 606.709133 282.799219 
L 606.709133 269.209219 
L 602.791618 269.209219 
z
"/>
   </g>
   <g id="patch_152">
    <path clip-path="url(#pd048269ad4)" d="M 606.709133 282.799219 
L 610.626648 282.799219 
L 610.626648 262.414219 
L 606.709133 262.414219 
z
"/>
   </g>
   <g id="patch_153">
    <path clip-path="url(#pd048269ad4)" d="M 610.626648 282.799219 
L 614.544163 282.799219 
L 614.544163 262.414219 
L 610.626648 262.414219 
z
"/>
   </g>
   <g id="patch_154">
    <path clip-path="url(#pd048269ad4)" d="M 614.544163 282.799219 
L 618.461679 282.799219 
L 618.461679 276.004219 
L 614.544163 276.004219 
z
"/>
   </g>
   <g id="patch_155">
    <path clip-path="url(#pd048269ad4)" d="M 618.461679 282.799219 
L 622.379194 282.799219 
L 622.379194 214.849219 
L 618.461679 214.849219 
z
"/>
   </g>
   <g id="patch_156">
    <path clip-path="url(#pd048269ad4)" d="M 622.379194 282.799219 
L 626.296709 282.799219 
L 626.296709 242.029219 
L 622.379194 242.029219 
z
"/>
   </g>
   <g id="patch_157">
    <path clip-path="url(#pd048269ad4)" d="M 626.296709 282.799219 
L 630.214224 282.799219 
L 630.214224 214.849219 
L 626.296709 214.849219 
z
"/>
   </g>
   <g id="patch_158">
    <path clip-path="url(#pd048269ad4)" d="M 630.214224 282.799219 
L 634.131739 282.799219 
L 634.131739 242.029219 
L 630.214224 242.029219 
z
"/>
   </g>
   <g id="patch_159">
    <path clip-path="url(#pd048269ad4)" d="M 634.131739 282.799219 
L 638.049254 282.799219 
L 638.049254 282.799219 
L 634.131739 282.799219 
z
"/>
   </g>
   <g id="patch_160">
    <path clip-path="url(#pd048269ad4)" d="M 638.049254 282.799219 
L 641.96677 282.799219 
L 641.96677 255.619219 
L 638.049254 255.619219 
z
"/>
   </g>
   <g id="patch_161">
    <path clip-path="url(#pd048269ad4)" d="M 641.96677 282.799219 
L 645.884285 282.799219 
L 645.884285 276.004219 
L 641.96677 276.004219 
z
"/>
   </g>
   <g id="patch_162">
    <path clip-path="url(#pd048269ad4)" d="M 645.884285 282.799219 
L 649.8018 282.799219 
L 649.8018 262.414219 
L 645.884285 262.414219 
z
"/>
   </g>
   <g id="patch_163">
    <path clip-path="url(#pd048269ad4)" d="M 649.8018 282.799219 
L 653.719315 282.799219 
L 653.719315 248.824219 
L 649.8018 248.824219 
z
"/>
   </g>
   <g id="patch_164">
    <path clip-path="url(#pd048269ad4)" d="M 653.719315 282.799219 
L 657.63683 282.799219 
L 657.63683 255.619219 
L 653.719315 255.619219 
z
"/>
   </g>
   <g id="patch_165">
    <path clip-path="url(#pd048269ad4)" d="M 657.63683 282.799219 
L 661.554346 282.799219 
L 661.554346 255.619219 
L 657.63683 255.619219 
z
"/>
   </g>
   <g id="patch_166">
    <path clip-path="url(#pd048269ad4)" d="M 661.554346 282.799219 
L 665.471861 282.799219 
L 665.471861 262.414219 
L 661.554346 262.414219 
z
"/>
   </g>
   <g id="patch_167">
    <path clip-path="url(#pd048269ad4)" d="M 665.471861 282.799219 
L 669.389376 282.799219 
L 669.389376 235.234219 
L 665.471861 235.234219 
z
"/>
   </g>
   <g id="patch_168">
    <path clip-path="url(#pd048269ad4)" d="M 669.389376 282.799219 
L 673.306891 282.799219 
L 673.306891 276.004219 
L 669.389376 276.004219 
z
"/>
   </g>
   <g id="patch_169">
    <path clip-path="url(#pd048269ad4)" d="M 673.306891 282.799219 
L 677.224406 282.799219 
L 677.224406 221.644219 
L 673.306891 221.644219 
z
"/>
   </g>
   <g id="patch_170">
    <path clip-path="url(#pd048269ad4)" d="M 677.224406 282.799219 
L 681.141921 282.799219 
L 681.141921 255.619219 
L 677.224406 255.619219 
z
"/>
   </g>
   <g id="patch_171">
    <path clip-path="url(#pd048269ad4)" d="M 681.141921 282.799219 
L 685.059437 282.799219 
L 685.059437 276.004219 
L 681.141921 276.004219 
z
"/>
   </g>
   <g id="patch_172">
    <path clip-path="url(#pd048269ad4)" d="M 685.059437 282.799219 
L 688.976952 282.799219 
L 688.976952 262.414219 
L 685.059437 262.414219 
z
"/>
   </g>
   <g id="patch_173">
    <path clip-path="url(#pd048269ad4)" d="M 688.976952 282.799219 
L 692.894467 282.799219 
L 692.894467 269.209219 
L 688.976952 269.209219 
z
"/>
   </g>
   <g id="patch_174">
    <path clip-path="url(#pd048269ad4)" d="M 692.894467 282.799219 
L 696.811982 282.799219 
L 696.811982 221.644219 
L 692.894467 221.644219 
z
"/>
   </g>
   <g id="patch_175">
    <path clip-path="url(#pd048269ad4)" d="M 696.811982 282.799219 
L 700.729497 282.799219 
L 700.729497 248.824219 
L 696.811982 248.824219 
z
"/>
   </g>
   <g id="patch_176">
    <path clip-path="url(#pd048269ad4)" d="M 700.729497 282.799219 
L 704.647012 282.799219 
L 704.647012 208.054219 
L 700.729497 208.054219 
z
"/>
   </g>
   <g id="patch_177">
    <path clip-path="url(#pd048269ad4)" d="M 704.647012 282.799219 
L 708.564528 282.799219 
L 708.564528 248.824219 
L 704.647012 248.824219 
z
"/>
   </g>
   <g id="patch_178">
    <path clip-path="url(#pd048269ad4)" d="M 708.564528 282.799219 
L 712.482043 282.799219 
L 712.482043 248.824219 
L 708.564528 248.824219 
z
"/>
   </g>
   <g id="patch_179">
    <path clip-path="url(#pd048269ad4)" d="M 712.482043 282.799219 
L 716.399558 282.799219 
L 716.399558 262.414219 
L 712.482043 262.414219 
z
"/>
   </g>
   <g id="patch_180">
    <path clip-path="url(#pd048269ad4)" d="M 716.399558 282.799219 
L 720.317073 282.799219 
L 720.317073 262.414219 
L 716.399558 262.414219 
z
"/>
   </g>
   <g id="patch_181">
    <path clip-path="url(#pd048269ad4)" d="M 720.317073 282.799219 
L 724.234588 282.799219 
L 724.234588 262.414219 
L 720.317073 262.414219 
z
"/>
   </g>
   <g id="patch_182">
    <path clip-path="url(#pd048269ad4)" d="M 724.234588 282.799219 
L 728.152104 282.799219 
L 728.152104 255.619219 
L 724.234588 255.619219 
z
"/>
   </g>
   <g id="patch_183">
    <path clip-path="url(#pd048269ad4)" d="M 728.152104 282.799219 
L 732.069619 282.799219 
L 732.069619 276.004219 
L 728.152104 276.004219 
z
"/>
   </g>
   <g id="patch_184">
    <path clip-path="url(#pd048269ad4)" d="M 732.069619 282.799219 
L 735.987134 282.799219 
L 735.987134 276.004219 
L 732.069619 276.004219 
z
"/>
   </g>
   <g id="patch_185">
    <path clip-path="url(#pd048269ad4)" d="M 735.987134 282.799219 
L 739.904649 282.799219 
L 739.904649 262.414219 
L 735.987134 262.414219 
z
"/>
   </g>
   <g id="patch_186">
    <path clip-path="url(#pd048269ad4)" d="M 739.904649 282.799219 
L 743.822164 282.799219 
L 743.822164 276.004219 
L 739.904649 276.004219 
z
"/>
   </g>
   <g id="patch_187">
    <path clip-path="url(#pd048269ad4)" d="M 743.822164 282.799219 
L 747.739679 282.799219 
L 747.739679 269.209219 
L 743.822164 269.209219 
z
"/>
   </g>
   <g id="patch_188">
    <path clip-path="url(#pd048269ad4)" d="M 747.739679 282.799219 
L 751.657195 282.799219 
L 751.657195 269.209219 
L 747.739679 269.209219 
z
"/>
   </g>
   <g id="patch_189">
    <path clip-path="url(#pd048269ad4)" d="M 751.657195 282.799219 
L 755.57471 282.799219 
L 755.57471 269.209219 
L 751.657195 269.209219 
z
"/>
   </g>
   <g id="patch_190">
    <path clip-path="url(#pd048269ad4)" d="M 755.57471 282.799219 
L 759.492225 282.799219 
L 759.492225 276.004219 
L 755.57471 276.004219 
z
"/>
   </g>
   <g id="patch_191">
    <path clip-path="url(#pd048269ad4)" d="M 759.492225 282.799219 
L 763.40974 282.799219 
L 763.40974 269.209219 
L 759.492225 269.209219 
z
"/>
   </g>
   <g id="patch_192">
    <path clip-path="url(#pd048269ad4)" d="M 763.40974 282.799219 
L 767.327255 282.799219 
L 767.327255 276.004219 
L 763.40974 276.004219 
z
"/>
   </g>
   <g id="patch_193">
    <path clip-path="url(#pd048269ad4)" d="M 767.327255 282.799219 
L 771.24477 282.799219 
L 771.24477 276.004219 
L 767.327255 276.004219 
z
"/>
   </g>
   <g id="patch_194">
    <path clip-path="url(#pd048269ad4)" d="M 771.24477 282.799219 
L 775.162286 282.799219 
L 775.162286 269.209219 
L 771.24477 269.209219 
z
"/>
   </g>
   <g id="patch_195">
    <path clip-path="url(#pd048269ad4)" d="M 775.162286 282.799219 
L 779.079801 282.799219 
L 779.079801 255.619219 
L 775.162286 255.619219 
z
"/>
   </g>
   <g id="patch_196">
    <path clip-path="url(#pd048269ad4)" d="M 779.079801 282.799219 
L 782.997316 282.799219 
L 782.997316 269.209219 
L 779.079801 269.209219 
z
"/>
   </g>
   <g id="patch_197">
    <path clip-path="url(#pd048269ad4)" d="M 782.997316 282.799219 
L 786.914831 282.799219 
L 786.914831 276.004219 
L 782.997316 276.004219 
z
"/>
   </g>
   <g id="patch_198">
    <path clip-path="url(#pd048269ad4)" d="M 786.914831 282.799219 
L 790.832346 282.799219 
L 790.832346 269.209219 
L 786.914831 269.209219 
z
"/>
   </g>
   <g id="patch_199">
    <path clip-path="url(#pd048269ad4)" d="M 790.832346 282.799219 
L 794.749862 282.799219 
L 794.749862 255.619219 
L 790.832346 255.619219 
z
"/>
   </g>
   <g id="patch_200">
    <path clip-path="url(#pd048269ad4)" d="M 794.749862 282.799219 
L 798.667377 282.799219 
L 798.667377 255.619219 
L 794.749862 255.619219 
z
"/>
   </g>
   <g id="patch_201">
    <path clip-path="url(#pd048269ad4)" d="M 798.667377 282.799219 
L 802.584892 282.799219 
L 802.584892 262.414219 
L 798.667377 262.414219 
z
"/>
   </g>
   <g id="patch_202">
    <path clip-path="url(#pd048269ad4)" d="M 802.584892 282.799219 
L 806.502407 282.799219 
L 806.502407 255.619219 
L 802.584892 255.619219 
z
"/>
   </g>
   <g id="matplotlib.axis_1">
    <g id="xtick_1"/>
    <g id="xtick_2"/>
    <g id="xtick_3"/>
    <g id="xtick_4"/>
    <g id="xtick_5"/>
    <g id="xtick_6"/>
    <g id="xtick_7"/>
    <g id="xtick_8"/>
   </g>
   <g id="matplotlib.axis_2">
    <g id="ytick_1">
     <g id="line2d_1">
      <defs>
       <path d="M 0 0 
L -3.5 0 
" id="m3c2fe3ec30" style="stroke:#000000;stroke-width:0.8;"/>
      </defs>
      <g>
       <use style="stroke:#000000;stroke-width:0.8;" x="26.925" xlink:href="#m3c2fe3ec30" y="282.799219"/>
      </g>
     </g>
     <g id="text_1">
      <!-- 0 -->
      <defs>
       <path d="M 31.78125 66.40625 
Q 24.171875 66.40625 20.328125 58.90625 
Q 16.5 51.421875 16.5 36.375 
Q 16.5 21.390625 20.328125 13.890625 
Q 24.171875 6.390625 31.78125 6.390625 
Q 39.453125 6.390625 43.28125 13.890625 
Q 47.125 21.390625 47.125 36.375 
Q 47.125 51.421875 43.28125 58.90625 
Q 39.453125 66.40625 31.78125 66.40625 
z
M 31.78125 74.21875 
Q 44.046875 74.21875 50.515625 64.515625 
Q 56.984375 54.828125 56.984375 36.375 
Q 56.984375 17.96875 50.515625 8.265625 
Q 44.046875 -1.421875 31.78125 -1.421875 
Q 19.53125 -1.421875 13.0625 8.265625 
Q 6.59375 17.96875 6.59375 36.375 
Q 6.59375 54.828125 13.0625 64.515625 
Q 19.53125 74.21875 31.78125 74.21875 
z
" id="DejaVuSans-48"/>
      </defs>
      <g transform="translate(13.5625 286.598437)scale(0.1 -0.1)">
       <use xlink:href="#DejaVuSans-48"/>
      </g>
     </g>
    </g>
    <g id="ytick_2">
     <g id="line2d_2">
      <g>
       <use style="stroke:#000000;stroke-width:0.8;" x="26.925" xlink:href="#m3c2fe3ec30" y="248.824219"/>
      </g>
     </g>
     <g id="text_2">
      <!-- 5 -->
      <defs>
       <path d="M 10.796875 72.90625 
L 49.515625 72.90625 
L 49.515625 64.59375 
L 19.828125 64.59375 
L 19.828125 46.734375 
Q 21.96875 47.46875 24.109375 47.828125 
Q 26.265625 48.1875 28.421875 48.1875 
Q 40.625 48.1875 47.75 41.5 
Q 54.890625 34.8125 54.890625 23.390625 
Q 54.890625 11.625 47.5625 5.09375 
Q 40.234375 -1.421875 26.90625 -1.421875 
Q 22.3125 -1.421875 17.546875 -0.640625 
Q 12.796875 0.140625 7.71875 1.703125 
L 7.71875 11.625 
Q 12.109375 9.234375 16.796875 8.0625 
Q 21.484375 6.890625 26.703125 6.890625 
Q 35.15625 6.890625 40.078125 11.328125 
Q 45.015625 15.765625 45.015625 23.390625 
Q 45.015625 31 40.078125 35.4375 
Q 35.15625 39.890625 26.703125 39.890625 
Q 22.75 39.890625 18.8125 39.015625 
Q 14.890625 38.140625 10.796875 36.28125 
z
" id="DejaVuSans-53"/>
      </defs>
      <g transform="translate(13.5625 252.623437)scale(0.1 -0.1)">
       <use xlink:href="#DejaVuSans-53"/>
      </g>
     </g>
    </g>
    <g id="ytick_3">
     <g id="line2d_3">
      <g>
       <use style="stroke:#000000;stroke-width:0.8;" x="26.925" xlink:href="#m3c2fe3ec30" y="214.849219"/>
      </g>
     </g>
     <g id="text_3">
      <!-- 10 -->
      <defs>
       <path d="M 12.40625 8.296875 
L 28.515625 8.296875 
L 28.515625 63.921875 
L 10.984375 60.40625 
L 10.984375 69.390625 
L 28.421875 72.90625 
L 38.28125 72.90625 
L 38.28125 8.296875 
L 54.390625 8.296875 
L 54.390625 0 
L 12.40625 0 
z
" id="DejaVuSans-49"/>
      </defs>
      <g transform="translate(7.2 218.648437)scale(0.1 -0.1)">
       <use xlink:href="#DejaVuSans-49"/>
       <use x="63.623047" xlink:href="#DejaVuSans-48"/>
      </g>
     </g>
    </g>
    <g id="ytick_4">
     <g id="line2d_4">
      <g>
       <use style="stroke:#000000;stroke-width:0.8;" x="26.925" xlink:href="#m3c2fe3ec30" y="180.874219"/>
      </g>
     </g>
     <g id="text_4">
      <!-- 15 -->
      <g transform="translate(7.2 184.673437)scale(0.1 -0.1)">
       <use xlink:href="#DejaVuSans-49"/>
       <use x="63.623047" xlink:href="#DejaVuSans-53"/>
      </g>
     </g>
    </g>
    <g id="ytick_5">
     <g id="line2d_5">
      <g>
       <use style="stroke:#000000;stroke-width:0.8;" x="26.925" xlink:href="#m3c2fe3ec30" y="146.899219"/>
      </g>
     </g>
     <g id="text_5">
      <!-- 20 -->
      <defs>
       <path d="M 19.1875 8.296875 
L 53.609375 8.296875 
L 53.609375 0 
L 7.328125 0 
L 7.328125 8.296875 
Q 12.9375 14.109375 22.625 23.890625 
Q 32.328125 33.6875 34.8125 36.53125 
Q 39.546875 41.84375 41.421875 45.53125 
Q 43.3125 49.21875 43.3125 52.78125 
Q 43.3125 58.59375 39.234375 62.25 
Q 35.15625 65.921875 28.609375 65.921875 
Q 23.96875 65.921875 18.8125 64.3125 
Q 13.671875 62.703125 7.8125 59.421875 
L 7.8125 69.390625 
Q 13.765625 71.78125 18.9375 73 
Q 24.125 74.21875 28.421875 74.21875 
Q 39.75 74.21875 46.484375 68.546875 
Q 53.21875 62.890625 53.21875 53.421875 
Q 53.21875 48.921875 51.53125 44.890625 
Q 49.859375 40.875 45.40625 35.40625 
Q 44.1875 33.984375 37.640625 27.21875 
Q 31.109375 20.453125 19.1875 8.296875 
z
" id="DejaVuSans-50"/>
      </defs>
      <g transform="translate(7.2 150.698437)scale(0.1 -0.1)">
       <use xlink:href="#DejaVuSans-50"/>
       <use x="63.623047" xlink:href="#DejaVuSans-48"/>
      </g>
     </g>
    </g>
    <g id="ytick_6">
     <g id="line2d_6">
      <g>
       <use style="stroke:#000000;stroke-width:0.8;" x="26.925" xlink:href="#m3c2fe3ec30" y="112.924219"/>
      </g>
     </g>
     <g id="text_6">
      <!-- 25 -->
      <g transform="translate(7.2 116.723437)scale(0.1 -0.1)">
       <use xlink:href="#DejaVuSans-50"/>
       <use x="63.623047" xlink:href="#DejaVuSans-53"/>
      </g>
     </g>
    </g>
    <g id="ytick_7">
     <g id="line2d_7">
      <g>
       <use style="stroke:#000000;stroke-width:0.8;" x="26.925" xlink:href="#m3c2fe3ec30" y="78.949219"/>
      </g>
     </g>
     <g id="text_7">
      <!-- 30 -->
      <defs>
       <path d="M 40.578125 39.3125 
Q 47.65625 37.796875 51.625 33 
Q 55.609375 28.21875 55.609375 21.1875 
Q 55.609375 10.40625 48.1875 4.484375 
Q 40.765625 -1.421875 27.09375 -1.421875 
Q 22.515625 -1.421875 17.65625 -0.515625 
Q 12.796875 0.390625 7.625 2.203125 
L 7.625 11.71875 
Q 11.71875 9.328125 16.59375 8.109375 
Q 21.484375 6.890625 26.8125 6.890625 
Q 36.078125 6.890625 40.9375 10.546875 
Q 45.796875 14.203125 45.796875 21.1875 
Q 45.796875 27.640625 41.28125 31.265625 
Q 36.765625 34.90625 28.71875 34.90625 
L 20.21875 34.90625 
L 20.21875 43.015625 
L 29.109375 43.015625 
Q 36.375 43.015625 40.234375 45.921875 
Q 44.09375 48.828125 44.09375 54.296875 
Q 44.09375 59.90625 40.109375 62.90625 
Q 36.140625 65.921875 28.71875 65.921875 
Q 24.65625 65.921875 20.015625 65.03125 
Q 15.375 64.15625 9.8125 62.3125 
L 9.8125 71.09375 
Q 15.4375 72.65625 20.34375 73.4375 
Q 25.25 74.21875 29.59375 74.21875 
Q 40.828125 74.21875 47.359375 69.109375 
Q 53.90625 64.015625 53.90625 55.328125 
Q 53.90625 49.265625 50.4375 45.09375 
Q 46.96875 40.921875 40.578125 39.3125 
z
" id="DejaVuSans-51"/>
      </defs>
      <g transform="translate(7.2 82.748437)scale(0.1 -0.1)">
       <use xlink:href="#DejaVuSans-51"/>
       <use x="63.623047" xlink:href="#DejaVuSans-48"/>
      </g>
     </g>
    </g>
    <g id="ytick_8">
     <g id="line2d_8">
      <g>
       <use style="stroke:#000000;stroke-width:0.8;" x="26.925" xlink:href="#m3c2fe3ec30" y="44.974219"/>
      </g>
     </g>
     <g id="text_8">
      <!-- 35 -->
      <g transform="translate(7.2 48.773437)scale(0.1 -0.1)">
       <use xlink:href="#DejaVuSans-51"/>
       <use x="63.623047" xlink:href="#DejaVuSans-53"/>
      </g>
     </g>
    </g>
    <g id="ytick_9">
     <g id="line2d_9">
      <g>
       <use style="stroke:#000000;stroke-width:0.8;" x="26.925" xlink:href="#m3c2fe3ec30" y="10.999219"/>
      </g>
     </g>
     <g id="text_9">
      <!-- 40 -->
      <defs>
       <path d="M 37.796875 64.3125 
L 12.890625 25.390625 
L 37.796875 25.390625 
z
M 35.203125 72.90625 
L 47.609375 72.90625 
L 47.609375 25.390625 
L 58.015625 25.390625 
L 58.015625 17.1875 
L 47.609375 17.1875 
L 47.609375 0 
L 37.796875 0 
L 37.796875 17.1875 
L 4.890625 17.1875 
L 4.890625 26.703125 
z
" id="DejaVuSans-52"/>
      </defs>
      <g transform="translate(7.2 14.798437)scale(0.1 -0.1)">
       <use xlink:href="#DejaVuSans-52"/>
       <use x="63.623047" xlink:href="#DejaVuSans-48"/>
      </g>
     </g>
    </g>
   </g>
   <g id="patch_203">
    <path d="M 26.925 282.799219 
L 26.925 10.999219 
" style="fill:none;stroke:#000000;stroke-linecap:square;stroke-linejoin:miter;stroke-width:0.8;"/>
   </g>
   <g id="patch_204">
    <path d="M 808.125 282.799219 
L 808.125 10.999219 
" style="fill:none;stroke:#000000;stroke-linecap:square;stroke-linejoin:miter;stroke-width:0.8;"/>
   </g>
   <g id="patch_205">
    <path d="M 26.925 282.799219 
L 808.125 282.799219 
" style="fill:none;stroke:#000000;stroke-linecap:square;stroke-linejoin:miter;stroke-width:0.8;"/>
   </g>
   <g id="patch_206">
    <path d="M 26.925 10.999219 
L 808.125 10.999219 
" style="fill:none;stroke:#000000;stroke-linecap:square;stroke-linejoin:miter;stroke-width:0.8;"/>
   </g>
  </g>
 </g>
 <defs>
  <clipPath id="pd048269ad4">
   <rect height="271.8" width="781.2" x="26.925" y="10.999219"/>
  </clipPath>
 </defs>
</svg>
