<?xml version="1.0" encoding="utf-8" standalone="no"?>
<!DOCTYPE svg PUBLIC "-//W3C//DTD SVG 1.1//EN"
  "http://www.w3.org/Graphics/SVG/1.1/DTD/svg11.dtd">
<!-- Created with matplotlib (https://matplotlib.org/) -->
<svg height="295.878125pt" version="1.1" viewBox="0 0 836.934375 295.878125" width="836.934375pt" xmlns="http://www.w3.org/2000/svg" xmlns:xlink="http://www.w3.org/1999/xlink">
 <defs>
  <style type="text/css">
*{stroke-linecap:butt;stroke-linejoin:round;}
  </style>
 </defs>
 <g id="figure_1">
  <g id="patch_1">
   <path d="M 0 295.878125 
L 836.934375 295.878125 
L 836.934375 0 
L 0 0 
z
" style="fill:none;"/>
  </g>
  <g id="axes_1">
   <g id="patch_2">
    <path d="M 45.034375 282.799219 
L 826.234375 282.799219 
L 826.234375 10.999219 
L 45.034375 10.999219 
z
" style="fill:none;"/>
   </g>
   <g id="patch_3">
    <path clip-path="url(#pc7a44bfcc3)" d="M 41.108747 282.799219 
L 45.000876 282.799219 
L 45.000876 -90.925781 
L 41.108747 -90.925781 
z
"/>
   </g>
   <g id="patch_4">
    <path clip-path="url(#pc7a44bfcc3)" d="M 45.000876 282.799219 
L 48.893006 282.799219 
L 48.893006 208.054219 
L 45.000876 208.054219 
z
"/>
   </g>
   <g id="patch_5">
    <path clip-path="url(#pc7a44bfcc3)" d="M 48.893006 282.799219 
L 52.785135 282.799219 
L 52.785135 180.874219 
L 48.893006 180.874219 
z
"/>
   </g>
   <g id="patch_6">
    <path clip-path="url(#pc7a44bfcc3)" d="M 52.785135 282.799219 
L 56.677265 282.799219 
L 56.677265 194.464219 
L 52.785135 194.464219 
z
"/>
   </g>
   <g id="patch_7">
    <path clip-path="url(#pc7a44bfcc3)" d="M 56.677265 282.799219 
L 60.569394 282.799219 
L 60.569394 242.029219 
L 56.677265 242.029219 
z
"/>
   </g>
   <g id="patch_8">
    <path clip-path="url(#pc7a44bfcc3)" d="M 60.569394 282.799219 
L 64.461524 282.799219 
L 64.461524 214.849219 
L 60.569394 214.849219 
z
"/>
   </g>
   <g id="patch_9">
    <path clip-path="url(#pc7a44bfcc3)" d="M 64.461524 282.799219 
L 68.353653 282.799219 
L 68.353653 248.824219 
L 64.461524 248.824219 
z
"/>
   </g>
   <g id="patch_10">
    <path clip-path="url(#pc7a44bfcc3)" d="M 68.353653 282.799219 
L 72.245782 282.799219 
L 72.245782 214.849219 
L 68.353653 214.849219 
z
"/>
   </g>
   <g id="patch_11">
    <path clip-path="url(#pc7a44bfcc3)" d="M 72.245782 282.799219 
L 76.137912 282.799219 
L 76.137912 242.029219 
L 72.245782 242.029219 
z
"/>
   </g>
   <g id="patch_12">
    <path clip-path="url(#pc7a44bfcc3)" d="M 76.137912 282.799219 
L 80.030041 282.799219 
L 80.030041 242.029219 
L 76.137912 242.029219 
z
"/>
   </g>
   <g id="patch_13">
    <path clip-path="url(#pc7a44bfcc3)" d="M 80.030041 282.799219 
L 83.922171 282.799219 
L 83.922171 235.234219 
L 80.030041 235.234219 
z
"/>
   </g>
   <g id="patch_14">
    <path clip-path="url(#pc7a44bfcc3)" d="M 83.922171 282.799219 
L 87.8143 282.799219 
L 87.8143 235.234219 
L 83.922171 235.234219 
z
"/>
   </g>
   <g id="patch_15">
    <path clip-path="url(#pc7a44bfcc3)" d="M 87.8143 282.799219 
L 91.70643 282.799219 
L 91.70643 242.029219 
L 87.8143 242.029219 
z
"/>
   </g>
   <g id="patch_16">
    <path clip-path="url(#pc7a44bfcc3)" d="M 91.70643 282.799219 
L 95.598559 282.799219 
L 95.598559 187.669219 
L 91.70643 187.669219 
z
"/>
   </g>
   <g id="patch_17">
    <path clip-path="url(#pc7a44bfcc3)" d="M 95.598559 282.799219 
L 99.490689 282.799219 
L 99.490689 235.234219 
L 95.598559 235.234219 
z
"/>
   </g>
   <g id="patch_18">
    <path clip-path="url(#pc7a44bfcc3)" d="M 99.490689 282.799219 
L 103.382818 282.799219 
L 103.382818 194.464219 
L 99.490689 194.464219 
z
"/>
   </g>
   <g id="patch_19">
    <path clip-path="url(#pc7a44bfcc3)" d="M 103.382818 282.799219 
L 107.274947 282.799219 
L 107.274947 255.619219 
L 103.382818 255.619219 
z
"/>
   </g>
   <g id="patch_20">
    <path clip-path="url(#pc7a44bfcc3)" d="M 107.274947 282.799219 
L 111.167077 282.799219 
L 111.167077 228.439219 
L 107.274947 228.439219 
z
"/>
   </g>
   <g id="patch_21">
    <path clip-path="url(#pc7a44bfcc3)" d="M 111.167077 282.799219 
L 115.059206 282.799219 
L 115.059206 242.029219 
L 111.167077 242.029219 
z
"/>
   </g>
   <g id="patch_22">
    <path clip-path="url(#pc7a44bfcc3)" d="M 115.059206 282.799219 
L 118.951336 282.799219 
L 118.951336 269.209219 
L 115.059206 269.209219 
z
"/>
   </g>
   <g id="patch_23">
    <path clip-path="url(#pc7a44bfcc3)" d="M 118.951336 282.799219 
L 122.843465 282.799219 
L 122.843465 228.439219 
L 118.951336 228.439219 
z
"/>
   </g>
   <g id="patch_24">
    <path clip-path="url(#pc7a44bfcc3)" d="M 122.843465 282.799219 
L 126.735595 282.799219 
L 126.735595 248.824219 
L 122.843465 248.824219 
z
"/>
   </g>
   <g id="patch_25">
    <path clip-path="url(#pc7a44bfcc3)" d="M 126.735595 282.799219 
L 130.627724 282.799219 
L 130.627724 262.414219 
L 126.735595 262.414219 
z
"/>
   </g>
   <g id="patch_26">
    <path clip-path="url(#pc7a44bfcc3)" d="M 130.627724 282.799219 
L 134.519854 282.799219 
L 134.519854 255.619219 
L 130.627724 255.619219 
z
"/>
   </g>
   <g id="patch_27">
    <path clip-path="url(#pc7a44bfcc3)" d="M 134.519854 282.799219 
L 138.411983 282.799219 
L 138.411983 248.824219 
L 134.519854 248.824219 
z
"/>
   </g>
   <g id="patch_28">
    <path clip-path="url(#pc7a44bfcc3)" d="M 138.411983 282.799219 
L 142.304112 282.799219 
L 142.304112 262.414219 
L 138.411983 262.414219 
z
"/>
   </g>
   <g id="patch_29">
    <path clip-path="url(#pc7a44bfcc3)" d="M 142.304112 282.799219 
L 146.196242 282.799219 
L 146.196242 269.209219 
L 142.304112 269.209219 
z
"/>
   </g>
   <g id="patch_30">
    <path clip-path="url(#pc7a44bfcc3)" d="M 146.196242 282.799219 
L 150.088371 282.799219 
L 150.088371 228.439219 
L 146.196242 228.439219 
z
"/>
   </g>
   <g id="patch_31">
    <path clip-path="url(#pc7a44bfcc3)" d="M 150.088371 282.799219 
L 153.980501 282.799219 
L 153.980501 242.029219 
L 150.088371 242.029219 
z
"/>
   </g>
   <g id="patch_32">
    <path clip-path="url(#pc7a44bfcc3)" d="M 153.980501 282.799219 
L 157.87263 282.799219 
L 157.87263 255.619219 
L 153.980501 255.619219 
z
"/>
   </g>
   <g id="patch_33">
    <path clip-path="url(#pc7a44bfcc3)" d="M 157.87263 282.799219 
L 161.76476 282.799219 
L 161.76476 194.464219 
L 157.87263 194.464219 
z
"/>
   </g>
   <g id="patch_34">
    <path clip-path="url(#pc7a44bfcc3)" d="M 161.76476 282.799219 
L 165.656889 282.799219 
L 165.656889 201.259219 
L 161.76476 201.259219 
z
"/>
   </g>
   <g id="patch_35">
    <path clip-path="url(#pc7a44bfcc3)" d="M 165.656889 282.799219 
L 169.549019 282.799219 
L 169.549019 208.054219 
L 165.656889 208.054219 
z
"/>
   </g>
   <g id="patch_36">
    <path clip-path="url(#pc7a44bfcc3)" d="M 169.549019 282.799219 
L 173.441148 282.799219 
L 173.441148 187.669219 
L 169.549019 187.669219 
z
"/>
   </g>
   <g id="patch_37">
    <path clip-path="url(#pc7a44bfcc3)" d="M 173.441148 282.799219 
L 177.333278 282.799219 
L 177.333278 242.029219 
L 173.441148 242.029219 
z
"/>
   </g>
   <g id="patch_38">
    <path clip-path="url(#pc7a44bfcc3)" d="M 177.333278 282.799219 
L 181.225407 282.799219 
L 181.225407 262.414219 
L 177.333278 262.414219 
z
"/>
   </g>
   <g id="patch_39">
    <path clip-path="url(#pc7a44bfcc3)" d="M 181.225407 282.799219 
L 185.117536 282.799219 
L 185.117536 221.644219 
L 181.225407 221.644219 
z
"/>
   </g>
   <g id="patch_40">
    <path clip-path="url(#pc7a44bfcc3)" d="M 185.117536 282.799219 
L 189.009666 282.799219 
L 189.009666 262.414219 
L 185.117536 262.414219 
z
"/>
   </g>
   <g id="patch_41">
    <path clip-path="url(#pc7a44bfcc3)" d="M 189.009666 282.799219 
L 192.901795 282.799219 
L 192.901795 262.414219 
L 189.009666 262.414219 
z
"/>
   </g>
   <g id="patch_42">
    <path clip-path="url(#pc7a44bfcc3)" d="M 192.901795 282.799219 
L 196.793925 282.799219 
L 196.793925 242.029219 
L 192.901795 242.029219 
z
"/>
   </g>
   <g id="patch_43">
    <path clip-path="url(#pc7a44bfcc3)" d="M 196.793925 282.799219 
L 200.686054 282.799219 
L 200.686054 242.029219 
L 196.793925 242.029219 
z
"/>
   </g>
   <g id="patch_44">
    <path clip-path="url(#pc7a44bfcc3)" d="M 200.686054 282.799219 
L 204.578184 282.799219 
L 204.578184 221.644219 
L 200.686054 221.644219 
z
"/>
   </g>
   <g id="patch_45">
    <path clip-path="url(#pc7a44bfcc3)" d="M 204.578184 282.799219 
L 208.470313 282.799219 
L 208.470313 221.644219 
L 204.578184 221.644219 
z
"/>
   </g>
   <g id="patch_46">
    <path clip-path="url(#pc7a44bfcc3)" d="M 208.470313 282.799219 
L 212.362443 282.799219 
L 212.362443 221.644219 
L 208.470313 221.644219 
z
"/>
   </g>
   <g id="patch_47">
    <path clip-path="url(#pc7a44bfcc3)" d="M 212.362443 282.799219 
L 216.254572 282.799219 
L 216.254572 180.874219 
L 212.362443 180.874219 
z
"/>
   </g>
   <g id="patch_48">
    <path clip-path="url(#pc7a44bfcc3)" d="M 216.254572 282.799219 
L 220.146701 282.799219 
L 220.146701 214.849219 
L 216.254572 214.849219 
z
"/>
   </g>
   <g id="patch_49">
    <path clip-path="url(#pc7a44bfcc3)" d="M 220.146701 282.799219 
L 224.038831 282.799219 
L 224.038831 180.874219 
L 220.146701 180.874219 
z
"/>
   </g>
   <g id="patch_50">
    <path clip-path="url(#pc7a44bfcc3)" d="M 224.038831 282.799219 
L 227.93096 282.799219 
L 227.93096 214.849219 
L 224.038831 214.849219 
z
"/>
   </g>
   <g id="patch_51">
    <path clip-path="url(#pc7a44bfcc3)" d="M 227.93096 282.799219 
L 231.82309 282.799219 
L 231.82309 228.439219 
L 227.93096 228.439219 
z
"/>
   </g>
   <g id="patch_52">
    <path clip-path="url(#pc7a44bfcc3)" d="M 231.82309 282.799219 
L 235.715219 282.799219 
L 235.715219 201.259219 
L 231.82309 201.259219 
z
"/>
   </g>
   <g id="patch_53">
    <path clip-path="url(#pc7a44bfcc3)" d="M 235.715219 282.799219 
L 239.607349 282.799219 
L 239.607349 174.079219 
L 235.715219 174.079219 
z
"/>
   </g>
   <g id="patch_54">
    <path clip-path="url(#pc7a44bfcc3)" d="M 239.607349 282.799219 
L 243.499478 282.799219 
L 243.499478 208.054219 
L 239.607349 208.054219 
z
"/>
   </g>
   <g id="patch_55">
    <path clip-path="url(#pc7a44bfcc3)" d="M 243.499478 282.799219 
L 247.391608 282.799219 
L 247.391608 201.259219 
L 243.499478 201.259219 
z
"/>
   </g>
   <g id="patch_56">
    <path clip-path="url(#pc7a44bfcc3)" d="M 247.391608 282.799219 
L 251.283737 282.799219 
L 251.283737 126.514219 
L 247.391608 126.514219 
z
"/>
   </g>
   <g id="patch_57">
    <path clip-path="url(#pc7a44bfcc3)" d="M 251.283737 282.799219 
L 255.175866 282.799219 
L 255.175866 167.284219 
L 251.283737 167.284219 
z
"/>
   </g>
   <g id="patch_58">
    <path clip-path="url(#pc7a44bfcc3)" d="M 255.175866 282.799219 
L 259.067996 282.799219 
L 259.067996 167.284219 
L 255.175866 167.284219 
z
"/>
   </g>
   <g id="patch_59">
    <path clip-path="url(#pc7a44bfcc3)" d="M 259.067996 282.799219 
L 262.960125 282.799219 
L 262.960125 201.259219 
L 259.067996 201.259219 
z
"/>
   </g>
   <g id="patch_60">
    <path clip-path="url(#pc7a44bfcc3)" d="M 262.960125 282.799219 
L 266.852255 282.799219 
L 266.852255 160.489219 
L 262.960125 160.489219 
z
"/>
   </g>
   <g id="patch_61">
    <path clip-path="url(#pc7a44bfcc3)" d="M 266.852255 282.799219 
L 270.744384 282.799219 
L 270.744384 187.669219 
L 266.852255 187.669219 
z
"/>
   </g>
   <g id="patch_62">
    <path clip-path="url(#pc7a44bfcc3)" d="M 270.744384 282.799219 
L 274.636514 282.799219 
L 274.636514 153.694219 
L 270.744384 153.694219 
z
"/>
   </g>
   <g id="patch_63">
    <path clip-path="url(#pc7a44bfcc3)" d="M 274.636514 282.799219 
L 278.528643 282.799219 
L 278.528643 248.824219 
L 274.636514 248.824219 
z
"/>
   </g>
   <g id="patch_64">
    <path clip-path="url(#pc7a44bfcc3)" d="M 278.528643 282.799219 
L 282.420773 282.799219 
L 282.420773 194.464219 
L 278.528643 194.464219 
z
"/>
   </g>
   <g id="patch_65">
    <path clip-path="url(#pc7a44bfcc3)" d="M 282.420773 282.799219 
L 286.312902 282.799219 
L 286.312902 160.489219 
L 282.420773 160.489219 
z
"/>
   </g>
   <g id="patch_66">
    <path clip-path="url(#pc7a44bfcc3)" d="M 286.312902 282.799219 
L 290.205031 282.799219 
L 290.205031 180.874219 
L 286.312902 180.874219 
z
"/>
   </g>
   <g id="patch_67">
    <path clip-path="url(#pc7a44bfcc3)" d="M 290.205031 282.799219 
L 294.097161 282.799219 
L 294.097161 228.439219 
L 290.205031 228.439219 
z
"/>
   </g>
   <g id="patch_68">
    <path clip-path="url(#pc7a44bfcc3)" d="M 294.097161 282.799219 
L 297.98929 282.799219 
L 297.98929 221.644219 
L 294.097161 221.644219 
z
"/>
   </g>
   <g id="patch_69">
    <path clip-path="url(#pc7a44bfcc3)" d="M 297.98929 282.799219 
L 301.88142 282.799219 
L 301.88142 221.644219 
L 297.98929 221.644219 
z
"/>
   </g>
   <g id="patch_70">
    <path clip-path="url(#pc7a44bfcc3)" d="M 301.88142 282.799219 
L 305.773549 282.799219 
L 305.773549 208.054219 
L 301.88142 208.054219 
z
"/>
   </g>
   <g id="patch_71">
    <path clip-path="url(#pc7a44bfcc3)" d="M 305.773549 282.799219 
L 309.665679 282.799219 
L 309.665679 194.464219 
L 305.773549 194.464219 
z
"/>
   </g>
   <g id="patch_72">
    <path clip-path="url(#pc7a44bfcc3)" d="M 309.665679 282.799219 
L 313.557808 282.799219 
L 313.557808 242.029219 
L 309.665679 242.029219 
z
"/>
   </g>
   <g id="patch_73">
    <path clip-path="url(#pc7a44bfcc3)" d="M 313.557808 282.799219 
L 317.449938 282.799219 
L 317.449938 194.464219 
L 313.557808 194.464219 
z
"/>
   </g>
   <g id="patch_74">
    <path clip-path="url(#pc7a44bfcc3)" d="M 317.449938 282.799219 
L 321.342067 282.799219 
L 321.342067 214.849219 
L 317.449938 214.849219 
z
"/>
   </g>
   <g id="patch_75">
    <path clip-path="url(#pc7a44bfcc3)" d="M 321.342067 282.799219 
L 325.234197 282.799219 
L 325.234197 214.849219 
L 321.342067 214.849219 
z
"/>
   </g>
   <g id="patch_76">
    <path clip-path="url(#pc7a44bfcc3)" d="M 325.234197 282.799219 
L 329.126326 282.799219 
L 329.126326 228.439219 
L 325.234197 228.439219 
z
"/>
   </g>
   <g id="patch_77">
    <path clip-path="url(#pc7a44bfcc3)" d="M 329.126326 282.799219 
L 333.018455 282.799219 
L 333.018455 255.619219 
L 329.126326 255.619219 
z
"/>
   </g>
   <g id="patch_78">
    <path clip-path="url(#pc7a44bfcc3)" d="M 333.018455 282.799219 
L 336.910585 282.799219 
L 336.910585 214.849219 
L 333.018455 214.849219 
z
"/>
   </g>
   <g id="patch_79">
    <path clip-path="url(#pc7a44bfcc3)" d="M 336.910585 282.799219 
L 340.802714 282.799219 
L 340.802714 255.619219 
L 336.910585 255.619219 
z
"/>
   </g>
   <g id="patch_80">
    <path clip-path="url(#pc7a44bfcc3)" d="M 340.802714 282.799219 
L 344.694844 282.799219 
L 344.694844 262.414219 
L 340.802714 262.414219 
z
"/>
   </g>
   <g id="patch_81">
    <path clip-path="url(#pc7a44bfcc3)" d="M 344.694844 282.799219 
L 348.586973 282.799219 
L 348.586973 262.414219 
L 344.694844 262.414219 
z
"/>
   </g>
   <g id="patch_82">
    <path clip-path="url(#pc7a44bfcc3)" d="M 348.586973 282.799219 
L 352.479103 282.799219 
L 352.479103 242.029219 
L 348.586973 242.029219 
z
"/>
   </g>
   <g id="patch_83">
    <path clip-path="url(#pc7a44bfcc3)" d="M 352.479103 282.799219 
L 356.371232 282.799219 
L 356.371232 228.439219 
L 352.479103 228.439219 
z
"/>
   </g>
   <g id="patch_84">
    <path clip-path="url(#pc7a44bfcc3)" d="M 356.371232 282.799219 
L 360.263362 282.799219 
L 360.263362 221.644219 
L 356.371232 221.644219 
z
"/>
   </g>
   <g id="patch_85">
    <path clip-path="url(#pc7a44bfcc3)" d="M 360.263362 282.799219 
L 364.155491 282.799219 
L 364.155491 255.619219 
L 360.263362 255.619219 
z
"/>
   </g>
   <g id="patch_86">
    <path clip-path="url(#pc7a44bfcc3)" d="M 364.155491 282.799219 
L 368.04762 282.799219 
L 368.04762 248.824219 
L 364.155491 248.824219 
z
"/>
   </g>
   <g id="patch_87">
    <path clip-path="url(#pc7a44bfcc3)" d="M 368.04762 282.799219 
L 371.93975 282.799219 
L 371.93975 248.824219 
L 368.04762 248.824219 
z
"/>
   </g>
   <g id="patch_88">
    <path clip-path="url(#pc7a44bfcc3)" d="M 371.93975 282.799219 
L 375.831879 282.799219 
L 375.831879 276.004219 
L 371.93975 276.004219 
z
"/>
   </g>
   <g id="patch_89">
    <path clip-path="url(#pc7a44bfcc3)" d="M 375.831879 282.799219 
L 379.724009 282.799219 
L 379.724009 242.029219 
L 375.831879 242.029219 
z
"/>
   </g>
   <g id="patch_90">
    <path clip-path="url(#pc7a44bfcc3)" d="M 379.724009 282.799219 
L 383.616138 282.799219 
L 383.616138 248.824219 
L 379.724009 248.824219 
z
"/>
   </g>
   <g id="patch_91">
    <path clip-path="url(#pc7a44bfcc3)" d="M 383.616138 282.799219 
L 387.508268 282.799219 
L 387.508268 262.414219 
L 383.616138 262.414219 
z
"/>
   </g>
   <g id="patch_92">
    <path clip-path="url(#pc7a44bfcc3)" d="M 387.508268 282.799219 
L 391.400397 282.799219 
L 391.400397 255.619219 
L 387.508268 255.619219 
z
"/>
   </g>
   <g id="patch_93">
    <path clip-path="url(#pc7a44bfcc3)" d="M 391.400397 282.799219 
L 395.292527 282.799219 
L 395.292527 248.824219 
L 391.400397 248.824219 
z
"/>
   </g>
   <g id="patch_94">
    <path clip-path="url(#pc7a44bfcc3)" d="M 395.292527 282.799219 
L 399.184656 282.799219 
L 399.184656 276.004219 
L 395.292527 276.004219 
z
"/>
   </g>
   <g id="patch_95">
    <path clip-path="url(#pc7a44bfcc3)" d="M 399.184656 282.799219 
L 403.076785 282.799219 
L 403.076785 262.414219 
L 399.184656 262.414219 
z
"/>
   </g>
   <g id="patch_96">
    <path clip-path="url(#pc7a44bfcc3)" d="M 403.076785 282.799219 
L 406.968915 282.799219 
L 406.968915 248.824219 
L 403.076785 248.824219 
z
"/>
   </g>
   <g id="patch_97">
    <path clip-path="url(#pc7a44bfcc3)" d="M 406.968915 282.799219 
L 410.861044 282.799219 
L 410.861044 255.619219 
L 406.968915 255.619219 
z
"/>
   </g>
   <g id="patch_98">
    <path clip-path="url(#pc7a44bfcc3)" d="M 410.861044 282.799219 
L 414.753174 282.799219 
L 414.753174 248.824219 
L 410.861044 248.824219 
z
"/>
   </g>
   <g id="patch_99">
    <path clip-path="url(#pc7a44bfcc3)" d="M 414.753174 282.799219 
L 418.645303 282.799219 
L 418.645303 255.619219 
L 414.753174 255.619219 
z
"/>
   </g>
   <g id="patch_100">
    <path clip-path="url(#pc7a44bfcc3)" d="M 418.645303 282.799219 
L 422.537433 282.799219 
L 422.537433 269.209219 
L 418.645303 269.209219 
z
"/>
   </g>
   <g id="patch_101">
    <path clip-path="url(#pc7a44bfcc3)" d="M 422.537433 282.799219 
L 426.429562 282.799219 
L 426.429562 276.004219 
L 422.537433 276.004219 
z
"/>
   </g>
   <g id="patch_102">
    <path clip-path="url(#pc7a44bfcc3)" d="M 426.429562 282.799219 
L 430.321692 282.799219 
L 430.321692 262.414219 
L 426.429562 262.414219 
z
"/>
   </g>
   <g id="patch_103">
    <path clip-path="url(#pc7a44bfcc3)" d="M 430.321692 282.799219 
L 434.213821 282.799219 
L 434.213821 269.209219 
L 430.321692 269.209219 
z
"/>
   </g>
   <g id="patch_104">
    <path clip-path="url(#pc7a44bfcc3)" d="M 434.213821 282.799219 
L 438.10595 282.799219 
L 438.10595 276.004219 
L 434.213821 276.004219 
z
"/>
   </g>
   <g id="patch_105">
    <path clip-path="url(#pc7a44bfcc3)" d="M 438.10595 282.799219 
L 441.99808 282.799219 
L 441.99808 255.619219 
L 438.10595 255.619219 
z
"/>
   </g>
   <g id="patch_106">
    <path clip-path="url(#pc7a44bfcc3)" d="M 441.99808 282.799219 
L 445.890209 282.799219 
L 445.890209 242.029219 
L 441.99808 242.029219 
z
"/>
   </g>
   <g id="patch_107">
    <path clip-path="url(#pc7a44bfcc3)" d="M 445.890209 282.799219 
L 449.782339 282.799219 
L 449.782339 262.414219 
L 445.890209 262.414219 
z
"/>
   </g>
   <g id="patch_108">
    <path clip-path="url(#pc7a44bfcc3)" d="M 449.782339 282.799219 
L 453.674468 282.799219 
L 453.674468 262.414219 
L 449.782339 262.414219 
z
"/>
   </g>
   <g id="patch_109">
    <path clip-path="url(#pc7a44bfcc3)" d="M 453.674468 282.799219 
L 457.566598 282.799219 
L 457.566598 248.824219 
L 453.674468 248.824219 
z
"/>
   </g>
   <g id="patch_110">
    <path clip-path="url(#pc7a44bfcc3)" d="M 457.566598 282.799219 
L 461.458727 282.799219 
L 461.458727 262.414219 
L 457.566598 262.414219 
z
"/>
   </g>
   <g id="patch_111">
    <path clip-path="url(#pc7a44bfcc3)" d="M 461.458727 282.799219 
L 465.350857 282.799219 
L 465.350857 276.004219 
L 461.458727 276.004219 
z
"/>
   </g>
   <g id="patch_112">
    <path clip-path="url(#pc7a44bfcc3)" d="M 465.350857 282.799219 
L 469.242986 282.799219 
L 469.242986 269.209219 
L 465.350857 269.209219 
z
"/>
   </g>
   <g id="patch_113">
    <path clip-path="url(#pc7a44bfcc3)" d="M 469.242986 282.799219 
L 473.135116 282.799219 
L 473.135116 235.234219 
L 469.242986 235.234219 
z
"/>
   </g>
   <g id="patch_114">
    <path clip-path="url(#pc7a44bfcc3)" d="M 473.135116 282.799219 
L 477.027245 282.799219 
L 477.027245 269.209219 
L 473.135116 269.209219 
z
"/>
   </g>
   <g id="patch_115">
    <path clip-path="url(#pc7a44bfcc3)" d="M 477.027245 282.799219 
L 480.919374 282.799219 
L 480.919374 269.209219 
L 477.027245 269.209219 
z
"/>
   </g>
   <g id="patch_116">
    <path clip-path="url(#pc7a44bfcc3)" d="M 480.919374 282.799219 
L 484.811504 282.799219 
L 484.811504 276.004219 
L 480.919374 276.004219 
z
"/>
   </g>
   <g id="patch_117">
    <path clip-path="url(#pc7a44bfcc3)" d="M 484.811504 282.799219 
L 488.703633 282.799219 
L 488.703633 269.209219 
L 484.811504 269.209219 
z
"/>
   </g>
   <g id="patch_118">
    <path clip-path="url(#pc7a44bfcc3)" d="M 488.703633 282.799219 
L 492.595763 282.799219 
L 492.595763 276.004219 
L 488.703633 276.004219 
z
"/>
   </g>
   <g id="patch_119">
    <path clip-path="url(#pc7a44bfcc3)" d="M 492.595763 282.799219 
L 496.487892 282.799219 
L 496.487892 262.414219 
L 492.595763 262.414219 
z
"/>
   </g>
   <g id="patch_120">
    <path clip-path="url(#pc7a44bfcc3)" d="M 496.487892 282.799219 
L 500.380022 282.799219 
L 500.380022 248.824219 
L 496.487892 248.824219 
z
"/>
   </g>
   <g id="patch_121">
    <path clip-path="url(#pc7a44bfcc3)" d="M 500.380022 282.799219 
L 504.272151 282.799219 
L 504.272151 276.004219 
L 500.380022 276.004219 
z
"/>
   </g>
   <g id="patch_122">
    <path clip-path="url(#pc7a44bfcc3)" d="M 504.272151 282.799219 
L 508.164281 282.799219 
L 508.164281 269.209219 
L 504.272151 269.209219 
z
"/>
   </g>
   <g id="patch_123">
    <path clip-path="url(#pc7a44bfcc3)" d="M 508.164281 282.799219 
L 512.05641 282.799219 
L 512.05641 262.414219 
L 508.164281 262.414219 
z
"/>
   </g>
   <g id="patch_124">
    <path clip-path="url(#pc7a44bfcc3)" d="M 512.05641 282.799219 
L 515.948539 282.799219 
L 515.948539 269.209219 
L 512.05641 269.209219 
z
"/>
   </g>
   <g id="patch_125">
    <path clip-path="url(#pc7a44bfcc3)" d="M 515.948539 282.799219 
L 519.840669 282.799219 
L 519.840669 269.209219 
L 515.948539 269.209219 
z
"/>
   </g>
   <g id="patch_126">
    <path clip-path="url(#pc7a44bfcc3)" d="M 519.840669 282.799219 
L 523.732798 282.799219 
L 523.732798 269.209219 
L 519.840669 269.209219 
z
"/>
   </g>
   <g id="patch_127">
    <path clip-path="url(#pc7a44bfcc3)" d="M 523.732798 282.799219 
L 527.624928 282.799219 
L 527.624928 269.209219 
L 523.732798 269.209219 
z
"/>
   </g>
   <g id="patch_128">
    <path clip-path="url(#pc7a44bfcc3)" d="M 527.624928 282.799219 
L 531.517057 282.799219 
L 531.517057 255.619219 
L 527.624928 255.619219 
z
"/>
   </g>
   <g id="patch_129">
    <path clip-path="url(#pc7a44bfcc3)" d="M 531.517057 282.799219 
L 535.409187 282.799219 
L 535.409187 269.209219 
L 531.517057 269.209219 
z
"/>
   </g>
   <g id="patch_130">
    <path clip-path="url(#pc7a44bfcc3)" d="M 535.409187 282.799219 
L 539.301316 282.799219 
L 539.301316 269.209219 
L 535.409187 269.209219 
z
"/>
   </g>
   <g id="patch_131">
    <path clip-path="url(#pc7a44bfcc3)" d="M 539.301316 282.799219 
L 543.193446 282.799219 
L 543.193446 248.824219 
L 539.301316 248.824219 
z
"/>
   </g>
   <g id="patch_132">
    <path clip-path="url(#pc7a44bfcc3)" d="M 543.193446 282.799219 
L 547.085575 282.799219 
L 547.085575 235.234219 
L 543.193446 235.234219 
z
"/>
   </g>
   <g id="patch_133">
    <path clip-path="url(#pc7a44bfcc3)" d="M 547.085575 282.799219 
L 550.977704 282.799219 
L 550.977704 276.004219 
L 547.085575 276.004219 
z
"/>
   </g>
   <g id="patch_134">
    <path clip-path="url(#pc7a44bfcc3)" d="M 550.977704 282.799219 
L 554.869834 282.799219 
L 554.869834 262.414219 
L 550.977704 262.414219 
z
"/>
   </g>
   <g id="patch_135">
    <path clip-path="url(#pc7a44bfcc3)" d="M 554.869834 282.799219 
L 558.761963 282.799219 
L 558.761963 282.799219 
L 554.869834 282.799219 
z
"/>
   </g>
   <g id="patch_136">
    <path clip-path="url(#pc7a44bfcc3)" d="M 558.761963 282.799219 
L 562.654093 282.799219 
L 562.654093 248.824219 
L 558.761963 248.824219 
z
"/>
   </g>
   <g id="patch_137">
    <path clip-path="url(#pc7a44bfcc3)" d="M 562.654093 282.799219 
L 566.546222 282.799219 
L 566.546222 262.414219 
L 562.654093 262.414219 
z
"/>
   </g>
   <g id="patch_138">
    <path clip-path="url(#pc7a44bfcc3)" d="M 566.546222 282.799219 
L 570.438352 282.799219 
L 570.438352 262.414219 
L 566.546222 262.414219 
z
"/>
   </g>
   <g id="patch_139">
    <path clip-path="url(#pc7a44bfcc3)" d="M 570.438352 282.799219 
L 574.330481 282.799219 
L 574.330481 269.209219 
L 570.438352 269.209219 
z
"/>
   </g>
   <g id="patch_140">
    <path clip-path="url(#pc7a44bfcc3)" d="M 574.330481 282.799219 
L 578.222611 282.799219 
L 578.222611 235.234219 
L 574.330481 235.234219 
z
"/>
   </g>
   <g id="patch_141">
    <path clip-path="url(#pc7a44bfcc3)" d="M 578.222611 282.799219 
L 582.11474 282.799219 
L 582.11474 255.619219 
L 578.222611 255.619219 
z
"/>
   </g>
   <g id="patch_142">
    <path clip-path="url(#pc7a44bfcc3)" d="M 582.11474 282.799219 
L 586.006869 282.799219 
L 586.006869 228.439219 
L 582.11474 228.439219 
z
"/>
   </g>
   <g id="patch_143">
    <path clip-path="url(#pc7a44bfcc3)" d="M 586.006869 282.799219 
L 589.898999 282.799219 
L 589.898999 262.414219 
L 586.006869 262.414219 
z
"/>
   </g>
   <g id="patch_144">
    <path clip-path="url(#pc7a44bfcc3)" d="M 589.898999 282.799219 
L 593.791128 282.799219 
L 593.791128 248.824219 
L 589.898999 248.824219 
z
"/>
   </g>
   <g id="patch_145">
    <path clip-path="url(#pc7a44bfcc3)" d="M 593.791128 282.799219 
L 597.683258 282.799219 
L 597.683258 269.209219 
L 593.791128 269.209219 
z
"/>
   </g>
   <g id="patch_146">
    <path clip-path="url(#pc7a44bfcc3)" d="M 597.683258 282.799219 
L 601.575387 282.799219 
L 601.575387 269.209219 
L 597.683258 269.209219 
z
"/>
   </g>
   <g id="patch_147">
    <path clip-path="url(#pc7a44bfcc3)" d="M 601.575387 282.799219 
L 605.467517 282.799219 
L 605.467517 255.619219 
L 601.575387 255.619219 
z
"/>
   </g>
   <g id="patch_148">
    <path clip-path="url(#pc7a44bfcc3)" d="M 605.467517 282.799219 
L 609.359646 282.799219 
L 609.359646 269.209219 
L 605.467517 269.209219 
z
"/>
   </g>
   <g id="patch_149">
    <path clip-path="url(#pc7a44bfcc3)" d="M 609.359646 282.799219 
L 613.251776 282.799219 
L 613.251776 248.824219 
L 609.359646 248.824219 
z
"/>
   </g>
   <g id="patch_150">
    <path clip-path="url(#pc7a44bfcc3)" d="M 613.251776 282.799219 
L 617.143905 282.799219 
L 617.143905 255.619219 
L 613.251776 255.619219 
z
"/>
   </g>
   <g id="patch_151">
    <path clip-path="url(#pc7a44bfcc3)" d="M 617.143905 282.799219 
L 621.036034 282.799219 
L 621.036034 242.029219 
L 617.143905 242.029219 
z
"/>
   </g>
   <g id="patch_152">
    <path clip-path="url(#pc7a44bfcc3)" d="M 621.036034 282.799219 
L 624.928164 282.799219 
L 624.928164 242.029219 
L 621.036034 242.029219 
z
"/>
   </g>
   <g id="patch_153">
    <path clip-path="url(#pc7a44bfcc3)" d="M 624.928164 282.799219 
L 628.820293 282.799219 
L 628.820293 208.054219 
L 624.928164 208.054219 
z
"/>
   </g>
   <g id="patch_154">
    <path clip-path="url(#pc7a44bfcc3)" d="M 628.820293 282.799219 
L 632.712423 282.799219 
L 632.712423 235.234219 
L 628.820293 235.234219 
z
"/>
   </g>
   <g id="patch_155">
    <path clip-path="url(#pc7a44bfcc3)" d="M 632.712423 282.799219 
L 636.604552 282.799219 
L 636.604552 221.644219 
L 632.712423 221.644219 
z
"/>
   </g>
   <g id="patch_156">
    <path clip-path="url(#pc7a44bfcc3)" d="M 636.604552 282.799219 
L 640.496682 282.799219 
L 640.496682 242.029219 
L 636.604552 242.029219 
z
"/>
   </g>
   <g id="patch_157">
    <path clip-path="url(#pc7a44bfcc3)" d="M 640.496682 282.799219 
L 644.388811 282.799219 
L 644.388811 255.619219 
L 640.496682 255.619219 
z
"/>
   </g>
   <g id="patch_158">
    <path clip-path="url(#pc7a44bfcc3)" d="M 644.388811 282.799219 
L 648.280941 282.799219 
L 648.280941 262.414219 
L 644.388811 262.414219 
z
"/>
   </g>
   <g id="patch_159">
    <path clip-path="url(#pc7a44bfcc3)" d="M 648.280941 282.799219 
L 652.17307 282.799219 
L 652.17307 242.029219 
L 648.280941 242.029219 
z
"/>
   </g>
   <g id="patch_160">
    <path clip-path="url(#pc7a44bfcc3)" d="M 652.17307 282.799219 
L 656.0652 282.799219 
L 656.0652 248.824219 
L 652.17307 248.824219 
z
"/>
   </g>
   <g id="patch_161">
    <path clip-path="url(#pc7a44bfcc3)" d="M 656.0652 282.799219 
L 659.957329 282.799219 
L 659.957329 235.234219 
L 656.0652 235.234219 
z
"/>
   </g>
   <g id="patch_162">
    <path clip-path="url(#pc7a44bfcc3)" d="M 659.957329 282.799219 
L 663.849458 282.799219 
L 663.849458 235.234219 
L 659.957329 235.234219 
z
"/>
   </g>
   <g id="patch_163">
    <path clip-path="url(#pc7a44bfcc3)" d="M 663.849458 282.799219 
L 667.741588 282.799219 
L 667.741588 255.619219 
L 663.849458 255.619219 
z
"/>
   </g>
   <g id="patch_164">
    <path clip-path="url(#pc7a44bfcc3)" d="M 667.741588 282.799219 
L 671.633717 282.799219 
L 671.633717 276.004219 
L 667.741588 276.004219 
z
"/>
   </g>
   <g id="patch_165">
    <path clip-path="url(#pc7a44bfcc3)" d="M 671.633717 282.799219 
L 675.525847 282.799219 
L 675.525847 262.414219 
L 671.633717 262.414219 
z
"/>
   </g>
   <g id="patch_166">
    <path clip-path="url(#pc7a44bfcc3)" d="M 675.525847 282.799219 
L 679.417976 282.799219 
L 679.417976 248.824219 
L 675.525847 248.824219 
z
"/>
   </g>
   <g id="patch_167">
    <path clip-path="url(#pc7a44bfcc3)" d="M 679.417976 282.799219 
L 683.310106 282.799219 
L 683.310106 262.414219 
L 679.417976 262.414219 
z
"/>
   </g>
   <g id="patch_168">
    <path clip-path="url(#pc7a44bfcc3)" d="M 683.310106 282.799219 
L 687.202235 282.799219 
L 687.202235 248.824219 
L 683.310106 248.824219 
z
"/>
   </g>
   <g id="patch_169">
    <path clip-path="url(#pc7a44bfcc3)" d="M 687.202235 282.799219 
L 691.094365 282.799219 
L 691.094365 228.439219 
L 687.202235 228.439219 
z
"/>
   </g>
   <g id="patch_170">
    <path clip-path="url(#pc7a44bfcc3)" d="M 691.094365 282.799219 
L 694.986494 282.799219 
L 694.986494 242.029219 
L 691.094365 242.029219 
z
"/>
   </g>
   <g id="patch_171">
    <path clip-path="url(#pc7a44bfcc3)" d="M 694.986494 282.799219 
L 698.878623 282.799219 
L 698.878623 262.414219 
L 694.986494 262.414219 
z
"/>
   </g>
   <g id="patch_172">
    <path clip-path="url(#pc7a44bfcc3)" d="M 698.878623 282.799219 
L 702.770753 282.799219 
L 702.770753 242.029219 
L 698.878623 242.029219 
z
"/>
   </g>
   <g id="patch_173">
    <path clip-path="url(#pc7a44bfcc3)" d="M 702.770753 282.799219 
L 706.662882 282.799219 
L 706.662882 228.439219 
L 702.770753 228.439219 
z
"/>
   </g>
   <g id="patch_174">
    <path clip-path="url(#pc7a44bfcc3)" d="M 706.662882 282.799219 
L 710.555012 282.799219 
L 710.555012 228.439219 
L 706.662882 228.439219 
z
"/>
   </g>
   <g id="patch_175">
    <path clip-path="url(#pc7a44bfcc3)" d="M 710.555012 282.799219 
L 714.447141 282.799219 
L 714.447141 262.414219 
L 710.555012 262.414219 
z
"/>
   </g>
   <g id="patch_176">
    <path clip-path="url(#pc7a44bfcc3)" d="M 714.447141 282.799219 
L 718.339271 282.799219 
L 718.339271 255.619219 
L 714.447141 255.619219 
z
"/>
   </g>
   <g id="patch_177">
    <path clip-path="url(#pc7a44bfcc3)" d="M 718.339271 282.799219 
L 722.2314 282.799219 
L 722.2314 282.799219 
L 718.339271 282.799219 
z
"/>
   </g>
   <g id="patch_178">
    <path clip-path="url(#pc7a44bfcc3)" d="M 722.2314 282.799219 
L 726.12353 282.799219 
L 726.12353 242.029219 
L 722.2314 242.029219 
z
"/>
   </g>
   <g id="patch_179">
    <path clip-path="url(#pc7a44bfcc3)" d="M 726.12353 282.799219 
L 730.015659 282.799219 
L 730.015659 276.004219 
L 726.12353 276.004219 
z
"/>
   </g>
   <g id="patch_180">
    <path clip-path="url(#pc7a44bfcc3)" d="M 730.015659 282.799219 
L 733.907788 282.799219 
L 733.907788 248.824219 
L 730.015659 248.824219 
z
"/>
   </g>
   <g id="patch_181">
    <path clip-path="url(#pc7a44bfcc3)" d="M 733.907788 282.799219 
L 737.799918 282.799219 
L 737.799918 235.234219 
L 733.907788 235.234219 
z
"/>
   </g>
   <g id="patch_182">
    <path clip-path="url(#pc7a44bfcc3)" d="M 737.799918 282.799219 
L 741.692047 282.799219 
L 741.692047 221.644219 
L 737.799918 221.644219 
z
"/>
   </g>
   <g id="patch_183">
    <path clip-path="url(#pc7a44bfcc3)" d="M 741.692047 282.799219 
L 745.584177 282.799219 
L 745.584177 248.824219 
L 741.692047 248.824219 
z
"/>
   </g>
   <g id="patch_184">
    <path clip-path="url(#pc7a44bfcc3)" d="M 745.584177 282.799219 
L 749.476306 282.799219 
L 749.476306 235.234219 
L 745.584177 235.234219 
z
"/>
   </g>
   <g id="patch_185">
    <path clip-path="url(#pc7a44bfcc3)" d="M 749.476306 282.799219 
L 753.368436 282.799219 
L 753.368436 255.619219 
L 749.476306 255.619219 
z
"/>
   </g>
   <g id="patch_186">
    <path clip-path="url(#pc7a44bfcc3)" d="M 753.368436 282.799219 
L 757.260565 282.799219 
L 757.260565 194.464219 
L 753.368436 194.464219 
z
"/>
   </g>
   <g id="patch_187">
    <path clip-path="url(#pc7a44bfcc3)" d="M 757.260565 282.799219 
L 761.152695 282.799219 
L 761.152695 255.619219 
L 757.260565 255.619219 
z
"/>
   </g>
   <g id="patch_188">
    <path clip-path="url(#pc7a44bfcc3)" d="M 761.152695 282.799219 
L 765.044824 282.799219 
L 765.044824 276.004219 
L 761.152695 276.004219 
z
"/>
   </g>
   <g id="patch_189">
    <path clip-path="url(#pc7a44bfcc3)" d="M 765.044824 282.799219 
L 768.936953 282.799219 
L 768.936953 228.439219 
L 765.044824 228.439219 
z
"/>
   </g>
   <g id="patch_190">
    <path clip-path="url(#pc7a44bfcc3)" d="M 768.936953 282.799219 
L 772.829083 282.799219 
L 772.829083 248.824219 
L 768.936953 248.824219 
z
"/>
   </g>
   <g id="patch_191">
    <path clip-path="url(#pc7a44bfcc3)" d="M 772.829083 282.799219 
L 776.721212 282.799219 
L 776.721212 262.414219 
L 772.829083 262.414219 
z
"/>
   </g>
   <g id="patch_192">
    <path clip-path="url(#pc7a44bfcc3)" d="M 776.721212 282.799219 
L 780.613342 282.799219 
L 780.613342 248.824219 
L 776.721212 248.824219 
z
"/>
   </g>
   <g id="patch_193">
    <path clip-path="url(#pc7a44bfcc3)" d="M 780.613342 282.799219 
L 784.505471 282.799219 
L 784.505471 269.209219 
L 780.613342 269.209219 
z
"/>
   </g>
   <g id="patch_194">
    <path clip-path="url(#pc7a44bfcc3)" d="M 784.505471 282.799219 
L 788.397601 282.799219 
L 788.397601 276.004219 
L 784.505471 276.004219 
z
"/>
   </g>
   <g id="patch_195">
    <path clip-path="url(#pc7a44bfcc3)" d="M 788.397601 282.799219 
L 792.28973 282.799219 
L 792.28973 262.414219 
L 788.397601 262.414219 
z
"/>
   </g>
   <g id="patch_196">
    <path clip-path="url(#pc7a44bfcc3)" d="M 792.28973 282.799219 
L 796.18186 282.799219 
L 796.18186 269.209219 
L 792.28973 269.209219 
z
"/>
   </g>
   <g id="patch_197">
    <path clip-path="url(#pc7a44bfcc3)" d="M 796.18186 282.799219 
L 800.073989 282.799219 
L 800.073989 276.004219 
L 796.18186 276.004219 
z
"/>
   </g>
   <g id="patch_198">
    <path clip-path="url(#pc7a44bfcc3)" d="M 800.073989 282.799219 
L 803.966119 282.799219 
L 803.966119 276.004219 
L 800.073989 276.004219 
z
"/>
   </g>
   <g id="patch_199">
    <path clip-path="url(#pc7a44bfcc3)" d="M 803.966119 282.799219 
L 807.858248 282.799219 
L 807.858248 235.234219 
L 803.966119 235.234219 
z
"/>
   </g>
   <g id="patch_200">
    <path clip-path="url(#pc7a44bfcc3)" d="M 807.858248 282.799219 
L 811.750377 282.799219 
L 811.750377 262.414219 
L 807.858248 262.414219 
z
"/>
   </g>
   <g id="patch_201">
    <path clip-path="url(#pc7a44bfcc3)" d="M 811.750377 282.799219 
L 815.642507 282.799219 
L 815.642507 276.004219 
L 811.750377 276.004219 
z
"/>
   </g>
   <g id="patch_202">
    <path clip-path="url(#pc7a44bfcc3)" d="M 815.642507 282.799219 
L 819.534636 282.799219 
L 819.534636 276.004219 
L 815.642507 276.004219 
z
"/>
   </g>
   <g id="matplotlib.axis_1">
    <g id="xtick_1"/>
    <g id="xtick_2"/>
    <g id="xtick_3"/>
    <g id="xtick_4"/>
    <g id="xtick_5"/>
    <g id="xtick_6"/>
    <g id="xtick_7"/>
    <g id="xtick_8"/>
   </g>
   <g id="matplotlib.axis_2">
    <g id="ytick_1">
     <g id="line2d_1">
      <defs>
       <path d="M 0 0 
L -3.5 0 
" id="m8e9be8cec0" style="stroke:#000000;stroke-width:0.8;"/>
      </defs>
      <g>
       <use style="stroke:#000000;stroke-width:0.8;" x="45.034375" xlink:href="#m8e9be8cec0" y="282.799219"/>
      </g>
     </g>
     <g id="text_1">
      <!-- 0 -->
      <defs>
       <path d="M 31.78125 66.40625 
Q 24.171875 66.40625 20.328125 58.90625 
Q 16.5 51.421875 16.5 36.375 
Q 16.5 21.390625 20.328125 13.890625 
Q 24.171875 6.390625 31.78125 6.390625 
Q 39.453125 6.390625 43.28125 13.890625 
Q 47.125 21.390625 47.125 36.375 
Q 47.125 51.421875 43.28125 58.90625 
Q 39.453125 66.40625 31.78125 66.40625 
z
M 31.78125 74.21875 
Q 44.046875 74.21875 50.515625 64.515625 
Q 56.984375 54.828125 56.984375 36.375 
Q 56.984375 17.96875 50.515625 8.265625 
Q 44.046875 -1.421875 31.78125 -1.421875 
Q 19.53125 -1.421875 13.0625 8.265625 
Q 6.59375 17.96875 6.59375 36.375 
Q 6.59375 54.828125 13.0625 64.515625 
Q 19.53125 74.21875 31.78125 74.21875 
z
" id="DejaVuSans-48"/>
      </defs>
      <g transform="translate(31.671875 286.598437)scale(0.1 -0.1)">
       <use xlink:href="#DejaVuSans-48"/>
      </g>
     </g>
    </g>
    <g id="ytick_2">
     <g id="line2d_2">
      <g>
       <use style="stroke:#000000;stroke-width:0.8;" x="45.034375" xlink:href="#m8e9be8cec0" y="248.824219"/>
      </g>
     </g>
     <g id="text_2">
      <!-- 5 -->
      <defs>
       <path d="M 10.796875 72.90625 
L 49.515625 72.90625 
L 49.515625 64.59375 
L 19.828125 64.59375 
L 19.828125 46.734375 
Q 21.96875 47.46875 24.109375 47.828125 
Q 26.265625 48.1875 28.421875 48.1875 
Q 40.625 48.1875 47.75 41.5 
Q 54.890625 34.8125 54.890625 23.390625 
Q 54.890625 11.625 47.5625 5.09375 
Q 40.234375 -1.421875 26.90625 -1.421875 
Q 22.3125 -1.421875 17.546875 -0.640625 
Q 12.796875 0.140625 7.71875 1.703125 
L 7.71875 11.625 
Q 12.109375 9.234375 16.796875 8.0625 
Q 21.484375 6.890625 26.703125 6.890625 
Q 35.15625 6.890625 40.078125 11.328125 
Q 45.015625 15.765625 45.015625 23.390625 
Q 45.015625 31 40.078125 35.4375 
Q 35.15625 39.890625 26.703125 39.890625 
Q 22.75 39.890625 18.8125 39.015625 
Q 14.890625 38.140625 10.796875 36.28125 
z
" id="DejaVuSans-53"/>
      </defs>
      <g transform="translate(31.671875 252.623437)scale(0.1 -0.1)">
       <use xlink:href="#DejaVuSans-53"/>
      </g>
     </g>
    </g>
    <g id="ytick_3">
     <g id="line2d_3">
      <g>
       <use style="stroke:#000000;stroke-width:0.8;" x="45.034375" xlink:href="#m8e9be8cec0" y="214.849219"/>
      </g>
     </g>
     <g id="text_3">
      <!-- 10 -->
      <defs>
       <path d="M 12.40625 8.296875 
L 28.515625 8.296875 
L 28.515625 63.921875 
L 10.984375 60.40625 
L 10.984375 69.390625 
L 28.421875 72.90625 
L 38.28125 72.90625 
L 38.28125 8.296875 
L 54.390625 8.296875 
L 54.390625 0 
L 12.40625 0 
z
" id="DejaVuSans-49"/>
      </defs>
      <g transform="translate(25.309375 218.648437)scale(0.1 -0.1)">
       <use xlink:href="#DejaVuSans-49"/>
       <use x="63.623047" xlink:href="#DejaVuSans-48"/>
      </g>
     </g>
    </g>
    <g id="ytick_4">
     <g id="line2d_4">
      <g>
       <use style="stroke:#000000;stroke-width:0.8;" x="45.034375" xlink:href="#m8e9be8cec0" y="180.874219"/>
      </g>
     </g>
     <g id="text_4">
      <!-- 15 -->
      <g transform="translate(25.309375 184.673437)scale(0.1 -0.1)">
       <use xlink:href="#DejaVuSans-49"/>
       <use x="63.623047" xlink:href="#DejaVuSans-53"/>
      </g>
     </g>
    </g>
    <g id="ytick_5">
     <g id="line2d_5">
      <g>
       <use style="stroke:#000000;stroke-width:0.8;" x="45.034375" xlink:href="#m8e9be8cec0" y="146.899219"/>
      </g>
     </g>
     <g id="text_5">
      <!-- 20 -->
      <defs>
       <path d="M 19.1875 8.296875 
L 53.609375 8.296875 
L 53.609375 0 
L 7.328125 0 
L 7.328125 8.296875 
Q 12.9375 14.109375 22.625 23.890625 
Q 32.328125 33.6875 34.8125 36.53125 
Q 39.546875 41.84375 41.421875 45.53125 
Q 43.3125 49.21875 43.3125 52.78125 
Q 43.3125 58.59375 39.234375 62.25 
Q 35.15625 65.921875 28.609375 65.921875 
Q 23.96875 65.921875 18.8125 64.3125 
Q 13.671875 62.703125 7.8125 59.421875 
L 7.8125 69.390625 
Q 13.765625 71.78125 18.9375 73 
Q 24.125 74.21875 28.421875 74.21875 
Q 39.75 74.21875 46.484375 68.546875 
Q 53.21875 62.890625 53.21875 53.421875 
Q 53.21875 48.921875 51.53125 44.890625 
Q 49.859375 40.875 45.40625 35.40625 
Q 44.1875 33.984375 37.640625 27.21875 
Q 31.109375 20.453125 19.1875 8.296875 
z
" id="DejaVuSans-50"/>
      </defs>
      <g transform="translate(25.309375 150.698437)scale(0.1 -0.1)">
       <use xlink:href="#DejaVuSans-50"/>
       <use x="63.623047" xlink:href="#DejaVuSans-48"/>
      </g>
     </g>
    </g>
    <g id="ytick_6">
     <g id="line2d_6">
      <g>
       <use style="stroke:#000000;stroke-width:0.8;" x="45.034375" xlink:href="#m8e9be8cec0" y="112.924219"/>
      </g>
     </g>
     <g id="text_6">
      <!-- 25 -->
      <g transform="translate(25.309375 116.723437)scale(0.1 -0.1)">
       <use xlink:href="#DejaVuSans-50"/>
       <use x="63.623047" xlink:href="#DejaVuSans-53"/>
      </g>
     </g>
    </g>
    <g id="ytick_7">
     <g id="line2d_7">
      <g>
       <use style="stroke:#000000;stroke-width:0.8;" x="45.034375" xlink:href="#m8e9be8cec0" y="78.949219"/>
      </g>
     </g>
     <g id="text_7">
      <!-- 30 -->
      <defs>
       <path d="M 40.578125 39.3125 
Q 47.65625 37.796875 51.625 33 
Q 55.609375 28.21875 55.609375 21.1875 
Q 55.609375 10.40625 48.1875 4.484375 
Q 40.765625 -1.421875 27.09375 -1.421875 
Q 22.515625 -1.421875 17.65625 -0.515625 
Q 12.796875 0.390625 7.625 2.203125 
L 7.625 11.71875 
Q 11.71875 9.328125 16.59375 8.109375 
Q 21.484375 6.890625 26.8125 6.890625 
Q 36.078125 6.890625 40.9375 10.546875 
Q 45.796875 14.203125 45.796875 21.1875 
Q 45.796875 27.640625 41.28125 31.265625 
Q 36.765625 34.90625 28.71875 34.90625 
L 20.21875 34.90625 
L 20.21875 43.015625 
L 29.109375 43.015625 
Q 36.375 43.015625 40.234375 45.921875 
Q 44.09375 48.828125 44.09375 54.296875 
Q 44.09375 59.90625 40.109375 62.90625 
Q 36.140625 65.921875 28.71875 65.921875 
Q 24.65625 65.921875 20.015625 65.03125 
Q 15.375 64.15625 9.8125 62.3125 
L 9.8125 71.09375 
Q 15.4375 72.65625 20.34375 73.4375 
Q 25.25 74.21875 29.59375 74.21875 
Q 40.828125 74.21875 47.359375 69.109375 
Q 53.90625 64.015625 53.90625 55.328125 
Q 53.90625 49.265625 50.4375 45.09375 
Q 46.96875 40.921875 40.578125 39.3125 
z
" id="DejaVuSans-51"/>
      </defs>
      <g transform="translate(25.309375 82.748437)scale(0.1 -0.1)">
       <use xlink:href="#DejaVuSans-51"/>
       <use x="63.623047" xlink:href="#DejaVuSans-48"/>
      </g>
     </g>
    </g>
    <g id="ytick_8">
     <g id="line2d_8">
      <g>
       <use style="stroke:#000000;stroke-width:0.8;" x="45.034375" xlink:href="#m8e9be8cec0" y="44.974219"/>
      </g>
     </g>
     <g id="text_8">
      <!-- 35 -->
      <g transform="translate(25.309375 48.773437)scale(0.1 -0.1)">
       <use xlink:href="#DejaVuSans-51"/>
       <use x="63.623047" xlink:href="#DejaVuSans-53"/>
      </g>
     </g>
    </g>
    <g id="ytick_9">
     <g id="line2d_9">
      <g>
       <use style="stroke:#000000;stroke-width:0.8;" x="45.034375" xlink:href="#m8e9be8cec0" y="10.999219"/>
      </g>
     </g>
     <g id="text_9">
      <!-- 40 -->
      <defs>
       <path d="M 37.796875 64.3125 
L 12.890625 25.390625 
L 37.796875 25.390625 
z
M 35.203125 72.90625 
L 47.609375 72.90625 
L 47.609375 25.390625 
L 58.015625 25.390625 
L 58.015625 17.1875 
L 47.609375 17.1875 
L 47.609375 0 
L 37.796875 0 
L 37.796875 17.1875 
L 4.890625 17.1875 
L 4.890625 26.703125 
z
" id="DejaVuSans-52"/>
      </defs>
      <g transform="translate(25.309375 14.798437)scale(0.1 -0.1)">
       <use xlink:href="#DejaVuSans-52"/>
       <use x="63.623047" xlink:href="#DejaVuSans-48"/>
      </g>
     </g>
    </g>
    <g id="text_10">
     <!-- Fréquence de décharge (Hz) -->
     <defs>
      <path d="M 9.8125 72.90625 
L 51.703125 72.90625 
L 51.703125 64.59375 
L 19.671875 64.59375 
L 19.671875 43.109375 
L 48.578125 43.109375 
L 48.578125 34.8125 
L 19.671875 34.8125 
L 19.671875 0 
L 9.8125 0 
z
" id="DejaVuSans-70"/>
      <path d="M 41.109375 46.296875 
Q 39.59375 47.171875 37.8125 47.578125 
Q 36.03125 48 33.890625 48 
Q 26.265625 48 22.1875 43.046875 
Q 18.109375 38.09375 18.109375 28.8125 
L 18.109375 0 
L 9.078125 0 
L 9.078125 54.6875 
L 18.109375 54.6875 
L 18.109375 46.1875 
Q 20.953125 51.171875 25.484375 53.578125 
Q 30.03125 56 36.53125 56 
Q 37.453125 56 38.578125 55.875 
Q 39.703125 55.765625 41.0625 55.515625 
z
" id="DejaVuSans-114"/>
      <path d="M 56.203125 29.59375 
L 56.203125 25.203125 
L 14.890625 25.203125 
Q 15.484375 15.921875 20.484375 11.0625 
Q 25.484375 6.203125 34.421875 6.203125 
Q 39.59375 6.203125 44.453125 7.46875 
Q 49.3125 8.734375 54.109375 11.28125 
L 54.109375 2.78125 
Q 49.265625 0.734375 44.1875 -0.34375 
Q 39.109375 -1.421875 33.890625 -1.421875 
Q 20.796875 -1.421875 13.15625 6.1875 
Q 5.515625 13.8125 5.515625 26.8125 
Q 5.515625 40.234375 12.765625 48.109375 
Q 20.015625 56 32.328125 56 
Q 43.359375 56 49.78125 48.890625 
Q 56.203125 41.796875 56.203125 29.59375 
z
M 47.21875 32.234375 
Q 47.125 39.59375 43.09375 43.984375 
Q 39.0625 48.390625 32.421875 48.390625 
Q 24.90625 48.390625 20.390625 44.140625 
Q 15.875 39.890625 15.1875 32.171875 
z
M 38.53125 79.984375 
L 48.25 79.984375 
L 32.34375 61.625 
L 24.859375 61.625 
z
" id="DejaVuSans-233"/>
      <path d="M 14.796875 27.296875 
Q 14.796875 17.390625 18.875 11.75 
Q 22.953125 6.109375 30.078125 6.109375 
Q 37.203125 6.109375 41.296875 11.75 
Q 45.40625 17.390625 45.40625 27.296875 
Q 45.40625 37.203125 41.296875 42.84375 
Q 37.203125 48.484375 30.078125 48.484375 
Q 22.953125 48.484375 18.875 42.84375 
Q 14.796875 37.203125 14.796875 27.296875 
z
M 45.40625 8.203125 
Q 42.578125 3.328125 38.25 0.953125 
Q 33.9375 -1.421875 27.875 -1.421875 
Q 17.96875 -1.421875 11.734375 6.484375 
Q 5.515625 14.40625 5.515625 27.296875 
Q 5.515625 40.1875 11.734375 48.09375 
Q 17.96875 56 27.875 56 
Q 33.9375 56 38.25 53.625 
Q 42.578125 51.265625 45.40625 46.390625 
L 45.40625 54.6875 
L 54.390625 54.6875 
L 54.390625 -20.796875 
L 45.40625 -20.796875 
z
" id="DejaVuSans-113"/>
      <path d="M 8.5 21.578125 
L 8.5 54.6875 
L 17.484375 54.6875 
L 17.484375 21.921875 
Q 17.484375 14.15625 20.5 10.265625 
Q 23.53125 6.390625 29.59375 6.390625 
Q 36.859375 6.390625 41.078125 11.03125 
Q 45.3125 15.671875 45.3125 23.6875 
L 45.3125 54.6875 
L 54.296875 54.6875 
L 54.296875 0 
L 45.3125 0 
L 45.3125 8.40625 
Q 42.046875 3.421875 37.71875 1 
Q 33.40625 -1.421875 27.6875 -1.421875 
Q 18.265625 -1.421875 13.375 4.4375 
Q 8.5 10.296875 8.5 21.578125 
z
M 31.109375 56 
z
" id="DejaVuSans-117"/>
      <path d="M 56.203125 29.59375 
L 56.203125 25.203125 
L 14.890625 25.203125 
Q 15.484375 15.921875 20.484375 11.0625 
Q 25.484375 6.203125 34.421875 6.203125 
Q 39.59375 6.203125 44.453125 7.46875 
Q 49.3125 8.734375 54.109375 11.28125 
L 54.109375 2.78125 
Q 49.265625 0.734375 44.1875 -0.34375 
Q 39.109375 -1.421875 33.890625 -1.421875 
Q 20.796875 -1.421875 13.15625 6.1875 
Q 5.515625 13.8125 5.515625 26.8125 
Q 5.515625 40.234375 12.765625 48.109375 
Q 20.015625 56 32.328125 56 
Q 43.359375 56 49.78125 48.890625 
Q 56.203125 41.796875 56.203125 29.59375 
z
M 47.21875 32.234375 
Q 47.125 39.59375 43.09375 43.984375 
Q 39.0625 48.390625 32.421875 48.390625 
Q 24.90625 48.390625 20.390625 44.140625 
Q 15.875 39.890625 15.1875 32.171875 
z
" id="DejaVuSans-101"/>
      <path d="M 54.890625 33.015625 
L 54.890625 0 
L 45.90625 0 
L 45.90625 32.71875 
Q 45.90625 40.484375 42.875 44.328125 
Q 39.84375 48.1875 33.796875 48.1875 
Q 26.515625 48.1875 22.3125 43.546875 
Q 18.109375 38.921875 18.109375 30.90625 
L 18.109375 0 
L 9.078125 0 
L 9.078125 54.6875 
L 18.109375 54.6875 
L 18.109375 46.1875 
Q 21.34375 51.125 25.703125 53.5625 
Q 30.078125 56 35.796875 56 
Q 45.21875 56 50.046875 50.171875 
Q 54.890625 44.34375 54.890625 33.015625 
z
" id="DejaVuSans-110"/>
      <path d="M 48.78125 52.59375 
L 48.78125 44.1875 
Q 44.96875 46.296875 41.140625 47.34375 
Q 37.3125 48.390625 33.40625 48.390625 
Q 24.65625 48.390625 19.8125 42.84375 
Q 14.984375 37.3125 14.984375 27.296875 
Q 14.984375 17.28125 19.8125 11.734375 
Q 24.65625 6.203125 33.40625 6.203125 
Q 37.3125 6.203125 41.140625 7.25 
Q 44.96875 8.296875 48.78125 10.40625 
L 48.78125 2.09375 
Q 45.015625 0.34375 40.984375 -0.53125 
Q 36.96875 -1.421875 32.421875 -1.421875 
Q 20.0625 -1.421875 12.78125 6.34375 
Q 5.515625 14.109375 5.515625 27.296875 
Q 5.515625 40.671875 12.859375 48.328125 
Q 20.21875 56 33.015625 56 
Q 37.15625 56 41.109375 55.140625 
Q 45.0625 54.296875 48.78125 52.59375 
z
" id="DejaVuSans-99"/>
      <path id="DejaVuSans-32"/>
      <path d="M 45.40625 46.390625 
L 45.40625 75.984375 
L 54.390625 75.984375 
L 54.390625 0 
L 45.40625 0 
L 45.40625 8.203125 
Q 42.578125 3.328125 38.25 0.953125 
Q 33.9375 -1.421875 27.875 -1.421875 
Q 17.96875 -1.421875 11.734375 6.484375 
Q 5.515625 14.40625 5.515625 27.296875 
Q 5.515625 40.1875 11.734375 48.09375 
Q 17.96875 56 27.875 56 
Q 33.9375 56 38.25 53.625 
Q 42.578125 51.265625 45.40625 46.390625 
z
M 14.796875 27.296875 
Q 14.796875 17.390625 18.875 11.75 
Q 22.953125 6.109375 30.078125 6.109375 
Q 37.203125 6.109375 41.296875 11.75 
Q 45.40625 17.390625 45.40625 27.296875 
Q 45.40625 37.203125 41.296875 42.84375 
Q 37.203125 48.484375 30.078125 48.484375 
Q 22.953125 48.484375 18.875 42.84375 
Q 14.796875 37.203125 14.796875 27.296875 
z
" id="DejaVuSans-100"/>
      <path d="M 54.890625 33.015625 
L 54.890625 0 
L 45.90625 0 
L 45.90625 32.71875 
Q 45.90625 40.484375 42.875 44.328125 
Q 39.84375 48.1875 33.796875 48.1875 
Q 26.515625 48.1875 22.3125 43.546875 
Q 18.109375 38.921875 18.109375 30.90625 
L 18.109375 0 
L 9.078125 0 
L 9.078125 75.984375 
L 18.109375 75.984375 
L 18.109375 46.1875 
Q 21.34375 51.125 25.703125 53.5625 
Q 30.078125 56 35.796875 56 
Q 45.21875 56 50.046875 50.171875 
Q 54.890625 44.34375 54.890625 33.015625 
z
" id="DejaVuSans-104"/>
      <path d="M 34.28125 27.484375 
Q 23.390625 27.484375 19.1875 25 
Q 14.984375 22.515625 14.984375 16.5 
Q 14.984375 11.71875 18.140625 8.90625 
Q 21.296875 6.109375 26.703125 6.109375 
Q 34.1875 6.109375 38.703125 11.40625 
Q 43.21875 16.703125 43.21875 25.484375 
L 43.21875 27.484375 
z
M 52.203125 31.203125 
L 52.203125 0 
L 43.21875 0 
L 43.21875 8.296875 
Q 40.140625 3.328125 35.546875 0.953125 
Q 30.953125 -1.421875 24.3125 -1.421875 
Q 15.921875 -1.421875 10.953125 3.296875 
Q 6 8.015625 6 15.921875 
Q 6 25.140625 12.171875 29.828125 
Q 18.359375 34.515625 30.609375 34.515625 
L 43.21875 34.515625 
L 43.21875 35.40625 
Q 43.21875 41.609375 39.140625 45 
Q 35.0625 48.390625 27.6875 48.390625 
Q 23 48.390625 18.546875 47.265625 
Q 14.109375 46.140625 10.015625 43.890625 
L 10.015625 52.203125 
Q 14.9375 54.109375 19.578125 55.046875 
Q 24.21875 56 28.609375 56 
Q 40.484375 56 46.34375 49.84375 
Q 52.203125 43.703125 52.203125 31.203125 
z
" id="DejaVuSans-97"/>
      <path d="M 45.40625 27.984375 
Q 45.40625 37.75 41.375 43.109375 
Q 37.359375 48.484375 30.078125 48.484375 
Q 22.859375 48.484375 18.828125 43.109375 
Q 14.796875 37.75 14.796875 27.984375 
Q 14.796875 18.265625 18.828125 12.890625 
Q 22.859375 7.515625 30.078125 7.515625 
Q 37.359375 7.515625 41.375 12.890625 
Q 45.40625 18.265625 45.40625 27.984375 
z
M 54.390625 6.78125 
Q 54.390625 -7.171875 48.1875 -13.984375 
Q 42 -20.796875 29.203125 -20.796875 
Q 24.46875 -20.796875 20.265625 -20.09375 
Q 16.0625 -19.390625 12.109375 -17.921875 
L 12.109375 -9.1875 
Q 16.0625 -11.328125 19.921875 -12.34375 
Q 23.78125 -13.375 27.78125 -13.375 
Q 36.625 -13.375 41.015625 -8.765625 
Q 45.40625 -4.15625 45.40625 5.171875 
L 45.40625 9.625 
Q 42.625 4.78125 38.28125 2.390625 
Q 33.9375 0 27.875 0 
Q 17.828125 0 11.671875 7.65625 
Q 5.515625 15.328125 5.515625 27.984375 
Q 5.515625 40.671875 11.671875 48.328125 
Q 17.828125 56 27.875 56 
Q 33.9375 56 38.28125 53.609375 
Q 42.625 51.21875 45.40625 46.390625 
L 45.40625 54.6875 
L 54.390625 54.6875 
z
" id="DejaVuSans-103"/>
      <path d="M 31 75.875 
Q 24.46875 64.65625 21.28125 53.65625 
Q 18.109375 42.671875 18.109375 31.390625 
Q 18.109375 20.125 21.3125 9.0625 
Q 24.515625 -2 31 -13.1875 
L 23.1875 -13.1875 
Q 15.875 -1.703125 12.234375 9.375 
Q 8.59375 20.453125 8.59375 31.390625 
Q 8.59375 42.28125 12.203125 53.3125 
Q 15.828125 64.359375 23.1875 75.875 
z
" id="DejaVuSans-40"/>
      <path d="M 9.8125 72.90625 
L 19.671875 72.90625 
L 19.671875 43.015625 
L 55.515625 43.015625 
L 55.515625 72.90625 
L 65.375 72.90625 
L 65.375 0 
L 55.515625 0 
L 55.515625 34.71875 
L 19.671875 34.71875 
L 19.671875 0 
L 9.8125 0 
z
" id="DejaVuSans-72"/>
      <path d="M 5.515625 54.6875 
L 48.1875 54.6875 
L 48.1875 46.484375 
L 14.40625 7.171875 
L 48.1875 7.171875 
L 48.1875 0 
L 4.296875 0 
L 4.296875 8.203125 
L 38.09375 47.515625 
L 5.515625 47.515625 
z
" id="DejaVuSans-122"/>
      <path d="M 8.015625 75.875 
L 15.828125 75.875 
Q 23.140625 64.359375 26.78125 53.3125 
Q 30.421875 42.28125 30.421875 31.390625 
Q 30.421875 20.453125 26.78125 9.375 
Q 23.140625 -1.703125 15.828125 -13.1875 
L 8.015625 -13.1875 
Q 14.5 -2 17.703125 9.0625 
Q 20.90625 20.125 20.90625 31.390625 
Q 20.90625 42.671875 17.703125 53.65625 
Q 14.5 64.65625 8.015625 75.875 
z
" id="DejaVuSans-41"/>
     </defs>
     <g transform="translate(18.397813 246.659062)rotate(-90)scale(0.14 -0.14)">
      <use xlink:href="#DejaVuSans-70"/>
      <use x="57.410156" xlink:href="#DejaVuSans-114"/>
      <use x="98.492188" xlink:href="#DejaVuSans-233"/>
      <use x="160.015625" xlink:href="#DejaVuSans-113"/>
      <use x="223.492188" xlink:href="#DejaVuSans-117"/>
      <use x="286.871094" xlink:href="#DejaVuSans-101"/>
      <use x="348.394531" xlink:href="#DejaVuSans-110"/>
      <use x="411.773438" xlink:href="#DejaVuSans-99"/>
      <use x="466.753906" xlink:href="#DejaVuSans-101"/>
      <use x="528.277344" xlink:href="#DejaVuSans-32"/>
      <use x="560.064453" xlink:href="#DejaVuSans-100"/>
      <use x="623.541016" xlink:href="#DejaVuSans-101"/>
      <use x="685.064453" xlink:href="#DejaVuSans-32"/>
      <use x="716.851562" xlink:href="#DejaVuSans-100"/>
      <use x="780.328125" xlink:href="#DejaVuSans-233"/>
      <use x="841.851562" xlink:href="#DejaVuSans-99"/>
      <use x="896.832031" xlink:href="#DejaVuSans-104"/>
      <use x="960.210938" xlink:href="#DejaVuSans-97"/>
      <use x="1021.490234" xlink:href="#DejaVuSans-114"/>
      <use x="1062.587891" xlink:href="#DejaVuSans-103"/>
      <use x="1126.064453" xlink:href="#DejaVuSans-101"/>
      <use x="1187.587891" xlink:href="#DejaVuSans-32"/>
      <use x="1219.375" xlink:href="#DejaVuSans-40"/>
      <use x="1258.388672" xlink:href="#DejaVuSans-72"/>
      <use x="1333.583984" xlink:href="#DejaVuSans-122"/>
      <use x="1386.074219" xlink:href="#DejaVuSans-41"/>
     </g>
    </g>
   </g>
   <g id="patch_203">
    <path d="M 45.034375 282.799219 
L 45.034375 10.999219 
" style="fill:none;stroke:#000000;stroke-linecap:square;stroke-linejoin:miter;stroke-width:0.8;"/>
   </g>
   <g id="patch_204">
    <path d="M 826.234375 282.799219 
L 826.234375 10.999219 
" style="fill:none;stroke:#000000;stroke-linecap:square;stroke-linejoin:miter;stroke-width:0.8;"/>
   </g>
   <g id="patch_205">
    <path d="M 45.034375 282.799219 
L 826.234375 282.799219 
" style="fill:none;stroke:#000000;stroke-linecap:square;stroke-linejoin:miter;stroke-width:0.8;"/>
   </g>
   <g id="patch_206">
    <path d="M 45.034375 10.999219 
L 826.234375 10.999219 
" style="fill:none;stroke:#000000;stroke-linecap:square;stroke-linejoin:miter;stroke-width:0.8;"/>
   </g>
  </g>
 </g>
 <defs>
  <clipPath id="pc7a44bfcc3">
   <rect height="271.8" width="781.2" x="45.034375" y="10.999219"/>
  </clipPath>
 </defs>
</svg>
