<?xml version="1.0" encoding="utf-8" standalone="no"?>
<!DOCTYPE svg PUBLIC "-//W3C//DTD SVG 1.1//EN"
  "http://www.w3.org/Graphics/SVG/1.1/DTD/svg11.dtd">
<!-- Created with matplotlib (https://matplotlib.org/) -->
<svg height="449.28pt" version="1.1" viewBox="0 0 449.28 449.28" width="449.28pt" xmlns="http://www.w3.org/2000/svg" xmlns:xlink="http://www.w3.org/1999/xlink">
 <defs>
  <style type="text/css">
*{stroke-linecap:butt;stroke-linejoin:round;}
  </style>
 </defs>
 <g id="figure_1">
  <g id="patch_1">
   <path d="M 0 449.28 
L 449.28 449.28 
L 449.28 0 
L 0 0 
z
" style="fill:none;"/>
  </g>
  <g id="axes_1">
   <g id="PathCollection_1">
    <defs>
     <path d="M 0 3.24037 
C 0.859356 3.24037 1.683631 2.898944 2.291288 2.291288 
C 2.898944 1.683631 3.24037 0.859356 3.24037 0 
C 3.24037 -0.859356 2.898944 -1.683631 2.291288 -2.291288 
C 1.683631 -2.898944 0.859356 -3.24037 0 -3.24037 
C -0.859356 -3.24037 -1.683631 -2.898944 -2.291288 -2.291288 
C -2.898944 -1.683631 -3.24037 -0.859356 -3.24037 0 
C -3.24037 0.859356 -2.898944 1.683631 -2.291288 2.291288 
C -1.683631 2.898944 -0.859356 3.24037 0 3.24037 
z
" id="mb55696e914" style="stroke:#71afc6;"/>
    </defs>
    <g clip-path="url(#p7d33eb95cf)">
     <use style="fill:#71afc6;stroke:#71afc6;" x="311.616" xlink:href="#mb55696e914" y="224.64"/>
     <use style="fill:#71afc6;stroke:#71afc6;" x="308.652365" xlink:href="#mb55696e914" y="202.128955"/>
     <use style="fill:#71afc6;stroke:#71afc6;" x="299.963426" xlink:href="#mb55696e914" y="181.152"/>
     <use style="fill:#71afc6;stroke:#71afc6;" x="286.141319" xlink:href="#mb55696e914" y="163.138681"/>
     <use style="fill:#71afc6;stroke:#71afc6;" x="268.128" xlink:href="#mb55696e914" y="149.316574"/>
     <use style="fill:#71afc6;stroke:#71afc6;" x="247.151045" xlink:href="#mb55696e914" y="140.627635"/>
     <use style="fill:#71afc6;stroke:#71afc6;" x="224.64" xlink:href="#mb55696e914" y="137.664"/>
     <use style="fill:#71afc6;stroke:#71afc6;" x="202.128955" xlink:href="#mb55696e914" y="140.627635"/>
     <use style="fill:#71afc6;stroke:#71afc6;" x="181.152" xlink:href="#mb55696e914" y="149.316574"/>
     <use style="fill:#71afc6;stroke:#71afc6;" x="163.138681" xlink:href="#mb55696e914" y="163.138681"/>
     <use style="fill:#71afc6;stroke:#71afc6;" x="149.316574" xlink:href="#mb55696e914" y="181.152"/>
     <use style="fill:#71afc6;stroke:#71afc6;" x="140.627635" xlink:href="#mb55696e914" y="202.128955"/>
     <use style="fill:#71afc6;stroke:#71afc6;" x="137.664" xlink:href="#mb55696e914" y="224.64"/>
     <use style="fill:#71afc6;stroke:#71afc6;" x="140.627635" xlink:href="#mb55696e914" y="247.151045"/>
     <use style="fill:#71afc6;stroke:#71afc6;" x="149.316574" xlink:href="#mb55696e914" y="268.128"/>
     <use style="fill:#71afc6;stroke:#71afc6;" x="163.138681" xlink:href="#mb55696e914" y="286.141319"/>
     <use style="fill:#71afc6;stroke:#71afc6;" x="181.152" xlink:href="#mb55696e914" y="299.963426"/>
     <use style="fill:#71afc6;stroke:#71afc6;" x="202.128955" xlink:href="#mb55696e914" y="308.652365"/>
     <use style="fill:#71afc6;stroke:#71afc6;" x="224.64" xlink:href="#mb55696e914" y="311.616"/>
     <use style="fill:#71afc6;stroke:#71afc6;" x="247.151045" xlink:href="#mb55696e914" y="308.652365"/>
     <use style="fill:#71afc6;stroke:#71afc6;" x="268.128" xlink:href="#mb55696e914" y="299.963426"/>
     <use style="fill:#71afc6;stroke:#71afc6;" x="286.141319" xlink:href="#mb55696e914" y="286.141319"/>
     <use style="fill:#71afc6;stroke:#71afc6;" x="299.963426" xlink:href="#mb55696e914" y="268.128"/>
     <use style="fill:#71afc6;stroke:#71afc6;" x="308.652365" xlink:href="#mb55696e914" y="247.151045"/>
    </g>
   </g>
   <g id="line2d_1">
    <path clip-path="url(#p7d33eb95cf)" d="M 311.616 224.64 
L 308.652365 202.128955 
L 299.963426 181.152 
L 286.141319 163.138681 
L 268.128 149.316574 
L 247.151045 140.627635 
L 224.64 137.664 
L 202.128955 140.627635 
L 181.152 149.316574 
L 163.138681 163.138681 
L 149.316574 181.152 
L 140.627635 202.128955 
L 137.664 224.64 
L 140.627635 247.151045 
L 149.316574 268.128 
L 163.138681 286.141319 
L 181.152 299.963426 
L 202.128955 308.652365 
L 224.64 311.616 
L 247.151045 308.652365 
L 268.128 299.963426 
L 286.141319 286.141319 
L 299.963426 268.128 
L 308.652365 247.151045 
L 311.616 224.64 
" style="fill:none;stroke:#71afc6;stroke-linecap:square;stroke-opacity:0.4;stroke-width:1.5;"/>
   </g>
  </g>
 </g>
 <defs>
  <clipPath id="p7d33eb95cf">
   <path d="M 442.08 224.64 
C 442.08 196.086041 436.455493 167.809733 425.528366 141.429314 
C 414.601238 115.048896 398.583997 91.0774 378.393299 70.886701 
C 358.2026 50.696003 334.231104 34.678762 307.850686 23.751634 
C 281.470267 12.824507 253.193959 7.2 224.64 7.2 
C 196.086041 7.2 167.809733 12.824507 141.429314 23.751634 
C 115.048896 34.678762 91.0774 50.696003 70.886701 70.886701 
C 50.696003 91.0774 34.678762 115.048896 23.751634 141.429314 
C 12.824507 167.809733 7.2 196.086041 7.2 224.64 
C 7.2 253.193959 12.824507 281.470267 23.751634 307.850686 
C 34.678762 334.231104 50.696003 358.2026 70.886701 378.393299 
C 91.0774 398.583997 115.048896 414.601238 141.429314 425.528366 
C 167.809733 436.455493 196.086041 442.08 224.64 442.08 
C 253.193959 442.08 281.470267 436.455493 307.850686 425.528366 
C 334.231104 414.601238 358.2026 398.583997 378.393299 378.393299 
C 398.583997 358.2026 414.601238 334.231104 425.528366 307.850686 
C 436.455493 281.470267 442.08 253.193959 442.08 224.64 
M 224.64 224.64 
C 224.64 224.64 224.64 224.64 224.64 224.64 
C 224.64 224.64 224.64 224.64 224.64 224.64 
C 224.64 224.64 224.64 224.64 224.64 224.64 
C 224.64 224.64 224.64 224.64 224.64 224.64 
C 224.64 224.64 224.64 224.64 224.64 224.64 
C 224.64 224.64 224.64 224.64 224.64 224.64 
C 224.64 224.64 224.64 224.64 224.64 224.64 
C 224.64 224.64 224.64 224.64 224.64 224.64 
C 224.64 224.64 224.64 224.64 224.64 224.64 
C 224.64 224.64 224.64 224.64 224.64 224.64 
C 224.64 224.64 224.64 224.64 224.64 224.64 
C 224.64 224.64 224.64 224.64 224.64 224.64 
C 224.64 224.64 224.64 224.64 224.64 224.64 
C 224.64 224.64 224.64 224.64 224.64 224.64 
C 224.64 224.64 224.64 224.64 224.64 224.64 
C 224.64 224.64 224.64 224.64 224.64 224.64 
M 442.08 224.64 
z
"/>
  </clipPath>
 </defs>
</svg>
