<?xml version="1.0" encoding="utf-8" standalone="no"?>
<!DOCTYPE svg PUBLIC "-//W3C//DTD SVG 1.1//EN"
  "http://www.w3.org/Graphics/SVG/1.1/DTD/svg11.dtd">
<!-- Created with matplotlib (https://matplotlib.org/) -->
<svg height="449.28pt" version="1.1" viewBox="0 0 449.28 449.28" width="449.28pt" xmlns="http://www.w3.org/2000/svg" xmlns:xlink="http://www.w3.org/1999/xlink">
 <defs>
  <style type="text/css">
*{stroke-linecap:butt;stroke-linejoin:round;}
  </style>
 </defs>
 <g id="figure_1">
  <g id="patch_1">
   <path d="M 0 449.28 
L 449.28 449.28 
L 449.28 0 
L 0 0 
z
" style="fill:none;"/>
  </g>
  <g id="axes_1">
   <g id="PathCollection_1">
    <defs>
     <path d="M 0 3.24037 
C 0.859356 3.24037 1.683631 2.898944 2.291288 2.291288 
C 2.898944 1.683631 3.24037 0.859356 3.24037 0 
C 3.24037 -0.859356 2.898944 -1.683631 2.291288 -2.291288 
C 1.683631 -2.898944 0.859356 -3.24037 0 -3.24037 
C -0.859356 -3.24037 -1.683631 -2.898944 -2.291288 -2.291288 
C -2.898944 -1.683631 -3.24037 -0.859356 -3.24037 0 
C -3.24037 0.859356 -2.898944 1.683631 -2.291288 2.291288 
C -1.683631 2.898944 -0.859356 3.24037 0 3.24037 
z
" id="m00a867e309" style="stroke:#c35635;"/>
    </defs>
    <g clip-path="url(#p83b8e21cb9)">
     <use style="fill:#c35635;stroke:#c35635;" x="355.104" xlink:href="#m00a867e309" y="224.64"/>
     <use style="fill:#c35635;stroke:#c35635;" x="350.658547" xlink:href="#m00a867e309" y="190.873432"/>
     <use style="fill:#c35635;stroke:#c35635;" x="337.625138" xlink:href="#m00a867e309" y="159.408"/>
     <use style="fill:#c35635;stroke:#c35635;" x="316.891979" xlink:href="#m00a867e309" y="132.388021"/>
     <use style="fill:#c35635;stroke:#c35635;" x="289.872" xlink:href="#m00a867e309" y="111.654862"/>
     <use style="fill:#c35635;stroke:#c35635;" x="258.406568" xlink:href="#m00a867e309" y="98.621453"/>
     <use style="fill:#c35635;stroke:#c35635;" x="224.64" xlink:href="#m00a867e309" y="94.176"/>
     <use style="fill:#c35635;stroke:#c35635;" x="190.873432" xlink:href="#m00a867e309" y="98.621453"/>
     <use style="fill:#c35635;stroke:#c35635;" x="159.408" xlink:href="#m00a867e309" y="111.654862"/>
     <use style="fill:#c35635;stroke:#c35635;" x="132.388021" xlink:href="#m00a867e309" y="132.388021"/>
     <use style="fill:#c35635;stroke:#c35635;" x="111.654862" xlink:href="#m00a867e309" y="159.408"/>
     <use style="fill:#c35635;stroke:#c35635;" x="98.621453" xlink:href="#m00a867e309" y="190.873432"/>
     <use style="fill:#c35635;stroke:#c35635;" x="94.176" xlink:href="#m00a867e309" y="224.64"/>
     <use style="fill:#c35635;stroke:#c35635;" x="98.621453" xlink:href="#m00a867e309" y="258.406568"/>
     <use style="fill:#c35635;stroke:#c35635;" x="111.654862" xlink:href="#m00a867e309" y="289.872"/>
     <use style="fill:#c35635;stroke:#c35635;" x="132.388021" xlink:href="#m00a867e309" y="316.891979"/>
     <use style="fill:#c35635;stroke:#c35635;" x="159.408" xlink:href="#m00a867e309" y="337.625138"/>
     <use style="fill:#c35635;stroke:#c35635;" x="190.873432" xlink:href="#m00a867e309" y="350.658547"/>
     <use style="fill:#c35635;stroke:#c35635;" x="224.64" xlink:href="#m00a867e309" y="355.104"/>
     <use style="fill:#c35635;stroke:#c35635;" x="258.406568" xlink:href="#m00a867e309" y="350.658547"/>
     <use style="fill:#c35635;stroke:#c35635;" x="289.872" xlink:href="#m00a867e309" y="337.625138"/>
     <use style="fill:#c35635;stroke:#c35635;" x="316.891979" xlink:href="#m00a867e309" y="316.891979"/>
     <use style="fill:#c35635;stroke:#c35635;" x="337.625138" xlink:href="#m00a867e309" y="289.872"/>
     <use style="fill:#c35635;stroke:#c35635;" x="350.658547" xlink:href="#m00a867e309" y="258.406568"/>
    </g>
   </g>
  </g>
 </g>
 <defs>
  <clipPath id="p83b8e21cb9">
   <path d="M 442.08 224.64 
C 442.08 196.086041 436.455493 167.809733 425.528366 141.429314 
C 414.601238 115.048896 398.583997 91.0774 378.393299 70.886701 
C 358.2026 50.696003 334.231104 34.678762 307.850686 23.751634 
C 281.470267 12.824507 253.193959 7.2 224.64 7.2 
C 196.086041 7.2 167.809733 12.824507 141.429314 23.751634 
C 115.048896 34.678762 91.0774 50.696003 70.886701 70.886701 
C 50.696003 91.0774 34.678762 115.048896 23.751634 141.429314 
C 12.824507 167.809733 7.2 196.086041 7.2 224.64 
C 7.2 253.193959 12.824507 281.470267 23.751634 307.850686 
C 34.678762 334.231104 50.696003 358.2026 70.886701 378.393299 
C 91.0774 398.583997 115.048896 414.601238 141.429314 425.528366 
C 167.809733 436.455493 196.086041 442.08 224.64 442.08 
C 253.193959 442.08 281.470267 436.455493 307.850686 425.528366 
C 334.231104 414.601238 358.2026 398.583997 378.393299 378.393299 
C 398.583997 358.2026 414.601238 334.231104 425.528366 307.850686 
C 436.455493 281.470267 442.08 253.193959 442.08 224.64 
M 224.64 224.64 
C 224.64 224.64 224.64 224.64 224.64 224.64 
C 224.64 224.64 224.64 224.64 224.64 224.64 
C 224.64 224.64 224.64 224.64 224.64 224.64 
C 224.64 224.64 224.64 224.64 224.64 224.64 
C 224.64 224.64 224.64 224.64 224.64 224.64 
C 224.64 224.64 224.64 224.64 224.64 224.64 
C 224.64 224.64 224.64 224.64 224.64 224.64 
C 224.64 224.64 224.64 224.64 224.64 224.64 
C 224.64 224.64 224.64 224.64 224.64 224.64 
C 224.64 224.64 224.64 224.64 224.64 224.64 
C 224.64 224.64 224.64 224.64 224.64 224.64 
C 224.64 224.64 224.64 224.64 224.64 224.64 
C 224.64 224.64 224.64 224.64 224.64 224.64 
C 224.64 224.64 224.64 224.64 224.64 224.64 
C 224.64 224.64 224.64 224.64 224.64 224.64 
C 224.64 224.64 224.64 224.64 224.64 224.64 
M 442.08 224.64 
z
"/>
  </clipPath>
 </defs>
</svg>
