<?xml version="1.0" encoding="utf-8" standalone="no"?>
<!DOCTYPE svg PUBLIC "-//W3C//DTD SVG 1.1//EN"
  "http://www.w3.org/Graphics/SVG/1.1/DTD/svg11.dtd">
<!-- Created with matplotlib (https://matplotlib.org/) -->
<svg height="449.28pt" version="1.1" viewBox="0 0 449.28 449.28" width="449.28pt" xmlns="http://www.w3.org/2000/svg" xmlns:xlink="http://www.w3.org/1999/xlink">
 <defs>
  <style type="text/css">
*{stroke-linecap:butt;stroke-linejoin:round;}
  </style>
 </defs>
 <g id="figure_1">
  <g id="patch_1">
   <path d="M 0 449.28 
L 449.28 449.28 
L 449.28 0 
L 0 0 
z
" style="fill:none;"/>
  </g>
  <g id="axes_1">
   <g id="patch_2">
    <path clip-path="url(#pafe4014cfc)" d="M 300.907661 171.290975 
L 300.689885 166.642744 
L 299.297111 167.36532 
L 224.651301 110.430716 
L 224.628709 110.537285 
L 299.201234 167.41543 
L 297.813574 168.146032 
z
" style="fill:#c35635;opacity:0.07253;stroke:#c35635;stroke-linejoin:miter;"/>
   </g>
   <g id="patch_3">
    <path clip-path="url(#pafe4014cfc)" d="M 132.910565 288.684441 
L 134.482897 293.773103 
L 135.755163 292.842193 
L 224.638754 338.850347 
L 224.641245 338.741653 
L 135.842883 292.777963 
L 137.11451 291.8462 
z
" style="fill:#c35635;opacity:0.07253;stroke:#c35635;stroke-linejoin:miter;"/>
   </g>
   <g id="patch_4">
    <path clip-path="url(#pafe4014cfc)" d="M 286.552942 155.551257 
L 285.586864 150.963725 
L 284.342874 151.911115 
L 224.654844 110.43151 
L 224.62517 110.536492 
L 284.257377 151.97676 
L 283.021964 152.933036 
z
" style="fill:#c35635;opacity:0.228581;stroke:#c35635;stroke-linejoin:miter;"/>
   </g>
   <g id="patch_5">
    <path clip-path="url(#pafe4014cfc)" d="M 149.874253 307.81516 
L 152.527179 312.431581 
L 153.563894 311.243917 
L 224.638339 338.850337 
L 224.64166 338.741663 
L 153.635355 311.161977 
L 154.670985 309.973395 
z
" style="fill:#c35635;opacity:0.228581;stroke:#c35635;stroke-linejoin:miter;"/>
   </g>
   <g id="patch_6">
    <path clip-path="url(#pafe4014cfc)" d="M 268.838214 143.711765 
L 267.383541 139.178066 
L 266.272159 140.258161 
L 224.661381 110.433596 
L 224.618638 110.534408 
L 266.19599 140.333002 
L 265.098515 141.423259 
z
" style="fill:#c35635;opacity:0.518955;stroke:#c35635;stroke-linejoin:miter;"/>
   </g>
   <g id="patch_7">
    <path clip-path="url(#pafe4014cfc)" d="M 170.751049 322.558938 
L 174.32456 326.501579 
L 175.085594 325.120872 
L 224.63751 338.850308 
L 224.642488 338.741692 
L 175.138014 325.025616 
L 175.897159 323.643924 
z
" style="fill:#c35635;opacity:0.518955;stroke:#c35635;stroke-linejoin:miter;"/>
   </g>
   <g id="patch_8">
    <path clip-path="url(#pafe4014cfc)" d="M 248.385131 136.824756 
L 247.156799 132.026391 
L 246.033274 133.019412 
L 224.675875 110.441715 
L 224.604152 110.526296 
L 245.956525 133.088367 
L 244.854369 134.094938 
z
" style="fill:#c35635;opacity:0.848755;stroke:#c35635;stroke-linejoin:miter;"/>
   </g>
   <g id="patch_9">
    <path clip-path="url(#pafe4014cfc)" d="M 194.464987 332.037515 
L 198.698401 335.244731 
L 199.194595 333.747935 
L 224.635033 338.850154 
L 224.644962 338.741846 
L 199.228674 333.644668 
L 199.720787 332.146725 
z
" style="fill:#c35635;opacity:0.848755;stroke:#c35635;stroke-linejoin:miter;"/>
   </g>
   <g id="patch_10">
    <path clip-path="url(#pafe4014cfc)" d="M 224.64 135.4896 
L 226.050589 130.60778 
L 224.687021 130.597212 
L 224.697078 110.484014 
L 224.582922 110.484014 
L 224.592979 130.597212 
L 223.229411 130.60778 
z
" style="fill:#c35635;stroke:#c35635;stroke-linejoin:miter;"/>
   </g>
   <g id="patch_11">
    <path clip-path="url(#pafe4014cfc)" d="M 224.64 331.7292 
L 222.960339 336.609002 
L 224.584009 336.621586 
L 224.582922 338.795986 
L 224.697078 338.795986 
L 224.695991 336.621586 
L 226.319661 336.609002 
z
" style="fill:#c35635;stroke:#c35635;stroke-linejoin:miter;"/>
   </g>
   <g id="patch_12">
    <path clip-path="url(#pafe4014cfc)" d="M 200.894869 136.824756 
L 204.425631 134.094938 
L 203.323475 133.088367 
L 224.675848 110.526296 
L 224.604125 110.441715 
L 203.246726 133.019412 
L 202.123201 132.026391 
z
" style="fill:#c35635;opacity:0.848755;stroke:#c35635;stroke-linejoin:miter;"/>
   </g>
   <g id="patch_13">
    <path clip-path="url(#pafe4014cfc)" d="M 254.815013 332.037515 
L 249.559213 332.146725 
L 250.051326 333.644668 
L 224.635038 338.741846 
L 224.644967 338.850154 
L 250.085405 333.747935 
L 250.581599 335.244731 
z
" style="fill:#c35635;opacity:0.848755;stroke:#c35635;stroke-linejoin:miter;"/>
   </g>
   <g id="patch_14">
    <path clip-path="url(#pafe4014cfc)" d="M 180.441786 143.711765 
L 184.181485 141.423259 
L 183.08401 140.333002 
L 224.661362 110.534408 
L 224.618619 110.433596 
L 183.007841 140.258161 
L 181.896459 139.178066 
z
" style="fill:#c35635;opacity:0.518955;stroke:#c35635;stroke-linejoin:miter;"/>
   </g>
   <g id="patch_15">
    <path clip-path="url(#pafe4014cfc)" d="M 278.528951 322.558938 
L 273.382841 323.643924 
L 274.141986 325.025616 
L 224.637512 338.741692 
L 224.64249 338.850308 
L 274.194406 325.120872 
L 274.95544 326.501579 
z
" style="fill:#c35635;opacity:0.518955;stroke:#c35635;stroke-linejoin:miter;"/>
   </g>
   <g id="patch_16">
    <path clip-path="url(#pafe4014cfc)" d="M 162.727058 155.551257 
L 166.258036 152.933036 
L 165.022623 151.97676 
L 224.65483 110.536492 
L 224.625156 110.43151 
L 164.937126 151.911115 
L 163.693136 150.963725 
z
" style="fill:#c35635;opacity:0.228581;stroke:#c35635;stroke-linejoin:miter;"/>
   </g>
   <g id="patch_17">
    <path clip-path="url(#pafe4014cfc)" d="M 299.405747 307.81516 
L 294.609015 309.973395 
L 295.644645 311.161977 
L 224.63834 338.741663 
L 224.641661 338.850337 
L 295.716106 311.243917 
L 296.752821 312.431581 
z
" style="fill:#c35635;opacity:0.228581;stroke:#c35635;stroke-linejoin:miter;"/>
   </g>
   <g id="patch_18">
    <path clip-path="url(#pafe4014cfc)" d="M 148.372339 171.290975 
L 151.466426 168.146032 
L 150.078766 167.41543 
L 224.651291 110.537285 
L 224.628699 110.430716 
L 149.982889 167.36532 
L 148.590115 166.642744 
z
" style="fill:#c35635;opacity:0.07253;stroke:#c35635;stroke-linejoin:miter;"/>
   </g>
   <g id="patch_19">
    <path clip-path="url(#pafe4014cfc)" d="M 316.369435 288.684441 
L 312.16549 291.8462 
L 313.437117 292.777963 
L 224.638755 338.741653 
L 224.641246 338.850347 
L 313.524837 292.842193 
L 314.797103 293.773103 
z
" style="fill:#c35635;opacity:0.07253;stroke:#c35635;stroke-linejoin:miter;"/>
   </g>
  </g>
 </g>
 <defs>
  <clipPath id="pafe4014cfc">
   <path d="M 442.08 224.64 
C 442.08 196.086041 436.455493 167.809733 425.528366 141.429314 
C 414.601238 115.048896 398.583997 91.0774 378.393299 70.886701 
C 358.2026 50.696003 334.231104 34.678762 307.850686 23.751634 
C 281.470267 12.824507 253.193959 7.2 224.64 7.2 
C 196.086041 7.2 167.809733 12.824507 141.429314 23.751634 
C 115.048896 34.678762 91.0774 50.696003 70.886701 70.886701 
C 50.696003 91.0774 34.678762 115.048896 23.751634 141.429314 
C 12.824507 167.809733 7.2 196.086041 7.2 224.64 
C 7.2 253.193959 12.824507 281.470267 23.751634 307.850686 
C 34.678762 334.231104 50.696003 358.2026 70.886701 378.393299 
C 91.0774 398.583997 115.048896 414.601238 141.429314 425.528366 
C 167.809733 436.455493 196.086041 442.08 224.64 442.08 
C 253.193959 442.08 281.470267 436.455493 307.850686 425.528366 
C 334.231104 414.601238 358.2026 398.583997 378.393299 378.393299 
C 398.583997 358.2026 414.601238 334.231104 425.528366 307.850686 
C 436.455493 281.470267 442.08 253.193959 442.08 224.64 
M 224.64 224.64 
C 224.64 224.64 224.64 224.64 224.64 224.64 
C 224.64 224.64 224.64 224.64 224.64 224.64 
C 224.64 224.64 224.64 224.64 224.64 224.64 
C 224.64 224.64 224.64 224.64 224.64 224.64 
C 224.64 224.64 224.64 224.64 224.64 224.64 
C 224.64 224.64 224.64 224.64 224.64 224.64 
C 224.64 224.64 224.64 224.64 224.64 224.64 
C 224.64 224.64 224.64 224.64 224.64 224.64 
C 224.64 224.64 224.64 224.64 224.64 224.64 
C 224.64 224.64 224.64 224.64 224.64 224.64 
C 224.64 224.64 224.64 224.64 224.64 224.64 
C 224.64 224.64 224.64 224.64 224.64 224.64 
C 224.64 224.64 224.64 224.64 224.64 224.64 
C 224.64 224.64 224.64 224.64 224.64 224.64 
C 224.64 224.64 224.64 224.64 224.64 224.64 
C 224.64 224.64 224.64 224.64 224.64 224.64 
M 442.08 224.64 
z
"/>
  </clipPath>
 </defs>
</svg>
