<?xml version="1.0" encoding="utf-8" standalone="no"?>
<!DOCTYPE svg PUBLIC "-//W3C//DTD SVG 1.1//EN"
  "http://www.w3.org/Graphics/SVG/1.1/DTD/svg11.dtd">
<!-- Created with matplotlib (https://matplotlib.org/) -->
<svg height="449.28pt" version="1.1" viewBox="0 0 449.28 449.28" width="449.28pt" xmlns="http://www.w3.org/2000/svg" xmlns:xlink="http://www.w3.org/1999/xlink">
 <defs>
  <style type="text/css">
*{stroke-linecap:butt;stroke-linejoin:round;}
  </style>
 </defs>
 <g id="figure_1">
  <g id="patch_1">
   <path d="M 0 449.28 
L 449.28 449.28 
L 449.28 0 
L 0 0 
z
" style="fill:none;"/>
  </g>
  <g id="axes_1">
   <g id="patch_2">
    <path clip-path="url(#p07e288c343)" d="M 289.626628 179.267081 
L 288.914593 175.353788 
L 287.648608 176.292887 
L 224.64089 143.045653 
L 224.639111 143.154347 
L 287.561321 176.357682 
L 286.295978 177.297631 
z
" style="fill:#71afc6;opacity:0.07253;stroke:#71afc6;stroke-linejoin:miter;"/>
   </g>
   <g id="patch_3">
    <path clip-path="url(#p07e288c343)" d="M 286.394585 313.001242 
L 291.002334 310.73467 
L 289.870708 309.637487 
L 317.105779 224.633261 
L 316.99822 224.646731 
L 289.792847 309.561657 
L 288.6665 308.459778 
z
" style="fill:#71afc6;opacity:0.07253;stroke:#71afc6;stroke-linejoin:miter;"/>
   </g>
   <g id="patch_4">
    <path clip-path="url(#p07e288c343)" d="M 277.601604 165.721443 
L 276.05045 162.051897 
L 275.024368 163.248291 
L 224.641187 143.045663 
L 224.638815 143.154337 
L 274.953641 163.330833 
L 273.928648 164.52814 
z
" style="fill:#71afc6;opacity:0.228581;stroke:#71afc6;stroke-linejoin:miter;"/>
   </g>
   <g id="patch_5">
    <path clip-path="url(#p07e288c343)" d="M 305.043411 296.794412 
L 308.857069 293.34862 
L 307.468854 292.602525 
L 317.10534 224.631088 
L 316.998659 224.648901 
L 307.373293 292.550804 
L 305.990251 291.796998 
z
" style="fill:#71afc6;opacity:0.228581;stroke:#71afc6;stroke-linejoin:miter;"/>
   </g>
   <g id="patch_6">
    <path clip-path="url(#p07e288c343)" d="M 262.803176 155.295587 
L 260.510619 152.021379 
L 259.76808 153.411215 
L 224.641779 143.045692 
L 224.638223 143.154308 
L 259.716936 153.507099 
L 258.976292 154.897908 
z
" style="fill:#71afc6;opacity:0.518955;stroke:#71afc6;stroke-linejoin:miter;"/>
   </g>
   <g id="patch_7">
    <path clip-path="url(#p07e288c343)" d="M 319.764747 276.769299 
L 322.291233 272.28263 
L 320.738846 272.013824 
L 317.104142 224.626933 
L 316.999856 224.653053 
L 320.631927 271.994846 
L 319.083676 271.713307 
z
" style="fill:#71afc6;opacity:0.518955;stroke:#71afc6;stroke-linejoin:miter;"/>
   </g>
   <g id="patch_8">
    <path clip-path="url(#p07e288c343)" d="M 245.99265 148.642634 
L 243.133845 145.78955 
L 242.677705 147.295714 
L 224.643548 143.045846 
L 224.636456 143.154154 
L 242.646388 147.399625 
L 242.194341 148.906882 
z
" style="fill:#71afc6;opacity:0.848755;stroke:#71afc6;stroke-linejoin:miter;"/>
   </g>
   <g id="patch_9">
    <path clip-path="url(#p07e288c343)" d="M 330.306225 253.638751 
L 330.484536 248.47106 
L 328.983488 248.941562 
L 317.098829 224.616528 
L 317.005165 224.663448 
L 328.879924 248.973244 
L 327.377688 249.42152 
z
" style="fill:#71afc6;opacity:0.848755;stroke:#71afc6;stroke-linejoin:miter;"/>
   </g>
   <g id="patch_10">
    <path clip-path="url(#p07e288c343)" d="M 224.64 150.1668 
L 225.830439 145.283328 
L 224.679683 145.27441 
L 224.68077 143.10001 
L 224.59923 143.10001 
L 224.600317 145.27441 
L 223.449561 145.283328 
z
" style="fill:#71afc6;stroke:#71afc6;stroke-linejoin:miter;"/>
   </g>
   <g id="patch_11">
    <path clip-path="url(#p07e288c343)" d="M 336.6216 224.64 
L 331.717153 223.033722 
L 331.729187 224.586455 
L 317.051988 224.593794 
L 317.051988 224.686206 
L 331.729187 224.693545 
L 331.717153 226.246278 
z
" style="fill:#71afc6;stroke:#71afc6;stroke-linejoin:miter;"/>
   </g>
   <g id="patch_12">
    <path clip-path="url(#p07e288c343)" d="M 203.28735 148.642634 
L 207.085659 148.906882 
L 206.633612 147.399625 
L 224.643544 143.154154 
L 224.636452 143.045846 
L 206.602295 147.295714 
L 206.146155 145.78955 
z
" style="fill:#71afc6;opacity:0.848755;stroke:#71afc6;stroke-linejoin:miter;"/>
   </g>
   <g id="patch_13">
    <path clip-path="url(#p07e288c343)" d="M 330.306225 195.641249 
L 327.377688 199.85848 
L 328.879924 200.306756 
L 317.005165 224.616552 
L 317.098829 224.663472 
L 328.983488 200.338438 
L 330.484536 200.80894 
z
" style="fill:#71afc6;opacity:0.848755;stroke:#71afc6;stroke-linejoin:miter;"/>
   </g>
   <g id="patch_14">
    <path clip-path="url(#p07e288c343)" d="M 186.476824 155.295587 
L 190.303708 154.897908 
L 189.563064 153.507099 
L 224.641777 143.154308 
L 224.638221 143.045692 
L 189.51192 153.411215 
L 188.769381 152.021379 
z
" style="fill:#71afc6;opacity:0.518955;stroke:#71afc6;stroke-linejoin:miter;"/>
   </g>
   <g id="patch_15">
    <path clip-path="url(#p07e288c343)" d="M 319.764747 172.510701 
L 319.083676 177.566693 
L 320.631927 177.285154 
L 316.999856 224.626947 
L 317.104142 224.653067 
L 320.738846 177.266176 
L 322.291233 176.99737 
z
" style="fill:#71afc6;opacity:0.518955;stroke:#71afc6;stroke-linejoin:miter;"/>
   </g>
   <g id="patch_16">
    <path clip-path="url(#p07e288c343)" d="M 171.678396 165.721443 
L 175.351352 164.52814 
L 174.326359 163.330833 
L 224.641185 143.154337 
L 224.638813 143.045663 
L 174.255632 163.248291 
L 173.22955 162.051897 
z
" style="fill:#71afc6;opacity:0.228581;stroke:#71afc6;stroke-linejoin:miter;"/>
   </g>
   <g id="patch_17">
    <path clip-path="url(#p07e288c343)" d="M 305.043411 152.485588 
L 305.990251 157.483002 
L 307.373293 156.729196 
L 316.998659 224.631099 
L 317.10534 224.648912 
L 307.468854 156.677475 
L 308.857069 155.93138 
z
" style="fill:#71afc6;opacity:0.228581;stroke:#71afc6;stroke-linejoin:miter;"/>
   </g>
   <g id="patch_18">
    <path clip-path="url(#p07e288c343)" d="M 159.653372 179.267081 
L 162.984022 177.297631 
L 161.718679 176.357682 
L 224.640889 143.154347 
L 224.63911 143.045653 
L 161.631392 176.292887 
L 160.365407 175.353788 
z
" style="fill:#71afc6;opacity:0.07253;stroke:#71afc6;stroke-linejoin:miter;"/>
   </g>
   <g id="patch_19">
    <path clip-path="url(#p07e288c343)" d="M 286.394585 136.278758 
L 288.6665 140.820222 
L 289.792847 139.718343 
L 316.99822 224.633269 
L 317.105779 224.646739 
L 289.870708 139.642513 
L 291.002334 138.54533 
z
" style="fill:#71afc6;opacity:0.07253;stroke:#71afc6;stroke-linejoin:miter;"/>
   </g>
  </g>
 </g>
 <defs>
  <clipPath id="p07e288c343">
   <path d="M 442.08 224.64 
C 442.08 196.086041 436.455493 167.809733 425.528366 141.429314 
C 414.601238 115.048896 398.583997 91.0774 378.393299 70.886701 
C 358.2026 50.696003 334.231104 34.678762 307.850686 23.751634 
C 281.470267 12.824507 253.193959 7.2 224.64 7.2 
C 196.086041 7.2 167.809733 12.824507 141.429314 23.751634 
C 115.048896 34.678762 91.0774 50.696003 70.886701 70.886701 
C 50.696003 91.0774 34.678762 115.048896 23.751634 141.429314 
C 12.824507 167.809733 7.2 196.086041 7.2 224.64 
C 7.2 253.193959 12.824507 281.470267 23.751634 307.850686 
C 34.678762 334.231104 50.696003 358.2026 70.886701 378.393299 
C 91.0774 398.583997 115.048896 414.601238 141.429314 425.528366 
C 167.809733 436.455493 196.086041 442.08 224.64 442.08 
C 253.193959 442.08 281.470267 436.455493 307.850686 425.528366 
C 334.231104 414.601238 358.2026 398.583997 378.393299 378.393299 
C 398.583997 358.2026 414.601238 334.231104 425.528366 307.850686 
C 436.455493 281.470267 442.08 253.193959 442.08 224.64 
M 224.64 224.64 
C 224.64 224.64 224.64 224.64 224.64 224.64 
C 224.64 224.64 224.64 224.64 224.64 224.64 
C 224.64 224.64 224.64 224.64 224.64 224.64 
C 224.64 224.64 224.64 224.64 224.64 224.64 
C 224.64 224.64 224.64 224.64 224.64 224.64 
C 224.64 224.64 224.64 224.64 224.64 224.64 
C 224.64 224.64 224.64 224.64 224.64 224.64 
C 224.64 224.64 224.64 224.64 224.64 224.64 
C 224.64 224.64 224.64 224.64 224.64 224.64 
C 224.64 224.64 224.64 224.64 224.64 224.64 
C 224.64 224.64 224.64 224.64 224.64 224.64 
C 224.64 224.64 224.64 224.64 224.64 224.64 
C 224.64 224.64 224.64 224.64 224.64 224.64 
C 224.64 224.64 224.64 224.64 224.64 224.64 
C 224.64 224.64 224.64 224.64 224.64 224.64 
C 224.64 224.64 224.64 224.64 224.64 224.64 
M 442.08 224.64 
z
"/>
  </clipPath>
 </defs>
</svg>
