<?xml version="1.0" encoding="utf-8" standalone="no"?>
<!DOCTYPE svg PUBLIC "-//W3C//DTD SVG 1.1//EN"
  "http://www.w3.org/Graphics/SVG/1.1/DTD/svg11.dtd">
<!-- Created with matplotlib (https://matplotlib.org/) -->
<svg height="216pt" version="1.1" viewBox="0 0 360 216" width="360pt" xmlns="http://www.w3.org/2000/svg" xmlns:xlink="http://www.w3.org/1999/xlink">
 <defs>
  <style type="text/css">
*{stroke-linecap:butt;stroke-linejoin:round;}
  </style>
 </defs>
 <g id="figure_1">
  <g id="patch_1">
   <path d="M 0 216 
L 360 216 
L 360 0 
L 0 0 
z
" style="fill:none;"/>
  </g>
  <g id="axes_1">
   <g id="PolyCollection_1">
    <defs>
     <path d="M 57.681818 -135.869654 
L 57.681818 -82.47477 
L 61.109337 -82.510657 
L 64.536855 -82.994785 
L 67.964373 -83.618805 
L 71.391892 -84.104652 
L 74.81941 -84.305858 
L 78.246929 -84.177622 
L 81.674447 -83.792698 
L 85.101966 -83.430876 
L 88.529484 -83.517238 
L 91.957002 -84.307576 
L 95.384521 -85.559168 
L 98.812039 -86.477229 
L 102.239558 -85.998681 
L 105.667076 -83.186394 
L 109.094595 -77.472315 
L 112.522113 -68.856118 
L 115.949631 -58.190793 
L 119.37715 -47.256573 
L 122.804668 -38.464361 
L 126.232187 -34.412727 
L 129.659705 -37.241436 
L 133.087224 -47.6174 
L 136.514742 -63.753125 
L 139.94226 -81.292828 
L 143.369779 -95.421179 
L 146.797297 -104.379338 
L 150.224816 -109.241094 
L 153.652334 -111.540708 
L 157.079853 -112.316217 
L 160.507371 -111.891214 
L 163.934889 -109.964032 
L 167.362408 -106.317933 
L 170.789926 -101.750399 
L 174.217445 -97.623124 
L 177.644963 -94.622802 
L 181.072482 -92.478448 
L 184.5 -90.395653 
L 187.927518 -87.557605 
L 191.355037 -83.53876 
L 194.782555 -78.556769 
L 198.210074 -73.354185 
L 201.637592 -68.74898 
L 205.065111 -65.214533 
L 208.492629 -62.735578 
L 211.920147 -60.940807 
L 215.347666 -59.392927 
L 218.775184 -57.86318 
L 222.202703 -56.406142 
L 225.630221 -55.21107 
L 229.05774 -54.418565 
L 232.485258 -54.070592 
L 235.912776 -54.175958 
L 239.340295 -54.756064 
L 242.767813 -55.805816 
L 246.195332 -57.241749 
L 249.62285 -58.899494 
L 253.050369 -60.563224 
L 256.477887 -62.02953 
L 259.905405 -63.234709 
L 263.332924 -64.359109 
L 266.760442 -65.728532 
L 270.187961 -67.53078 
L 273.615479 -69.621014 
L 277.042998 -71.635814 
L 280.470516 -73.332619 
L 283.898034 -74.784558 
L 287.325553 -76.2089 
L 290.753071 -77.683673 
L 294.18059 -79.098452 
L 297.608108 -80.359021 
L 301.035627 -81.556763 
L 304.463145 -82.865838 
L 307.890663 -84.311199 
L 311.318182 -85.700607 
L 311.318182 -135.322422 
L 311.318182 -135.322422 
L 307.890663 -134.379975 
L 304.463145 -133.352895 
L 301.035627 -132.098382 
L 297.608108 -130.683902 
L 294.18059 -129.289751 
L 290.753071 -127.953546 
L 287.325553 -126.475939 
L 283.898034 -124.637885 
L 280.470516 -122.472799 
L 277.042998 -120.269094 
L 273.615479 -118.290849 
L 270.187961 -116.552873 
L 266.760442 -114.923229 
L 263.332924 -113.369681 
L 259.905405 -112.025674 
L 256.477887 -111.024854 
L 253.050369 -110.316713 
L 249.62285 -109.688862 
L 246.195332 -108.957233 
L 242.767813 -108.110261 
L 239.340295 -107.315058 
L 235.912776 -106.831129 
L 232.485258 -106.874933 
L 229.05774 -107.478962 
L 225.630221 -108.459036 
L 222.202703 -109.567298 
L 218.775184 -110.71558 
L 215.347666 -112.056588 
L 211.920147 -113.842716 
L 208.492629 -116.208303 
L 205.065111 -119.084 
L 201.637592 -122.277792 
L 198.210074 -125.624625 
L 194.782555 -129.108928 
L 191.355037 -132.856999 
L 187.927518 -136.941658 
L 184.5 -141.161661 
L 181.072482 -145.093768 
L 177.644963 -148.405609 
L 174.217445 -151.163296 
L 170.789926 -154.025929 
L 167.362408 -158.216979 
L 163.934889 -164.764181 
L 160.507371 -172.973136 
L 157.079853 -180.068319 
L 153.652334 -182.667273 
L 150.224816 -178.390158 
L 146.797297 -166.941231 
L 143.369779 -150.638398 
L 139.94226 -133.659677 
L 136.514742 -119.168919 
L 133.087224 -107.940598 
L 129.659705 -100.380336 
L 126.232187 -97.288565 
L 122.804668 -99.057137 
L 119.37715 -104.932968 
L 115.949631 -113.080167 
L 112.522113 -121.387301 
L 109.094595 -128.272746 
L 105.667076 -133.004943 
L 102.239558 -135.67685 
L 98.812039 -136.907549 
L 95.384521 -137.330325 
L 91.957002 -137.280733 
L 88.529484 -136.899924 
L 85.101966 -136.356809 
L 81.674447 -135.884661 
L 78.246929 -135.634901 
L 74.81941 -135.578109 
L 71.391892 -135.610412 
L 67.964373 -135.701831 
L 64.536855 -135.859324 
L 61.109337 -135.984055 
L 57.681818 -135.869654 
z
" id="me8f29be7f5" style="stroke:#8acdbb;"/>
    </defs>
    <g clip-path="url(#p20d2bea7a2)">
     <use style="fill:#8acdbb;stroke:#8acdbb;" x="0" xlink:href="#me8f29be7f5" y="216"/>
    </g>
   </g>
   <g id="line2d_1">
    <path clip-path="url(#p20d2bea7a2)" d="M 57.681818 106.827788 
L 61.063636 106.752644 
L 64.445455 106.572946 
L 67.827273 106.339682 
L 71.209091 106.142468 
L 74.590909 106.058016 
L 77.972727 106.093738 
L 81.354545 106.16132 
L 84.736364 106.106158 
L 88.118182 105.791419 
L 91.5 105.205846 
L 94.881818 104.555253 
L 98.263636 104.307611 
L 101.645455 105.162235 
L 105.027273 107.904332 
L 108.409091 113.127469 
L 111.790909 120.878291 
L 115.172727 130.36452 
L 118.554545 139.905229 
L 121.936364 147.239251 
L 125.318182 150.149354 
L 128.7 147.189114 
L 132.081818 138.221001 
L 135.463636 124.538978 
L 138.845455 108.523748 
L 142.227273 92.970212 
L 145.609091 80.339716 
L 148.990909 72.184374 
L 152.372727 68.89601 
L 155.754545 69.807732 
L 159.136364 73.567825 
L 162.518182 78.635894 
L 165.9 83.732544 
L 169.281818 88.111836 
L 172.663636 91.60679 
L 176.045455 94.485794 
L 179.427273 97.213892 
L 182.809091 100.221343 
L 186.190909 103.750369 
L 189.572727 107.802121 
L 192.954545 112.167151 
L 196.336364 116.510595 
L 199.718182 120.486614 
L 203.1 123.850733 
L 206.481818 126.528059 
L 209.863636 128.608239 
L 213.245455 130.275243 
L 216.627273 131.71062 
L 220.009091 133.01328 
L 223.390909 134.164947 
L 226.772727 135.051237 
L 230.154545 135.527237 
L 233.536364 135.496457 
L 236.918182 134.964439 
L 240.3 134.041962 
L 243.681818 132.900509 
L 247.063636 131.705822 
L 250.445455 130.560032 
L 253.827273 129.472808 
L 257.209091 128.369809 
L 260.590909 127.135605 
L 263.972727 125.67412 
L 267.354545 123.958174 
L 270.736364 122.044069 
L 274.118182 120.047546 
L 277.5 118.097291 
L 280.881818 116.288778 
L 284.263636 114.657581 
L 287.645455 113.181391 
L 291.027273 111.805899 
L 294.409091 110.478539 
L 297.790909 109.172428 
L 301.172727 107.890633 
L 304.554545 106.654413 
L 307.936364 105.488486 
" style="fill:none;stroke:#ffffff;stroke-linecap:square;stroke-width:1.5;"/>
   </g>
  </g>
 </g>
 <defs>
  <clipPath id="p20d2bea7a2">
   <rect height="163.08" width="279" x="45" y="25.92"/>
  </clipPath>
 </defs>
</svg>
