<?xml version="1.0" encoding="utf-8" standalone="no"?>
<!DOCTYPE svg PUBLIC "-//W3C//DTD SVG 1.1//EN"
  "http://www.w3.org/Graphics/SVG/1.1/DTD/svg11.dtd">
<!-- Created with matplotlib (https://matplotlib.org/) -->
<svg height="216pt" version="1.1" viewBox="0 0 360 216" width="360pt" xmlns="http://www.w3.org/2000/svg" xmlns:xlink="http://www.w3.org/1999/xlink">
 <defs>
  <style type="text/css">
*{stroke-linecap:butt;stroke-linejoin:round;}
  </style>
 </defs>
 <g id="figure_1">
  <g id="patch_1">
   <path d="M 0 216 
L 360 216 
L 360 0 
L 0 0 
z
" style="fill:none;"/>
  </g>
  <g id="axes_1">
   <g id="PolyCollection_1">
    <defs>
     <path d="M 57.681818 -129.811358 
L 57.681818 -62.085723 
L 61.109337 -62.728325 
L 64.536855 -62.931588 
L 67.964373 -62.751511 
L 71.391892 -62.178005 
L 74.81941 -61.175165 
L 78.246929 -59.872616 
L 81.674447 -58.581696 
L 85.101966 -57.637006 
L 88.529484 -57.286254 
L 91.957002 -57.636837 
L 95.384521 -58.535418 
L 98.812039 -59.455874 
L 102.239558 -59.635769 
L 105.667076 -58.471257 
L 109.094595 -55.79786 
L 112.522113 -51.851564 
L 115.949631 -47.164983 
L 119.37715 -42.502381 
L 122.804668 -38.597033 
L 126.232187 -35.793863 
L 129.659705 -34.412727 
L 133.087224 -35.803708 
L 136.514742 -41.922583 
L 139.94226 -53.36888 
L 143.369779 -68.279736 
L 146.797297 -82.92549 
L 150.224816 -93.721748 
L 153.652334 -99.289152 
L 157.079853 -100.423979 
L 160.507371 -98.469304 
L 163.934889 -94.261097 
L 167.362408 -88.261604 
L 170.789926 -81.274498 
L 174.217445 -74.611353 
L 177.644963 -69.324642 
L 181.072482 -65.520692 
L 184.5 -62.480136 
L 187.927518 -59.351256 
L 191.355037 -55.781761 
L 194.782555 -52.004544 
L 198.210074 -48.495949 
L 201.637592 -45.627077 
L 205.065111 -43.493222 
L 208.492629 -41.940011 
L 211.920147 -40.766796 
L 215.347666 -39.915543 
L 218.775184 -39.421718 
L 222.202703 -39.23111 
L 225.630221 -39.165346 
L 229.05774 -39.10829 
L 232.485258 -39.193811 
L 235.912776 -39.725485 
L 239.340295 -40.875512 
L 242.767813 -42.483539 
L 246.195332 -44.157732 
L 249.62285 -45.600136 
L 253.050369 -46.855844 
L 256.477887 -48.210807 
L 259.905405 -49.858046 
L 263.332924 -51.712871 
L 266.760442 -53.524049 
L 270.187961 -55.09839 
L 273.615479 -56.432574 
L 277.042998 -57.715915 
L 280.470516 -59.22619 
L 283.898034 -61.136239 
L 287.325553 -63.32664 
L 290.753071 -65.370041 
L 294.18059 -66.798976 
L 297.608108 -67.504893 
L 301.035627 -67.847755 
L 304.463145 -68.327555 
L 307.890663 -69.177566 
L 311.318182 -70.230371 
L 311.318182 -141.730714 
L 311.318182 -141.730714 
L 307.890663 -142.819417 
L 304.463145 -143.25268 
L 301.035627 -142.571151 
L 297.608108 -140.88891 
L 294.18059 -138.767887 
L 290.753071 -136.776967 
L 287.325553 -135.091509 
L 283.898034 -133.507431 
L 280.470516 -131.75927 
L 277.042998 -129.762744 
L 273.615479 -127.637704 
L 270.187961 -125.590403 
L 266.760442 -123.773812 
L 263.332924 -122.19359 
L 259.905405 -120.683881 
L 256.477887 -119.007044 
L 253.050369 -117.072846 
L 249.62285 -115.078645 
L 246.195332 -113.367119 
L 242.767813 -112.114476 
L 239.340295 -111.203374 
L 235.912776 -110.400844 
L 232.485258 -109.603021 
L 229.05774 -108.901765 
L 225.630221 -108.428341 
L 222.202703 -108.160645 
L 218.775184 -107.961241 
L 215.347666 -107.83625 
L 211.920147 -108.106752 
L 208.492629 -109.260133 
L 205.065111 -111.581637 
L 201.637592 -114.92769 
L 198.210074 -118.84227 
L 194.782555 -122.84993 
L 191.355037 -126.714137 
L 187.927518 -130.548139 
L 184.5 -134.668528 
L 181.072482 -139.27396 
L 177.644963 -144.337686 
L 174.217445 -149.874319 
L 170.789926 -156.196822 
L 167.362408 -163.670891 
L 163.934889 -171.879836 
L 160.507371 -179.034091 
L 157.079853 -182.667273 
L 153.652334 -181.151539 
L 150.224816 -174.688388 
L 146.797297 -164.868386 
L 143.369779 -153.138172 
L 139.94226 -140.227713 
L 136.514742 -127.135528 
L 133.087224 -115.864723 
L 129.659705 -108.987258 
L 126.232187 -108.138324 
L 122.804668 -112.431235 
L 119.37715 -118.988943 
L 115.949631 -125.081453 
L 112.522113 -129.248248 
L 109.094595 -131.187865 
L 105.667076 -131.346135 
L 102.239558 -130.545196 
L 98.812039 -129.569967 
L 95.384521 -128.843289 
L 91.957002 -128.446106 
L 88.529484 -128.325368 
L 85.101966 -128.381087 
L 81.674447 -128.456364 
L 78.246929 -128.412045 
L 74.81941 -128.260428 
L 71.391892 -128.15095 
L 67.964373 -128.201978 
L 64.536855 -128.448235 
L 61.109337 -128.956454 
L 57.681818 -129.811358 
z
" id="mbd79184d27" style="stroke:#8acdbb;"/>
    </defs>
    <g clip-path="url(#p1de903195c)">
     <use style="fill:#8acdbb;stroke:#8acdbb;" x="0" xlink:href="#mbd79184d27" y="216"/>
    </g>
   </g>
   <g id="line2d_1">
    <path clip-path="url(#p1de903195c)" d="M 57.681818 120.05146 
L 61.063636 120.157611 
L 64.445455 120.310089 
L 67.827273 120.523255 
L 71.209091 120.835523 
L 74.590909 121.282203 
L 77.972727 121.857669 
L 81.354545 122.48097 
L 84.736364 122.990954 
L 88.118182 123.194189 
L 91.5 122.958529 
L 94.881818 122.310646 
L 98.263636 121.487079 
L 101.645455 120.909517 
L 105.027273 121.091304 
L 108.409091 122.507138 
L 111.790909 125.450094 
L 115.172727 129.876782 
L 118.554545 135.254338 
L 121.936364 140.485866 
L 125.318182 144.033906 
L 128.7 144.300007 
L 132.081818 140.165784 
L 135.463636 131.470945 
L 138.845455 119.201703 
L 142.227273 105.291046 
L 145.609091 92.103062 
L 148.990909 81.794932 
L 152.372727 75.779654 
L 155.754545 74.454374 
L 159.136364 77.248303 
L 162.518182 82.929534 
L 165.9 90.033753 
L 169.281818 97.26434 
L 172.663636 103.757164 
L 176.045455 109.168836 
L 179.427273 113.602674 
L 182.809091 117.425668 
L 186.190909 121.050302 
L 189.572727 124.752051 
L 192.954545 128.572763 
L 196.336364 132.330891 
L 199.718182 135.722617 
L 203.1 138.462571 
L 206.481818 140.399928 
L 209.863636 141.563226 
L 213.245455 142.124103 
L 216.627273 142.30852 
L 220.009091 142.304122 
L 223.390909 142.203156 
L 226.772727 141.994972 
L 230.154545 141.601584 
L 233.536364 140.936836 
L 236.918182 139.960557 
L 240.3 138.700993 
L 243.681818 137.237574 
L 247.063636 135.660609 
L 250.445455 134.035655 
L 253.827273 132.391074 
L 257.209091 130.729036 
L 260.590909 129.04677 
L 263.972727 127.35107 
L 267.354545 125.655603 
L 270.736364 123.964861 
L 274.118182 122.260671 
L 277.5 120.50727 
L 280.881818 118.678165 
L 284.263636 116.790926 
L 287.645455 114.926496 
L 291.027273 113.216568 
L 294.409091 111.803098 
L 297.790909 110.790547 
L 301.172727 110.209882 
L 304.554545 110.001508 
L 307.936364 110.019458 
" style="fill:none;stroke:#ffffff;stroke-linecap:square;stroke-width:1.5;"/>
   </g>
  </g>
 </g>
 <defs>
  <clipPath id="p1de903195c">
   <rect height="163.08" width="279" x="45" y="25.92"/>
  </clipPath>
 </defs>
</svg>
