<?xml version="1.0" encoding="utf-8" standalone="no"?>
<!DOCTYPE svg PUBLIC "-//W3C//DTD SVG 1.1//EN"
  "http://www.w3.org/Graphics/SVG/1.1/DTD/svg11.dtd">
<!-- Created with matplotlib (https://matplotlib.org/) -->
<svg height="371.31625pt" version="1.1" viewBox="0 0 608.98125 371.31625" width="608.98125pt" xmlns="http://www.w3.org/2000/svg" xmlns:xlink="http://www.w3.org/1999/xlink">
 <defs>
  <style type="text/css">
*{stroke-linecap:butt;stroke-linejoin:round;}
  </style>
 </defs>
 <g id="figure_1">
  <g id="patch_1">
   <path d="M 0 371.31625 
L 608.98125 371.31625 
L 608.98125 0 
L 0 0 
z
" style="fill:none;"/>
  </g>
  <g id="axes_1">
   <g id="line2d_1">
    <path clip-path="url(#p6ec7955a27)" d="M 69.144886 318.534545 
L 74.812738 318.407627 
L 80.48059 318.025798 
L 86.148441 317.38584 
L 91.816293 316.482396 
L 97.484145 315.307968 
L 103.151997 313.852941 
L 108.819848 312.1056 
L 114.4877 310.052173 
L 120.155552 307.676892 
L 125.823403 304.962091 
L 131.491255 301.888334 
L 137.159107 298.434607 
L 142.826958 294.578555 
L 148.49481 290.296811 
L 154.162662 285.565396 
L 159.830514 280.360233 
L 165.498365 274.65776 
L 171.166217 268.435666 
L 176.834069 261.673765 
L 182.50192 254.35498 
L 188.169772 246.466469 
L 193.837624 238.000857 
L 199.505475 228.957563 
L 205.173327 219.344188 
L 210.841179 209.177932 
L 216.509031 198.486969 
L 222.176882 187.311734 
L 227.844734 175.706034 
L 236.346512 157.643227 
L 247.682215 132.811779 
L 259.017918 107.958309 
L 264.68577 95.85885 
L 270.353622 84.176177 
L 276.021473 73.066627 
L 281.689325 62.688218 
L 284.523251 57.822049 
L 287.357177 53.196633 
L 290.191103 48.830362 
L 293.025029 44.740944 
L 295.858954 40.945263 
L 298.69288 37.459248 
L 301.526806 34.297748 
L 304.360732 31.474406 
L 307.194658 29.001552 
L 310.028584 26.890092 
L 312.86251 25.149423 
L 315.696435 23.787347 
L 318.530361 22.810002 
L 321.364287 22.221815 
L 324.198213 22.025455 
L 327.032139 22.221815 
L 329.866065 22.810002 
L 332.69999 23.787347 
L 335.533916 25.149423 
L 338.367842 26.890092 
L 341.201768 29.001552 
L 344.035694 31.474406 
L 346.86962 34.297748 
L 349.703546 37.459248 
L 352.537471 40.945263 
L 355.371397 44.740944 
L 358.205323 48.830362 
L 361.039249 53.196633 
L 363.873175 57.822049 
L 366.707101 62.688218 
L 372.374952 73.066627 
L 378.042804 84.176177 
L 383.710656 95.85885 
L 392.212433 114.116836 
L 417.717766 169.762449 
L 423.385618 181.558781 
L 429.053469 192.956847 
L 434.721321 203.895813 
L 440.389173 214.328682 
L 446.057025 224.221302 
L 451.724876 233.551154 
L 457.392728 242.306013 
L 463.06058 250.482545 
L 468.728431 258.084899 
L 474.396283 265.123344 
L 480.064135 271.612988 
L 485.731986 277.572594 
L 491.399838 283.023526 
L 497.06769 287.988821 
L 502.735542 292.492384 
L 508.403393 296.558313 
L 514.071245 300.210336 
L 519.739097 303.471361 
L 525.406948 306.363106 
L 531.0748 308.905825 
L 536.742652 311.118087 
L 542.410503 313.016623 
L 548.078355 314.616213 
L 553.746207 315.929606 
L 559.414059 316.967472 
L 565.08191 317.73837 
L 570.749762 318.248727 
L 576.417614 318.502833 
L 576.417614 318.502833 
" style="fill:none;stroke:#1387b0;stroke-linecap:square;stroke-width:1.5;"/>
   </g>
  </g>
 </g>
 <defs>
  <clipPath id="p6ec7955a27">
   <rect height="326.16" width="558" x="43.78125" y="7.2"/>
  </clipPath>
 </defs>
</svg>
